<svg width="40" height="40" viewBox="0 0 40 40" fill="none" xmlns="http://www.w3.org/2000/svg">
<path d="M20 0.5C16.1433 0.5 12.3731 1.64366 9.16639 3.78634C5.95963 5.92903 3.46027 8.97451 1.98436 12.5377C0.508449 16.1008 0.122284 20.0216 0.874696 23.8043C1.62711 27.5869 3.4843 31.0615 6.21143 33.7886C8.93855 36.5157 12.4131 38.3729 16.1957 39.1253C19.9784 39.8777 23.8992 39.4916 27.4623 38.0156C31.0255 36.5397 34.071 34.0404 36.2137 30.8336C38.3564 27.6269 39.5 23.8567 39.5 20C39.4901 14.8313 37.4325 9.87718 33.7776 6.22237C30.1228 2.56755 25.1687 0.509911 20 0.5ZM22.25 29H21.5V30.5C21.5 30.8978 21.342 31.2794 21.0607 31.5607C20.7794 31.842 20.3978 32 20 32C19.6022 32 19.2207 31.842 18.9393 31.5607C18.658 31.2794 18.5 30.8978 18.5 30.5V29H15.5C15.1022 29 14.7207 28.842 14.4393 28.5607C14.158 28.2794 14 27.8978 14 27.5C14 27.1022 14.158 26.7206 14.4393 26.4393C14.7207 26.158 15.1022 26 15.5 26H22.25C22.8467 26 23.419 25.7629 23.841 25.341C24.263 24.919 24.5 24.3467 24.5 23.75C24.5 23.1533 24.263 22.581 23.841 22.159C23.419 21.7371 22.8467 21.5 22.25 21.5H17.75C16.3576 21.5 15.0223 20.9469 14.0377 19.9623C13.0531 18.9777 12.5 17.6424 12.5 16.25C12.5 14.8576 13.0531 13.5223 14.0377 12.5377C15.0223 11.5531 16.3576 11 17.75 11H18.5V9.5C18.5 9.10218 18.658 8.72064 18.9393 8.43934C19.2207 8.15804 19.6022 8 20 8C20.3978 8 20.7794 8.15804 21.0607 8.43934C21.342 8.72064 21.5 9.10218 21.5 9.5V11H24.5C24.8978 11 25.2794 11.158 25.5607 11.4393C25.842 11.7206 26 12.1022 26 12.5C26 12.8978 25.842 13.2794 25.5607 13.5607C25.2794 13.842 24.8978 14 24.5 14H17.75C17.1533 14 16.581 14.2371 16.159 14.659C15.7371 15.081 15.5 15.6533 15.5 16.25C15.5 16.8467 15.7371 17.419 16.159 17.841C16.581 18.2629 17.1533 18.5 17.75 18.5H22.25C23.6424 18.5 24.9778 19.0531 25.9623 20.0377C26.9469 21.0223 27.5 22.3576 27.5 23.75C27.5 25.1424 26.9469 26.4777 25.9623 27.4623C24.9778 28.4469 23.6424 29 22.25 29Z" fill="#1FC9FF"/>
</svg>
