<svg width="36" height="36" viewBox="0 0 36 36" fill="none" xmlns="http://www.w3.org/2000/svg">
<path d="M8.25 16.5C12.8063 16.5 16.5 12.8063 16.5 8.25C16.5 3.69365 12.8063 0 8.25 0C3.69365 0 0 3.69365 0 8.25C0 12.8063 3.69365 16.5 8.25 16.5Z" fill="#001014"/>
<path d="M27.75 16.5C32.3063 16.5 36 12.8063 36 8.25C36 3.69365 32.3063 0 27.75 0C23.1937 0 19.5 3.69365 19.5 8.25C19.5 12.8063 23.1937 16.5 27.75 16.5Z" fill="#001014"/>
<path d="M8.25 36C12.8063 36 16.5 32.3063 16.5 27.75C16.5 23.1937 12.8063 19.5 8.25 19.5C3.69365 19.5 0 23.1937 0 27.75C0 32.3063 3.69365 36 8.25 36Z" fill="#001014"/>
<path d="M33 26.25H29.25V22.5C29.25 22.1022 29.092 21.7206 28.8107 21.4393C28.5294 21.158 28.1478 21 27.75 21C27.3522 21 26.9706 21.158 26.6893 21.4393C26.408 21.7206 26.25 22.1022 26.25 22.5V26.25H22.5C22.1022 26.25 21.7206 26.408 21.4393 26.6893C21.158 26.9706 21 27.3522 21 27.75C21 28.1478 21.158 28.5294 21.4393 28.8107C21.7206 29.092 22.1022 29.25 22.5 29.25H26.25V33C26.25 33.3978 26.408 33.7794 26.6893 34.0607C26.9706 34.342 27.3522 34.5 27.75 34.5C28.1478 34.5 28.5294 34.342 28.8107 34.0607C29.092 33.7794 29.25 33.3978 29.25 33V29.25H33C33.3978 29.25 33.7794 29.092 34.0607 28.8107C34.342 28.5294 34.5 28.1478 34.5 27.75C34.5 27.3522 34.342 26.9706 34.0607 26.6893C33.7794 26.408 33.3978 26.25 33 26.25Z" fill="#001014"/>
</svg>
