<svg width="470" height="146" viewBox="0 0 470 146" fill="none" xmlns="http://www.w3.org/2000/svg">
<path d="M0 12C0 5.37258 5.37258 0 12 0H458C464.627 0 470 5.37258 470 12V134C470 140.627 464.627 146 458 146H12C5.37257 146 0 140.627 0 134V12Z" fill="white"/>
<rect x="24" y="18.5" width="36" height="36" rx="18" fill="#327AEF" fill-opacity="0.08"/>
<path d="M49.2266 33.2658L42.8126 31.3986H42.8047L35.4766 29.258C35.29 29.2026 35.0929 29.1921 34.9015 29.2274C34.71 29.2627 34.5296 29.3428 34.3751 29.4611C34.2184 29.5762 34.0914 29.7269 34.0045 29.9008C33.9176 30.0747 33.8732 30.2667 33.8751 30.4611V41.2892C33.875 41.6194 34.0057 41.9361 34.2384 42.1703C34.4711 42.4045 34.7871 42.5371 35.1172 42.5392C35.2386 42.5395 35.3594 42.5237 35.4766 42.4923L42.0001 40.5861V41.5001C42.0001 41.8317 42.1318 42.1496 42.3662 42.384C42.6006 42.6184 42.9185 42.7501 43.2501 42.7501H45.7501C46.0816 42.7501 46.3995 42.6184 46.6339 42.384C46.8684 42.1496 47.0001 41.8317 47.0001 41.5001V39.133L49.2266 38.4845C49.4858 38.4072 49.7132 38.2485 49.8751 38.0317C50.0369 37.815 50.1246 37.5519 50.1251 37.2814V34.4689C50.1246 34.1984 50.0369 33.9353 49.8751 33.7186C49.7132 33.5018 49.4858 33.3431 49.2266 33.2658V33.2658ZM45.7501 41.5001H43.2501V40.2267L45.7501 39.4923V41.5001ZM48.8751 37.2814L46.1876 38.0626L43.2501 38.922V32.8283L48.8751 34.4689V37.2814Z" fill="#327AEF"/>
<path d="M74.642 32.5H72.392L76.4886 20.8636H79.0909L83.1932 32.5H80.9432L77.8352 23.25H77.7443L74.642 32.5ZM74.7159 27.9375H80.8523V29.6307H74.7159V27.9375ZM87.608 32.6534C86.9223 32.6534 86.3087 32.4773 85.767 32.125C85.2254 31.7727 84.7973 31.2614 84.483 30.5909C84.1686 29.9205 84.0114 29.1061 84.0114 28.1477C84.0114 27.178 84.1705 26.3598 84.4886 25.6932C84.8106 25.0227 85.2443 24.517 85.7898 24.1761C86.3352 23.8314 86.9432 23.6591 87.6136 23.6591C88.125 23.6591 88.5455 23.7462 88.875 23.9205C89.2045 24.0909 89.4659 24.2973 89.6591 24.5398C89.8523 24.7784 90.0019 25.0038 90.108 25.2159H90.1932V20.8636H92.2557V32.5H90.233V31.125H90.108C90.0019 31.3371 89.8485 31.5625 89.6477 31.8011C89.447 32.036 89.1818 32.2367 88.8523 32.4034C88.5227 32.5701 88.108 32.6534 87.608 32.6534ZM88.1818 30.9659C88.6174 30.9659 88.9886 30.8485 89.2955 30.6136C89.6023 30.375 89.8352 30.0436 89.9943 29.6193C90.1534 29.1951 90.233 28.7008 90.233 28.1364C90.233 27.572 90.1534 27.0814 89.9943 26.6648C89.839 26.2481 89.608 25.9242 89.3011 25.6932C88.9981 25.4621 88.625 25.3466 88.1818 25.3466C87.7235 25.3466 87.3409 25.4659 87.0341 25.7045C86.7273 25.9432 86.4962 26.2727 86.3409 26.6932C86.1856 27.1136 86.108 27.5947 86.108 28.1364C86.108 28.6818 86.1856 29.1686 86.3409 29.5966C86.5 30.0208 86.733 30.3561 87.0398 30.6023C87.3504 30.8447 87.7311 30.9659 88.1818 30.9659ZM101.345 26.0795L99.4702 26.2841C99.4171 26.0947 99.3243 25.9167 99.1918 25.75C99.063 25.5833 98.8887 25.4489 98.669 25.3466C98.4493 25.2443 98.1804 25.1932 97.8622 25.1932C97.4342 25.1932 97.0743 25.286 96.7827 25.4716C96.4948 25.6572 96.3527 25.8977 96.3565 26.1932C96.3527 26.447 96.4455 26.6534 96.6349 26.8125C96.8281 26.9716 97.1463 27.1023 97.5895 27.2045L99.0781 27.5227C99.9039 27.7008 100.518 27.983 100.919 28.3693C101.324 28.7557 101.529 29.2614 101.533 29.8864C101.529 30.4356 101.368 30.9205 101.05 31.3409C100.735 31.7576 100.298 32.0833 99.7372 32.3182C99.1766 32.553 98.5327 32.6705 97.8054 32.6705C96.7372 32.6705 95.8774 32.447 95.2259 32C94.5743 31.5492 94.1861 30.9223 94.0611 30.1193L96.0668 29.9261C96.1577 30.3201 96.3509 30.6174 96.6463 30.8182C96.9418 31.0189 97.3262 31.1193 97.7997 31.1193C98.2884 31.1193 98.6804 31.0189 98.9759 30.8182C99.2751 30.6174 99.4247 30.3693 99.4247 30.0739C99.4247 29.8239 99.3281 29.6174 99.1349 29.4545C98.9455 29.2917 98.6501 29.1667 98.2486 29.0795L96.7599 28.767C95.9228 28.5928 95.3035 28.2992 94.902 27.8864C94.5005 27.4697 94.3016 26.9432 94.3054 26.3068C94.3016 25.7689 94.4474 25.303 94.7429 24.9091C95.0421 24.5114 95.4569 24.2045 95.9872 23.9886C96.5213 23.7689 97.1368 23.6591 97.8338 23.6591C98.8565 23.6591 99.6615 23.8769 100.249 24.3125C100.839 24.7481 101.205 25.3371 101.345 26.0795ZM117.249 24.7898H115.124C115.063 24.4413 114.951 24.1326 114.788 23.8636C114.625 23.5909 114.423 23.3598 114.18 23.1705C113.938 22.9811 113.661 22.839 113.351 22.7443C113.044 22.6458 112.713 22.5966 112.357 22.5966C111.724 22.5966 111.163 22.7557 110.675 23.0739C110.186 23.3883 109.804 23.8504 109.527 24.4602C109.25 25.0663 109.112 25.8068 109.112 26.6818C109.112 27.572 109.25 28.322 109.527 28.9318C109.807 29.5379 110.19 29.9962 110.675 30.3068C111.163 30.6136 111.722 30.767 112.351 30.767C112.699 30.767 113.025 30.7216 113.328 30.6307C113.635 30.536 113.91 30.3977 114.152 30.2159C114.398 30.0341 114.605 29.8106 114.771 29.5455C114.942 29.2803 115.059 28.9773 115.124 28.6364L117.249 28.6477C117.169 29.2008 116.997 29.7197 116.732 30.2045C116.47 30.6894 116.127 31.1174 115.703 31.4886C115.279 31.8561 114.783 32.1439 114.214 32.3523C113.646 32.5568 113.016 32.6591 112.322 32.6591C111.3 32.6591 110.387 32.4223 109.584 31.9489C108.781 31.4754 108.148 30.7917 107.686 29.8977C107.224 29.0038 106.993 27.9318 106.993 26.6818C106.993 25.428 107.226 24.3561 107.692 23.4659C108.158 22.572 108.792 21.8883 109.595 21.4148C110.398 20.9413 111.307 20.7045 112.322 20.7045C112.97 20.7045 113.572 20.7955 114.129 20.9773C114.686 21.1591 115.182 21.4261 115.618 21.7784C116.054 22.1269 116.411 22.5549 116.692 23.0625C116.976 23.5663 117.161 24.142 117.249 24.7898ZM121.145 27.3864V32.5H119.088V20.8636H121.099V25.2557H121.202C121.406 24.7633 121.723 24.375 122.151 24.0909C122.582 23.803 123.132 23.6591 123.798 23.6591C124.404 23.6591 124.933 23.786 125.384 24.0398C125.834 24.2936 126.183 24.6648 126.429 25.1534C126.679 25.642 126.804 26.2386 126.804 26.9432V32.5H124.747V27.2614C124.747 26.6742 124.596 26.2178 124.293 25.892C123.993 25.5625 123.573 25.3977 123.031 25.3977C122.668 25.3977 122.342 25.4773 122.054 25.6364C121.77 25.7917 121.546 26.017 121.384 26.3125C121.224 26.608 121.145 26.9659 121.145 27.3864ZM131.412 32.6761C130.859 32.6761 130.361 32.5777 129.918 32.3807C129.478 32.1799 129.13 31.8845 128.872 31.4943C128.618 31.1042 128.491 30.6231 128.491 30.0511C128.491 29.5587 128.582 29.1515 128.764 28.8295C128.946 28.5076 129.194 28.25 129.509 28.0568C129.823 27.8636 130.177 27.7178 130.571 27.6193C130.969 27.517 131.38 27.4432 131.804 27.3977C132.315 27.3447 132.73 27.2973 133.048 27.2557C133.366 27.2102 133.598 27.142 133.741 27.0511C133.889 26.9564 133.963 26.8106 133.963 26.6136V26.5795C133.963 26.1515 133.836 25.8201 133.582 25.5852C133.329 25.3504 132.963 25.233 132.486 25.233C131.982 25.233 131.582 25.3428 131.287 25.5625C130.995 25.7822 130.798 26.0417 130.696 26.3409L128.776 26.0682C128.927 25.5379 129.177 25.0947 129.526 24.7386C129.874 24.3788 130.3 24.1098 130.804 23.9318C131.308 23.75 131.865 23.6591 132.474 23.6591C132.895 23.6591 133.313 23.7083 133.73 23.8068C134.147 23.9053 134.527 24.0682 134.872 24.2955C135.217 24.5189 135.493 24.8239 135.702 25.2102C135.914 25.5966 136.02 26.0795 136.02 26.6591V32.5H134.043V31.3011H133.974C133.849 31.5436 133.673 31.7708 133.446 31.983C133.223 32.1913 132.94 32.3598 132.599 32.4886C132.262 32.6136 131.866 32.6761 131.412 32.6761ZM131.946 31.1648C132.359 31.1648 132.717 31.0833 133.02 30.9205C133.323 30.7538 133.556 30.5341 133.719 30.2614C133.885 29.9886 133.969 29.6913 133.969 29.3693V28.3409C133.904 28.3939 133.795 28.4432 133.639 28.4886C133.488 28.5341 133.317 28.5739 133.128 28.608C132.938 28.642 132.751 28.6723 132.565 28.6989C132.38 28.7254 132.219 28.7481 132.082 28.767C131.776 28.8087 131.501 28.8769 131.259 28.9716C131.016 29.0663 130.825 29.1989 130.685 29.3693C130.545 29.536 130.474 29.7519 130.474 30.017C130.474 30.3958 130.613 30.6818 130.889 30.875C131.166 31.0682 131.518 31.1648 131.946 31.1648ZM140.145 20.8636V32.5H138.088V20.8636H140.145ZM144.317 20.8636V32.5H142.26V20.8636H144.317ZM148.943 32.6761C148.39 32.6761 147.892 32.5777 147.449 32.3807C147.009 32.1799 146.661 31.8845 146.403 31.4943C146.15 31.1042 146.023 30.6231 146.023 30.0511C146.023 29.5587 146.114 29.1515 146.295 28.8295C146.477 28.5076 146.725 28.25 147.04 28.0568C147.354 27.8636 147.708 27.7178 148.102 27.6193C148.5 27.517 148.911 27.4432 149.335 27.3977C149.847 27.3447 150.261 27.2973 150.58 27.2557C150.898 27.2102 151.129 27.142 151.273 27.0511C151.42 26.9564 151.494 26.8106 151.494 26.6136V26.5795C151.494 26.1515 151.367 25.8201 151.114 25.5852C150.86 25.3504 150.494 25.233 150.017 25.233C149.513 25.233 149.114 25.3428 148.818 25.5625C148.527 25.7822 148.33 26.0417 148.227 26.3409L146.307 26.0682C146.458 25.5379 146.708 25.0947 147.057 24.7386C147.405 24.3788 147.831 24.1098 148.335 23.9318C148.839 23.75 149.396 23.6591 150.006 23.6591C150.426 23.6591 150.845 23.7083 151.261 23.8068C151.678 23.9053 152.059 24.0682 152.403 24.2955C152.748 24.5189 153.025 24.8239 153.233 25.2102C153.445 25.5966 153.551 26.0795 153.551 26.6591V32.5H151.574V31.3011H151.506C151.381 31.5436 151.205 31.7708 150.977 31.983C150.754 32.1913 150.472 32.3598 150.131 32.4886C149.794 32.6136 149.398 32.6761 148.943 32.6761ZM149.477 31.1648C149.89 31.1648 150.248 31.0833 150.551 30.9205C150.854 30.7538 151.087 30.5341 151.25 30.2614C151.417 29.9886 151.5 29.6913 151.5 29.3693V28.3409C151.436 28.3939 151.326 28.4432 151.17 28.4886C151.019 28.5341 150.848 28.5739 150.659 28.608C150.47 28.642 150.282 28.6723 150.097 28.6989C149.911 28.7254 149.75 28.7481 149.614 28.767C149.307 28.8087 149.032 28.8769 148.79 28.9716C148.547 29.0663 148.356 29.1989 148.216 29.3693C148.076 29.536 148.006 29.7519 148.006 30.017C148.006 30.3958 148.144 30.6818 148.42 30.875C148.697 31.0682 149.049 31.1648 149.477 31.1648ZM157.676 27.3864V32.5H155.619V23.7727H157.585V25.2557H157.688C157.888 24.767 158.208 24.3788 158.648 24.0909C159.091 23.803 159.638 23.6591 160.29 23.6591C160.892 23.6591 161.417 23.7879 161.864 24.0455C162.314 24.303 162.663 24.6761 162.909 25.1648C163.159 25.6534 163.282 26.2462 163.278 26.9432V32.5H161.222V27.2614C161.222 26.678 161.07 26.2216 160.767 25.892C160.468 25.5625 160.053 25.3977 159.523 25.3977C159.163 25.3977 158.843 25.4773 158.562 25.6364C158.286 25.7917 158.068 26.017 157.909 26.3125C157.754 26.608 157.676 26.9659 157.676 27.3864ZM169.165 35.9545C168.426 35.9545 167.792 35.8542 167.261 35.6534C166.731 35.4564 166.305 35.1913 165.983 34.858C165.661 34.5246 165.438 34.1553 165.312 33.75L167.165 33.3011C167.248 33.4716 167.369 33.6402 167.528 33.8068C167.688 33.9773 167.902 34.1174 168.17 34.2273C168.443 34.3409 168.786 34.3977 169.199 34.3977C169.782 34.3977 170.265 34.2557 170.648 33.9716C171.03 33.6913 171.222 33.2292 171.222 32.5852V30.9318H171.119C171.013 31.1439 170.858 31.3617 170.653 31.5852C170.453 31.8087 170.186 31.9962 169.852 32.1477C169.523 32.2992 169.108 32.375 168.608 32.375C167.938 32.375 167.33 32.2178 166.784 31.9034C166.242 31.5852 165.811 31.1117 165.489 30.483C165.17 29.8504 165.011 29.0587 165.011 28.108C165.011 27.1496 165.17 26.3409 165.489 25.6818C165.811 25.0189 166.244 24.517 166.79 24.1761C167.335 23.8314 167.943 23.6591 168.614 23.6591C169.125 23.6591 169.545 23.7462 169.875 23.9205C170.208 24.0909 170.473 24.2973 170.67 24.5398C170.867 24.7784 171.017 25.0038 171.119 25.2159H171.233V23.7727H173.261V32.642C173.261 33.3883 173.083 34.0057 172.727 34.4943C172.371 34.983 171.884 35.3485 171.267 35.5909C170.65 35.8333 169.949 35.9545 169.165 35.9545ZM169.182 30.7614C169.617 30.7614 169.989 30.6553 170.295 30.4432C170.602 30.2311 170.835 29.9261 170.994 29.5284C171.153 29.1307 171.233 28.6534 171.233 28.0966C171.233 27.5473 171.153 27.0663 170.994 26.6534C170.839 26.2405 170.608 25.9205 170.301 25.6932C169.998 25.4621 169.625 25.3466 169.182 25.3466C168.723 25.3466 168.341 25.4659 168.034 25.7045C167.727 25.9432 167.496 26.2708 167.341 26.6875C167.186 27.1004 167.108 27.5701 167.108 28.0966C167.108 28.6307 167.186 29.0985 167.341 29.5C167.5 29.8977 167.733 30.2083 168.04 30.4318C168.35 30.6515 168.731 30.7614 169.182 30.7614ZM179.233 32.6705C178.358 32.6705 177.602 32.4886 176.966 32.125C176.333 31.7576 175.847 31.2386 175.506 30.5682C175.165 29.8939 174.994 29.1004 174.994 28.1875C174.994 27.2898 175.165 26.5019 175.506 25.8239C175.85 25.142 176.331 24.6117 176.949 24.233C177.566 23.8504 178.292 23.6591 179.125 23.6591C179.663 23.6591 180.17 23.7462 180.648 23.9205C181.129 24.0909 181.553 24.3561 181.92 24.7159C182.292 25.0758 182.583 25.5341 182.795 26.0909C183.008 26.6439 183.114 27.303 183.114 28.0682V28.6989H175.96V27.3125H181.142C181.138 26.9186 181.053 26.5682 180.886 26.2614C180.72 25.9508 180.487 25.7064 180.188 25.5284C179.892 25.3504 179.547 25.2614 179.153 25.2614C178.733 25.2614 178.364 25.3636 178.045 25.5682C177.727 25.7689 177.479 26.0341 177.301 26.3636C177.127 26.6894 177.038 27.0473 177.034 27.4375V28.6477C177.034 29.1553 177.127 29.5909 177.312 29.9545C177.498 30.3144 177.758 30.5909 178.091 30.7841C178.424 30.9735 178.814 31.0682 179.261 31.0682C179.561 31.0682 179.831 31.0265 180.074 30.9432C180.316 30.8561 180.527 30.7292 180.705 30.5625C180.883 30.3958 181.017 30.1894 181.108 29.9432L183.028 30.1591C182.907 30.6667 182.676 31.1098 182.335 31.4886C181.998 31.8636 181.566 32.1553 181.04 32.3636C180.513 32.5682 179.911 32.6705 179.233 32.6705Z" fill="black" fill-opacity="0.96"/>
<path d="M75.9716 43.7727V52.5H74.9148V44.8807H74.8636L72.733 46.2955V45.2216L74.9148 43.7727H75.9716ZM78.277 50.7102V49.8409L82.1122 43.7727H82.7429V45.1193H82.3168L79.419 49.7045V49.7727H84.5838V50.7102H78.277ZM82.3849 52.5V50.446V50.0412V43.7727H83.3906V52.5H82.3849ZM87.2876 51.3068L87.2195 51.767C87.1712 52.0909 87.0973 52.4375 86.9979 52.8068C86.9013 53.1761 86.8004 53.5241 86.6953 53.8509C86.5902 54.1776 86.5036 54.4375 86.4354 54.6307H85.6683C85.7053 54.4489 85.7536 54.2088 85.8132 53.9105C85.8729 53.6122 85.9325 53.2784 85.9922 52.9091C86.0547 52.5426 86.1058 52.1676 86.1456 51.7841L86.1967 51.3068H87.2876ZM91.6854 52.6193C91.1854 52.6193 90.7351 52.5199 90.3345 52.321C89.9339 52.1222 89.6129 51.8494 89.3714 51.5028C89.13 51.1562 88.9979 50.7614 88.9751 50.3182H89.9979C90.0376 50.7131 90.2166 51.0398 90.5348 51.2983C90.8558 51.554 91.2393 51.6818 91.6854 51.6818C92.0433 51.6818 92.3615 51.598 92.6399 51.4304C92.9212 51.2628 93.1413 51.0327 93.3004 50.7401C93.4624 50.4446 93.5433 50.1108 93.5433 49.7386C93.5433 49.358 93.4595 49.0185 93.2919 48.7202C93.1271 48.419 92.8999 48.1818 92.6101 48.0085C92.3203 47.8352 91.9893 47.7472 91.6172 47.7443C91.3501 47.7415 91.076 47.7827 90.7947 47.8679C90.5135 47.9503 90.282 48.0568 90.1001 48.1875L89.1115 48.0682L89.6399 43.7727H94.174V44.7102H90.5263L90.2195 47.2841H90.2706C90.4496 47.142 90.674 47.0241 90.9439 46.9304C91.2138 46.8366 91.495 46.7898 91.7876 46.7898C92.3217 46.7898 92.7976 46.9176 93.2152 47.1733C93.6357 47.4261 93.9652 47.7727 94.2038 48.2131C94.4453 48.6534 94.5661 49.1562 94.5661 49.7216C94.5661 50.2784 94.4411 50.7756 94.1911 51.2131C93.9439 51.6477 93.603 51.9915 93.1683 52.2443C92.7337 52.4943 92.2393 52.6193 91.6854 52.6193ZM99.1566 52.6193C98.7987 52.6136 98.4407 52.5455 98.0827 52.4148C97.7248 52.2841 97.3981 52.0639 97.1026 51.7543C96.8072 51.4418 96.57 51.0199 96.391 50.4886C96.212 49.9545 96.1225 49.2841 96.1225 48.4773C96.1225 47.7045 96.195 47.0199 96.3398 46.4233C96.4847 45.8239 96.695 45.3196 96.9705 44.9105C97.2461 44.4986 97.5785 44.1861 97.9677 43.973C98.3597 43.7599 98.8015 43.6534 99.293 43.6534C99.7816 43.6534 100.216 43.7514 100.597 43.9474C100.98 44.1406 101.293 44.4105 101.534 44.7571C101.776 45.1037 101.932 45.5028 102.003 45.9545H100.963C100.867 45.5625 100.679 45.2372 100.401 44.9787C100.123 44.7202 99.7532 44.5909 99.293 44.5909C98.6168 44.5909 98.0842 44.8849 97.695 45.473C97.3086 46.0611 97.114 46.8864 97.1112 47.9489H97.1793C97.3384 47.7074 97.5273 47.5014 97.7461 47.331C97.9677 47.1577 98.212 47.0241 98.479 46.9304C98.7461 46.8366 99.0288 46.7898 99.3271 46.7898C99.8271 46.7898 100.284 46.9148 100.699 47.1648C101.114 47.4119 101.446 47.7543 101.696 48.1918C101.946 48.6264 102.071 49.125 102.071 49.6875C102.071 50.2273 101.951 50.7216 101.709 51.1705C101.468 51.6165 101.128 51.9716 100.691 52.2358C100.256 52.4972 99.7447 52.625 99.1566 52.6193ZM99.1566 51.6818C99.5146 51.6818 99.8356 51.5923 100.12 51.4134C100.407 51.2344 100.632 50.9943 100.797 50.6932C100.965 50.392 101.049 50.0568 101.049 49.6875C101.049 49.3267 100.968 48.9986 100.806 48.7031C100.647 48.4048 100.426 48.1676 100.145 47.9915C99.8668 47.8153 99.5487 47.7273 99.1907 47.7273C98.9208 47.7273 98.6694 47.7812 98.4364 47.8892C98.2035 47.9943 97.9989 48.1392 97.8228 48.3239C97.6495 48.5085 97.5131 48.7202 97.4137 48.9588C97.3143 49.1946 97.2646 49.4432 97.2646 49.7045C97.2646 50.0511 97.3455 50.375 97.5075 50.6761C97.6722 50.9773 97.8967 51.2202 98.1808 51.4048C98.4677 51.5895 98.793 51.6818 99.1566 51.6818ZM103.747 52.5V51.733L106.628 48.5795C106.966 48.2102 107.244 47.8892 107.463 47.6165C107.682 47.3409 107.844 47.0824 107.949 46.8409C108.057 46.5966 108.111 46.3409 108.111 46.0739C108.111 45.767 108.037 45.5014 107.889 45.277C107.744 45.0526 107.545 44.8793 107.293 44.7571C107.04 44.6349 106.756 44.5739 106.44 44.5739C106.105 44.5739 105.812 44.6435 105.562 44.7827C105.315 44.919 105.124 45.1108 104.987 45.358C104.854 45.6051 104.787 45.8949 104.787 46.2273H103.781C103.781 45.7159 103.899 45.267 104.135 44.8807C104.371 44.4943 104.692 44.1932 105.098 43.9773C105.507 43.7614 105.966 43.6534 106.474 43.6534C106.986 43.6534 107.439 43.7614 107.834 43.9773C108.229 44.1932 108.538 44.4844 108.763 44.8509C108.987 45.2173 109.099 45.625 109.099 46.0739C109.099 46.3949 109.041 46.7088 108.925 47.0156C108.811 47.3196 108.612 47.6591 108.328 48.0341C108.047 48.4062 107.656 48.8608 107.156 49.3977L105.196 51.4943V51.5625H109.253V52.5H103.747ZM119.314 45.9545C119.263 45.5227 119.055 45.1875 118.692 44.9489C118.328 44.7102 117.882 44.5909 117.354 44.5909C116.967 44.5909 116.629 44.6534 116.339 44.7784C116.053 44.9034 115.828 45.0753 115.666 45.294C115.507 45.5128 115.428 45.7614 115.428 46.0398C115.428 46.2727 115.483 46.473 115.594 46.6406C115.707 46.8054 115.852 46.9432 116.028 47.054C116.205 47.1619 116.389 47.2514 116.582 47.3224C116.776 47.3906 116.953 47.446 117.115 47.4886L118.001 47.7273C118.229 47.7869 118.482 47.8693 118.76 47.9744C119.041 48.0795 119.31 48.223 119.565 48.4048C119.824 48.5838 120.037 48.8139 120.205 49.0952C120.372 49.3764 120.456 49.7216 120.456 50.1307C120.456 50.6023 120.332 51.0284 120.085 51.4091C119.841 51.7898 119.483 52.0923 119.011 52.3168C118.543 52.5412 117.973 52.6534 117.303 52.6534C116.678 52.6534 116.136 52.5526 115.679 52.3509C115.224 52.1491 114.866 51.8679 114.605 51.5071C114.347 51.1463 114.2 50.7273 114.166 50.25H115.257C115.286 50.5795 115.396 50.8523 115.589 51.0682C115.786 51.2812 116.033 51.4403 116.331 51.5455C116.632 51.6477 116.956 51.6989 117.303 51.6989C117.706 51.6989 118.068 51.6335 118.389 51.5028C118.71 51.3693 118.964 51.1847 119.152 50.9489C119.339 50.7102 119.433 50.4318 119.433 50.1136C119.433 49.8239 119.352 49.5881 119.19 49.4062C119.028 49.2244 118.815 49.0767 118.551 48.9631C118.287 48.8494 118.001 48.75 117.695 48.6648L116.621 48.358C115.939 48.1619 115.399 47.8821 115.001 47.5185C114.604 47.1548 114.405 46.679 114.405 46.0909C114.405 45.6023 114.537 45.1761 114.801 44.8125C115.068 44.446 115.426 44.1619 115.875 43.9602C116.327 43.7557 116.831 43.6534 117.388 43.6534C117.95 43.6534 118.45 43.7543 118.888 43.956C119.325 44.1548 119.672 44.4276 119.928 44.7741C120.186 45.1207 120.322 45.5142 120.337 45.9545H119.314ZM124.801 52.6364C124.171 52.6364 123.627 52.4972 123.169 52.2188C122.715 51.9375 122.364 51.5455 122.117 51.0426C121.873 50.5369 121.75 49.9489 121.75 49.2784C121.75 48.608 121.873 48.017 122.117 47.5057C122.364 46.9915 122.708 46.5909 123.148 46.304C123.591 46.0142 124.108 45.8693 124.699 45.8693C125.04 45.8693 125.377 45.9261 125.709 46.0398C126.042 46.1534 126.344 46.3381 126.617 46.5938C126.89 46.8466 127.107 47.1818 127.269 47.5994C127.431 48.017 127.512 48.5312 127.512 49.142V49.5682H122.466V48.6989H126.489C126.489 48.3295 126.415 48 126.267 47.7102C126.123 47.4205 125.915 47.1918 125.645 47.0241C125.378 46.8565 125.063 46.7727 124.699 46.7727C124.299 46.7727 123.952 46.8722 123.659 47.071C123.37 47.267 123.147 47.5227 122.99 47.8381C122.834 48.1534 122.756 48.4915 122.756 48.8523V49.4318C122.756 49.9261 122.841 50.3452 123.012 50.6889C123.185 51.0298 123.425 51.2898 123.732 51.4688C124.039 51.6449 124.395 51.733 124.801 51.733C125.066 51.733 125.304 51.696 125.517 51.6222C125.733 51.5455 125.919 51.4318 126.076 51.2812C126.232 51.1278 126.353 50.9375 126.438 50.7102L127.409 50.983C127.307 51.3125 127.135 51.6023 126.894 51.8523C126.652 52.0994 126.354 52.2926 125.999 52.4318C125.644 52.5682 125.245 52.6364 124.801 52.6364ZM131.786 52.6364C131.155 52.6364 130.611 52.4972 130.154 52.2188C129.699 51.9375 129.348 51.5455 129.101 51.0426C128.857 50.5369 128.735 49.9489 128.735 49.2784C128.735 48.608 128.857 48.017 129.101 47.5057C129.348 46.9915 129.692 46.5909 130.132 46.304C130.576 46.0142 131.093 45.8693 131.684 45.8693C132.025 45.8693 132.361 45.9261 132.694 46.0398C133.026 46.1534 133.328 46.3381 133.601 46.5938C133.874 46.8466 134.091 47.1818 134.253 47.5994C134.415 48.017 134.496 48.5312 134.496 49.142V49.5682H129.451V48.6989H133.473C133.473 48.3295 133.4 48 133.252 47.7102C133.107 47.4205 132.9 47.1918 132.63 47.0241C132.363 46.8565 132.047 46.7727 131.684 46.7727C131.283 46.7727 130.936 46.8722 130.644 47.071C130.354 47.267 130.131 47.5227 129.975 47.8381C129.819 48.1534 129.74 48.4915 129.74 48.8523V49.4318C129.74 49.9261 129.826 50.3452 129.996 50.6889C130.169 51.0298 130.409 51.2898 130.716 51.4688C131.023 51.6449 131.38 51.733 131.786 51.733C132.05 51.733 132.289 51.696 132.502 51.6222C132.718 51.5455 132.904 51.4318 133.06 51.2812C133.216 51.1278 133.337 50.9375 133.422 50.7102L134.394 50.983C134.292 51.3125 134.12 51.6023 133.878 51.8523C133.637 52.0994 133.338 52.2926 132.983 52.4318C132.628 52.5682 132.229 52.6364 131.786 52.6364ZM139.401 54.9545V45.9545H140.373V46.9943H140.492C140.566 46.8807 140.668 46.7358 140.799 46.5597C140.932 46.3807 141.123 46.2216 141.37 46.0824C141.62 45.9403 141.958 45.8693 142.384 45.8693C142.935 45.8693 143.421 46.0071 143.841 46.2827C144.262 46.5582 144.59 46.9489 144.826 47.4545C145.061 47.9602 145.179 48.5568 145.179 49.2443C145.179 49.9375 145.061 50.5384 144.826 51.0469C144.59 51.5526 144.263 51.9446 143.846 52.223C143.428 52.4986 142.946 52.6364 142.401 52.6364C141.98 52.6364 141.644 52.5668 141.391 52.4276C141.138 52.2855 140.944 52.125 140.807 51.946C140.671 51.7642 140.566 51.6136 140.492 51.4943H140.407V54.9545H139.401ZM140.39 49.2273C140.39 49.7216 140.462 50.1577 140.607 50.5355C140.752 50.9105 140.963 51.2045 141.242 51.4176C141.52 51.6278 141.861 51.733 142.265 51.733C142.685 51.733 143.036 51.6222 143.317 51.4006C143.601 51.1761 143.814 50.875 143.956 50.4972C144.101 50.1165 144.174 49.6932 144.174 49.2273C144.174 48.767 144.103 48.3523 143.961 47.983C143.821 47.6108 143.61 47.3168 143.326 47.1009C143.044 46.8821 142.691 46.7727 142.265 46.7727C141.855 46.7727 141.512 46.8764 141.233 47.0838C140.955 47.2884 140.745 47.5753 140.603 47.9446C140.461 48.3111 140.39 48.7386 140.39 49.2273ZM149.373 52.6364C148.782 52.6364 148.263 52.4957 147.817 52.2145C147.374 51.9332 147.027 51.5398 146.777 51.0341C146.53 50.5284 146.407 49.9375 146.407 49.2614C146.407 48.5795 146.53 47.9844 146.777 47.4759C147.027 46.9673 147.374 46.5724 147.817 46.2912C148.263 46.0099 148.782 45.8693 149.373 45.8693C149.963 45.8693 150.48 46.0099 150.924 46.2912C151.37 46.5724 151.716 46.9673 151.963 47.4759C152.213 47.9844 152.338 48.5795 152.338 49.2614C152.338 49.9375 152.213 50.5284 151.963 51.0341C151.716 51.5398 151.37 51.9332 150.924 52.2145C150.48 52.4957 149.963 52.6364 149.373 52.6364ZM149.373 51.733C149.821 51.733 150.191 51.6179 150.48 51.3878C150.77 51.1577 150.985 50.8551 151.124 50.4801C151.263 50.1051 151.333 49.6989 151.333 49.2614C151.333 48.8239 151.263 48.4162 151.124 48.0384C150.985 47.6605 150.77 47.3551 150.48 47.1222C150.191 46.8892 149.821 46.7727 149.373 46.7727C148.924 46.7727 148.554 46.8892 148.265 47.1222C147.975 47.3551 147.76 47.6605 147.621 48.0384C147.482 48.4162 147.412 48.8239 147.412 49.2614C147.412 49.6989 147.482 50.1051 147.621 50.4801C147.76 50.8551 147.975 51.1577 148.265 51.3878C148.554 51.6179 148.924 51.733 149.373 51.733ZM158.51 47.4205L157.607 47.6761C157.55 47.5256 157.466 47.3793 157.355 47.2372C157.247 47.0923 157.099 46.973 156.912 46.8793C156.724 46.7855 156.484 46.7386 156.192 46.7386C155.791 46.7386 155.457 46.831 155.19 47.0156C154.926 47.1974 154.794 47.429 154.794 47.7102C154.794 47.9602 154.885 48.1577 155.067 48.3026C155.249 48.4474 155.533 48.5682 155.919 48.6648L156.891 48.9034C157.476 49.0455 157.912 49.2628 158.199 49.5554C158.486 49.8452 158.629 50.2187 158.629 50.6761C158.629 51.0511 158.521 51.3864 158.305 51.6818C158.092 51.9773 157.794 52.2102 157.411 52.3807C157.027 52.5511 156.581 52.6364 156.072 52.6364C155.405 52.6364 154.852 52.4915 154.415 52.2017C153.977 51.9119 153.7 51.4886 153.584 50.9318L154.538 50.6932C154.629 51.0455 154.801 51.3097 155.054 51.4858C155.31 51.6619 155.643 51.75 156.055 51.75C156.524 51.75 156.896 51.6506 157.172 51.4517C157.45 51.25 157.589 51.0085 157.589 50.7273C157.589 50.5 157.51 50.3097 157.351 50.1562C157.192 50 156.947 49.8835 156.618 49.8068L155.527 49.5511C154.928 49.4091 154.487 49.1889 154.206 48.8906C153.928 48.5895 153.788 48.2131 153.788 47.7614C153.788 47.392 153.892 47.0653 154.099 46.7812C154.31 46.4972 154.595 46.2741 154.956 46.1122C155.32 45.9503 155.732 45.8693 156.192 45.8693C156.839 45.8693 157.348 46.0114 157.717 46.2955C158.089 46.5795 158.354 46.9545 158.51 47.4205ZM162.99 45.9545V46.8068H159.598V45.9545H162.99ZM160.586 44.3864H161.592V50.625C161.592 50.9091 161.633 51.1222 161.716 51.2642C161.801 51.4034 161.909 51.4972 162.039 51.5455C162.173 51.5909 162.314 51.6136 162.461 51.6136C162.572 51.6136 162.663 51.608 162.734 51.5966C162.805 51.5824 162.862 51.571 162.904 51.5625L163.109 52.4659C163.041 52.4915 162.946 52.517 162.824 52.5426C162.701 52.571 162.547 52.5852 162.359 52.5852C162.075 52.5852 161.797 52.5241 161.524 52.402C161.254 52.2798 161.029 52.0938 160.85 51.8438C160.674 51.5938 160.586 51.2784 160.586 50.8977V44.3864ZM167.176 52.6364C166.546 52.6364 166.002 52.4972 165.544 52.2188C165.09 51.9375 164.739 51.5455 164.492 51.0426C164.248 50.5369 164.125 49.9489 164.125 49.2784C164.125 48.608 164.248 48.017 164.492 47.5057C164.739 46.9915 165.083 46.5909 165.523 46.304C165.966 46.0142 166.483 45.8693 167.074 45.8693C167.415 45.8693 167.752 45.9261 168.084 46.0398C168.417 46.1534 168.719 46.3381 168.992 46.5938C169.265 46.8466 169.482 47.1818 169.644 47.5994C169.806 48.017 169.887 48.5312 169.887 49.142V49.5682H164.841V48.6989H168.864C168.864 48.3295 168.79 48 168.642 47.7102C168.498 47.4205 168.29 47.1918 168.02 47.0241C167.753 46.8565 167.438 46.7727 167.074 46.7727C166.674 46.7727 166.327 46.8722 166.034 47.071C165.745 47.267 165.522 47.5227 165.365 47.8381C165.209 48.1534 165.131 48.4915 165.131 48.8523V49.4318C165.131 49.9261 165.216 50.3452 165.387 50.6889C165.56 51.0298 165.8 51.2898 166.107 51.4688C166.414 51.6449 166.77 51.733 167.176 51.733C167.441 51.733 167.679 51.696 167.892 51.6222C168.108 51.5455 168.294 51.4318 168.451 51.2812C168.607 51.1278 168.728 50.9375 168.813 50.7102L169.784 50.983C169.682 51.3125 169.51 51.6023 169.269 51.8523C169.027 52.0994 168.729 52.2926 168.374 52.4318C168.019 52.5682 167.62 52.6364 167.176 52.6364ZM173.888 52.6364C173.343 52.6364 172.861 52.4986 172.444 52.223C172.026 51.9446 171.699 51.5526 171.463 51.0469C171.228 50.5384 171.11 49.9375 171.11 49.2443C171.11 48.5568 171.228 47.9602 171.463 47.4545C171.699 46.9489 172.027 46.5582 172.448 46.2827C172.868 46.0071 173.354 45.8693 173.905 45.8693C174.331 45.8693 174.668 45.9403 174.915 46.0824C175.165 46.2216 175.355 46.3807 175.486 46.5597C175.62 46.7358 175.723 46.8807 175.797 46.9943H175.882V43.7727H176.888V52.5H175.917V51.4943H175.797C175.723 51.6136 175.618 51.7642 175.482 51.946C175.346 52.125 175.151 52.2855 174.898 52.4276C174.645 52.5668 174.309 52.6364 173.888 52.6364ZM174.025 51.733C174.428 51.733 174.769 51.6278 175.047 51.4176C175.326 51.2045 175.537 50.9105 175.682 50.5355C175.827 50.1577 175.9 49.7216 175.9 49.2273C175.9 48.7386 175.828 48.3111 175.686 47.9446C175.544 47.5753 175.334 47.2884 175.056 47.0838C174.777 46.8764 174.434 46.7727 174.025 46.7727C173.598 46.7727 173.243 46.8821 172.959 47.1009C172.678 47.3168 172.466 47.6108 172.324 47.983C172.185 48.3523 172.115 48.767 172.115 49.2273C172.115 49.6932 172.186 50.1165 172.328 50.4972C172.473 50.875 172.686 51.1761 172.968 51.4006C173.252 51.6222 173.604 51.733 174.025 51.733Z" fill="black" fill-opacity="0.64"/>
<path d="M233.707 32V30.6705L236.814 27.794C237.078 27.5384 237.3 27.3082 237.479 27.1037C237.661 26.8991 237.798 26.6989 237.892 26.5028C237.986 26.304 238.033 26.0895 238.033 25.8594C238.033 25.6037 237.974 25.3835 237.858 25.1989C237.741 25.0114 237.582 24.8679 237.381 24.7685C237.179 24.6662 236.95 24.6151 236.695 24.6151C236.428 24.6151 236.195 24.669 235.996 24.777C235.797 24.8849 235.643 25.0398 235.536 25.2415C235.428 25.4432 235.374 25.6832 235.374 25.9616H233.622C233.622 25.3906 233.751 24.8949 234.01 24.4744C234.268 24.054 234.631 23.7287 235.097 23.4986C235.563 23.2685 236.099 23.1534 236.707 23.1534C237.332 23.1534 237.876 23.2642 238.339 23.4858C238.805 23.7045 239.168 24.0085 239.426 24.3977C239.685 24.7869 239.814 25.233 239.814 25.7358C239.814 26.0653 239.749 26.3906 239.618 26.7116C239.49 27.0327 239.261 27.3892 238.932 27.7812C238.602 28.1705 238.138 28.6378 237.538 29.1832L236.264 30.4318V30.4915H239.929V32H233.707ZM240.946 30.4659V29.0128L244.59 23.2727H245.843V25.2841H245.101L242.804 28.919V28.9872H247.982V30.4659H240.946ZM245.135 32V30.0227L245.169 29.3793V23.2727H246.9V32H245.135ZM253.988 30.3636V29.9034C253.988 29.554 254.062 29.233 254.21 28.9403C254.36 28.6449 254.578 28.4091 254.862 28.233C255.149 28.054 255.498 27.9645 255.91 27.9645C256.328 27.9645 256.679 28.0526 256.963 28.2287C257.25 28.4048 257.466 28.6406 257.61 28.9361C257.758 29.2287 257.832 29.5511 257.832 29.9034V30.3636C257.832 30.7131 257.758 31.0355 257.61 31.331C257.463 31.6236 257.245 31.858 256.958 32.0341C256.672 32.2131 256.322 32.3026 255.91 32.3026C255.493 32.3026 255.142 32.2131 254.858 32.0341C254.574 31.858 254.358 31.6236 254.21 31.331C254.062 31.0355 253.988 30.7131 253.988 30.3636ZM255.228 29.9034V30.3636C255.228 30.5653 255.277 30.7557 255.373 30.9347C255.473 31.1136 255.652 31.2031 255.91 31.2031C256.169 31.2031 256.345 31.1151 256.439 30.9389C256.535 30.7628 256.583 30.571 256.583 30.3636V29.9034C256.583 29.696 256.538 29.5028 256.447 29.3239C256.356 29.1449 256.177 29.0554 255.91 29.0554C255.654 29.0554 255.477 29.1449 255.377 29.3239C255.278 29.5028 255.228 29.696 255.228 29.9034ZM249.51 25.3693V24.9091C249.51 24.5568 249.585 24.2344 249.735 23.9418C249.886 23.6463 250.103 23.4105 250.387 23.2344C250.674 23.0582 251.021 22.9702 251.427 22.9702C251.848 22.9702 252.2 23.0582 252.484 23.2344C252.768 23.4105 252.984 23.6463 253.132 23.9418C253.279 24.2344 253.353 24.5568 253.353 24.9091V25.3693C253.353 25.7216 253.278 26.044 253.127 26.3366C252.98 26.6293 252.762 26.8636 252.475 27.0398C252.191 27.2131 251.842 27.2997 251.427 27.2997C251.012 27.2997 250.662 27.2116 250.375 27.0355C250.091 26.8565 249.875 26.6222 249.727 26.3324C249.582 26.0398 249.51 25.7187 249.51 25.3693ZM250.758 24.9091V25.3693C250.758 25.5767 250.806 25.7685 250.903 25.9446C251.002 26.1207 251.177 26.2088 251.427 26.2088C251.689 26.2088 251.866 26.1207 251.96 25.9446C252.056 25.7685 252.105 25.5767 252.105 25.3693V24.9091C252.105 24.7017 252.059 24.5085 251.968 24.3295C251.877 24.1506 251.697 24.0611 251.427 24.0611C251.174 24.0611 251 24.152 250.903 24.3338C250.806 24.5156 250.758 24.7074 250.758 24.9091ZM250.072 32L256.072 23.2727H257.189L251.189 32H250.072Z" fill="black" fill-opacity="0.96"/>
<path d="M262.373 24.2102V23.2727H268.918V24.2102H266.174V32H265.117V24.2102H262.373ZM271.448 32.1534C271.033 32.1534 270.657 32.0753 270.319 31.919C269.981 31.7599 269.712 31.5312 269.513 31.233C269.315 30.9318 269.215 30.5682 269.215 30.142C269.215 29.767 269.289 29.4631 269.437 29.2301C269.585 28.9943 269.782 28.8097 270.029 28.6761C270.276 28.5426 270.549 28.4432 270.847 28.3778C271.148 28.3097 271.451 28.2557 271.755 28.2159C272.153 28.1648 272.475 28.1264 272.722 28.1009C272.972 28.0724 273.154 28.0256 273.268 27.9602C273.384 27.8949 273.442 27.7812 273.442 27.6193V27.5852C273.442 27.1648 273.327 26.8381 273.097 26.6051C272.87 26.3722 272.525 26.2557 272.062 26.2557C271.582 26.2557 271.205 26.3608 270.933 26.571C270.66 26.7812 270.468 27.0057 270.357 27.2443L269.403 26.9034C269.573 26.5057 269.8 26.196 270.085 25.9744C270.371 25.75 270.684 25.5937 271.022 25.5057C271.363 25.4148 271.698 25.3693 272.028 25.3693C272.238 25.3693 272.479 25.3949 272.752 25.446C273.028 25.4943 273.293 25.5952 273.549 25.7486C273.808 25.902 274.022 26.1335 274.192 26.4432C274.363 26.7528 274.448 27.1676 274.448 27.6875V32H273.442V31.1136H273.391C273.323 31.2557 273.21 31.4077 273.05 31.5696C272.891 31.7315 272.68 31.8693 272.415 31.983C272.151 32.0966 271.829 32.1534 271.448 32.1534ZM271.602 31.25C271.999 31.25 272.335 31.1719 272.607 31.0156C272.883 30.8594 273.09 30.6577 273.229 30.4105C273.371 30.1634 273.442 29.9034 273.442 29.6307V28.7102C273.4 28.7614 273.306 28.8082 273.161 28.8509C273.019 28.8906 272.854 28.9261 272.667 28.9574C272.482 28.9858 272.302 29.0114 272.126 29.0341C271.952 29.054 271.812 29.071 271.704 29.0852C271.442 29.1193 271.198 29.1747 270.971 29.2514C270.746 29.3253 270.565 29.4375 270.425 29.5881C270.289 29.7358 270.221 29.9375 270.221 30.1932C270.221 30.5426 270.35 30.8068 270.609 30.9858C270.87 31.1619 271.201 31.25 271.602 31.25ZM276.284 32V25.4545H277.255V26.4432H277.324C277.443 26.1193 277.659 25.8565 277.971 25.6548C278.284 25.4531 278.636 25.3523 279.028 25.3523C279.102 25.3523 279.194 25.3537 279.305 25.3565C279.416 25.3594 279.5 25.3636 279.556 25.3693V26.392C279.522 26.3835 279.444 26.3707 279.322 26.3537C279.203 26.3338 279.076 26.3239 278.943 26.3239C278.625 26.3239 278.341 26.3906 278.091 26.5241C277.843 26.6548 277.647 26.8366 277.502 27.0696C277.36 27.2997 277.289 27.5625 277.289 27.858V32H276.284ZM283.191 34.5909C282.706 34.5909 282.288 34.5284 281.939 34.4034C281.589 34.2812 281.298 34.1193 281.065 33.9176C280.835 33.7188 280.652 33.5057 280.515 33.2784L281.316 32.7159C281.407 32.8352 281.522 32.9716 281.662 33.125C281.801 33.2812 281.991 33.4162 282.233 33.5298C282.477 33.6463 282.797 33.7045 283.191 33.7045C283.72 33.7045 284.156 33.5767 284.5 33.321C284.843 33.0653 285.015 32.6648 285.015 32.1193V30.7898H284.93C284.856 30.9091 284.751 31.0568 284.615 31.233C284.481 31.4062 284.288 31.5611 284.035 31.6974C283.785 31.831 283.447 31.8977 283.021 31.8977C282.493 31.8977 282.018 31.7727 281.598 31.5227C281.18 31.2727 280.849 30.9091 280.605 30.4318C280.363 29.9545 280.243 29.375 280.243 28.6932C280.243 28.0227 280.36 27.4389 280.596 26.9418C280.832 26.4418 281.16 26.0554 281.581 25.7827C282.001 25.5071 282.487 25.3693 283.038 25.3693C283.464 25.3693 283.802 25.4403 284.052 25.5824C284.305 25.7216 284.498 25.8807 284.632 26.0597C284.768 26.2358 284.873 26.3807 284.947 26.4943H285.049V25.4545H286.021V32.1875C286.021 32.75 285.893 33.2074 285.637 33.5597C285.385 33.9148 285.044 34.1747 284.615 34.3395C284.189 34.5071 283.714 34.5909 283.191 34.5909ZM283.157 30.9943C283.561 30.9943 283.902 30.902 284.18 30.7173C284.458 30.5327 284.67 30.267 284.815 29.9205C284.96 29.5739 285.032 29.1591 285.032 28.6761C285.032 28.2045 284.961 27.7884 284.819 27.4276C284.677 27.0668 284.467 26.7841 284.189 26.5795C283.91 26.375 283.566 26.2727 283.157 26.2727C282.731 26.2727 282.376 26.3807 282.092 26.5966C281.811 26.8125 281.599 27.1023 281.457 27.4659C281.318 27.8295 281.248 28.233 281.248 28.6761C281.248 29.1307 281.319 29.5327 281.461 29.8821C281.606 30.2287 281.819 30.5014 282.1 30.7003C282.385 30.8963 282.737 30.9943 283.157 30.9943ZM290.606 32.1364C289.975 32.1364 289.431 31.9972 288.974 31.7188C288.52 31.4375 288.169 31.0455 287.922 30.5426C287.677 30.0369 287.555 29.4489 287.555 28.7784C287.555 28.108 287.677 27.517 287.922 27.0057C288.169 26.4915 288.512 26.0909 288.953 25.804C289.396 25.5142 289.913 25.3693 290.504 25.3693C290.845 25.3693 291.181 25.4261 291.514 25.5398C291.846 25.6534 292.149 25.8381 292.422 26.0938C292.694 26.3466 292.912 26.6818 293.074 27.0994C293.235 27.517 293.316 28.0312 293.316 28.642V29.0682H288.271V28.1989H292.294C292.294 27.8295 292.22 27.5 292.072 27.2102C291.927 26.9205 291.72 26.6918 291.45 26.5241C291.183 26.3565 290.868 26.2727 290.504 26.2727C290.103 26.2727 289.757 26.3722 289.464 26.571C289.174 26.767 288.951 27.0227 288.795 27.3381C288.639 27.6534 288.561 27.9915 288.561 28.3523V28.9318C288.561 29.4261 288.646 29.8452 288.816 30.1889C288.99 30.5298 289.23 30.7898 289.537 30.9688C289.843 31.1449 290.2 31.233 290.606 31.233C290.87 31.233 291.109 31.196 291.322 31.1222C291.538 31.0455 291.724 30.9318 291.88 30.7812C292.037 30.6278 292.157 30.4375 292.243 30.2102L293.214 30.483C293.112 30.8125 292.94 31.1023 292.699 31.3523C292.457 31.5994 292.159 31.7926 291.804 31.9318C291.449 32.0682 291.049 32.1364 290.606 32.1364ZM297.693 25.4545V26.3068H294.301V25.4545H297.693ZM295.289 23.8864H296.295V30.125C296.295 30.4091 296.336 30.6222 296.419 30.7642C296.504 30.9034 296.612 30.9972 296.743 31.0455C296.876 31.0909 297.017 31.1136 297.164 31.1136C297.275 31.1136 297.366 31.108 297.437 31.0966C297.508 31.0824 297.565 31.071 297.608 31.0625L297.812 31.9659C297.744 31.9915 297.649 32.017 297.527 32.0426C297.404 32.071 297.25 32.0852 297.062 32.0852C296.778 32.0852 296.5 32.0241 296.227 31.902C295.957 31.7798 295.733 31.5938 295.554 31.3438C295.377 31.0938 295.289 30.7784 295.289 30.3977V23.8864ZM301.88 32.1364C301.249 32.1364 300.705 31.9972 300.248 31.7188C299.793 31.4375 299.442 31.0455 299.195 30.5426C298.951 30.0369 298.828 29.4489 298.828 28.7784C298.828 28.108 298.951 27.517 299.195 27.0057C299.442 26.4915 299.786 26.0909 300.226 25.804C300.669 25.5142 301.186 25.3693 301.777 25.3693C302.118 25.3693 302.455 25.4261 302.787 25.5398C303.12 25.6534 303.422 25.8381 303.695 26.0938C303.968 26.3466 304.185 26.6818 304.347 27.0994C304.509 27.517 304.59 28.0312 304.59 28.642V29.0682H299.544V28.1989H303.567C303.567 27.8295 303.493 27.5 303.346 27.2102C303.201 26.9205 302.993 26.6918 302.723 26.5241C302.456 26.3565 302.141 26.2727 301.777 26.2727C301.377 26.2727 301.03 26.3722 300.738 26.571C300.448 26.767 300.225 27.0227 300.069 27.3381C299.912 27.6534 299.834 27.9915 299.834 28.3523V28.9318C299.834 29.4261 299.919 29.8452 300.09 30.1889C300.263 30.5298 300.503 30.7898 300.81 30.9688C301.117 31.1449 301.473 31.233 301.88 31.233C302.144 31.233 302.382 31.196 302.596 31.1222C302.811 31.0455 302.998 30.9318 303.154 30.7812C303.31 30.6278 303.431 30.4375 303.516 30.2102L304.488 30.483C304.385 30.8125 304.213 31.1023 303.972 31.3523C303.73 31.5994 303.432 31.7926 303.077 31.9318C302.722 32.0682 302.323 32.1364 301.88 32.1364ZM308.591 32.1364C308.046 32.1364 307.564 31.9986 307.147 31.723C306.729 31.4446 306.402 31.0526 306.167 30.5469C305.931 30.0384 305.813 29.4375 305.813 28.7443C305.813 28.0568 305.931 27.4602 306.167 26.9545C306.402 26.4489 306.73 26.0582 307.151 25.7827C307.571 25.5071 308.057 25.3693 308.608 25.3693C309.034 25.3693 309.371 25.4403 309.618 25.5824C309.868 25.7216 310.059 25.8807 310.189 26.0597C310.323 26.2358 310.426 26.3807 310.5 26.4943H310.586V23.2727H311.591V32H310.62V30.9943H310.5C310.426 31.1136 310.321 31.2642 310.185 31.446C310.049 31.625 309.854 31.7855 309.601 31.9276C309.348 32.0668 309.012 32.1364 308.591 32.1364ZM308.728 31.233C309.131 31.233 309.472 31.1278 309.75 30.9176C310.029 30.7045 310.24 30.4105 310.385 30.0355C310.53 29.6577 310.603 29.2216 310.603 28.7273C310.603 28.2386 310.532 27.8111 310.39 27.4446C310.248 27.0753 310.037 26.7884 309.759 26.5838C309.48 26.3764 309.137 26.2727 308.728 26.2727C308.301 26.2727 307.946 26.3821 307.662 26.6009C307.381 26.8168 307.169 27.1108 307.027 27.483C306.888 27.8523 306.819 28.267 306.819 28.7273C306.819 29.1932 306.89 29.6165 307.032 29.9972C307.176 30.375 307.39 30.6761 307.671 30.9006C307.955 31.1222 308.307 31.233 308.728 31.233Z" fill="black" fill-opacity="0.64"/>
<rect x="233" y="47" width="148" height="6" rx="3" fill="black" fill-opacity="0.04"/>
<rect x="233" y="47" width="54" height="6" rx="3" fill="#327AEF"/>
<path d="M438 39.5C439.657 39.5 441 38.1569 441 36.5C441 34.8431 439.657 33.5 438 33.5C436.343 33.5 435 34.8431 435 36.5C435 38.1569 436.343 39.5 438 39.5Z" stroke="black" stroke-opacity="0.48" stroke-linecap="round" stroke-linejoin="round"/>
<path d="M442.337 33.5437C442.487 33.7591 442.619 33.987 442.731 34.2249L444.349 35.1249C444.551 36.0302 444.554 36.9687 444.356 37.8749L442.731 38.7749C442.619 39.0128 442.487 39.2407 442.337 39.4562L442.368 41.3124C441.682 41.9375 440.87 42.4085 439.987 42.6937L438.393 41.7374C438.131 41.7562 437.868 41.7562 437.606 41.7374L436.018 42.6874C435.132 42.4075 434.317 41.9383 433.631 41.3124L433.662 39.4624C433.513 39.244 433.381 39.0141 433.268 38.7749L431.649 37.8749C431.447 36.9696 431.445 36.0311 431.643 35.1249L433.268 34.2249C433.38 33.987 433.511 33.7591 433.662 33.5437L433.631 31.6874C434.317 31.0623 435.129 30.5913 436.012 30.3062L437.606 31.2624C437.868 31.2436 438.131 31.2436 438.393 31.2624L439.981 30.3124C440.867 30.5923 441.681 31.0615 442.368 31.6874L442.337 33.5437Z" stroke="black" stroke-opacity="0.48" stroke-linecap="round" stroke-linejoin="round"/>
<line x1="24" y1="72.6" x2="446" y2="72.6" stroke="black" stroke-opacity="0.08" stroke-width="0.8"/>
<rect x="24" y="91.5" width="36" height="36" rx="18" fill="#845CF5" fill-opacity="0.08"/>
<path d="M41.4693 112.336C42.3079 111.779 42.9448 110.967 43.2859 110.019C43.6269 109.072 43.654 108.04 43.363 107.077C43.0721 106.113 42.4786 105.268 41.6704 104.668C40.8622 104.068 39.8823 103.744 38.8756 103.744C37.8688 103.744 36.8889 104.068 36.0807 104.668C35.2725 105.268 34.679 106.113 34.3881 107.077C34.0971 108.04 34.1242 109.072 34.4653 110.019C34.8063 110.967 35.4433 111.779 36.2818 112.336C34.8513 112.862 33.6162 113.813 32.7427 115.062C32.6745 115.155 32.6339 115.265 32.6256 115.38C32.6173 115.495 32.6417 115.609 32.6959 115.711C32.7494 115.812 32.8293 115.896 32.9269 115.955C33.0246 116.014 33.1364 116.046 33.2506 116.047H44.5006C44.6147 116.046 44.7266 116.014 44.8242 115.955C44.9219 115.896 45.0017 115.812 45.0552 115.711C45.1094 115.609 45.1338 115.495 45.1255 115.38C45.1172 115.265 45.0766 115.155 45.0084 115.062C44.1349 113.813 42.8998 112.862 41.4693 112.336V112.336Z" fill="#845CF5"/>
<path d="M51.3833 115.063C50.5049 113.815 49.2679 112.864 47.8365 112.336C48.6777 111.781 49.3173 110.969 49.6601 110.022C50.0029 109.074 50.0307 108.041 49.7393 107.076C49.4479 106.112 48.8528 105.267 48.0426 104.668C47.2325 104.068 46.2505 103.746 45.2427 103.75C44.8126 103.752 44.3846 103.81 43.9693 103.922C43.8717 103.951 43.7826 104.003 43.7092 104.074C43.6358 104.145 43.5804 104.232 43.5474 104.328C43.516 104.424 43.5081 104.526 43.5244 104.625C43.5407 104.724 43.5808 104.818 43.6411 104.898C44.3477 105.848 44.7536 106.987 44.8066 108.169C44.8595 109.352 44.557 110.523 43.938 111.531C43.8587 111.665 43.8315 111.824 43.8618 111.977C43.892 112.129 43.9776 112.266 44.1021 112.359C44.3365 112.542 44.563 112.729 44.7818 112.922L44.8208 112.961C45.6547 113.733 46.3313 114.659 46.813 115.688C46.8625 115.795 46.9418 115.886 47.0415 115.95C47.1412 116.014 47.2572 116.047 47.3755 116.047H50.8677C50.9819 116.046 51.0937 116.015 51.1914 115.955C51.289 115.896 51.3688 115.812 51.4224 115.711C51.4759 115.61 51.5006 115.496 51.4937 115.381C51.4868 115.267 51.4487 115.157 51.3833 115.063V115.063Z" fill="#845CF5"/>
<path d="M74.642 105.5H72.392L76.4886 93.8636H79.0909L83.1932 105.5H80.9432L77.8352 96.25H77.7443L74.642 105.5ZM74.7159 100.938H80.8523V102.631H74.7159V100.938ZM87.608 105.653C86.9223 105.653 86.3087 105.477 85.767 105.125C85.2254 104.773 84.7973 104.261 84.483 103.591C84.1686 102.92 84.0114 102.106 84.0114 101.148C84.0114 100.178 84.1705 99.3598 84.4886 98.6932C84.8106 98.0227 85.2443 97.517 85.7898 97.1761C86.3352 96.8314 86.9432 96.6591 87.6136 96.6591C88.125 96.6591 88.5455 96.7462 88.875 96.9205C89.2045 97.0909 89.4659 97.2973 89.6591 97.5398C89.8523 97.7784 90.0019 98.0038 90.108 98.2159H90.1932V93.8636H92.2557V105.5H90.233V104.125H90.108C90.0019 104.337 89.8485 104.562 89.6477 104.801C89.447 105.036 89.1818 105.237 88.8523 105.403C88.5227 105.57 88.108 105.653 87.608 105.653ZM88.1818 103.966C88.6174 103.966 88.9886 103.848 89.2955 103.614C89.6023 103.375 89.8352 103.044 89.9943 102.619C90.1534 102.195 90.233 101.701 90.233 101.136C90.233 100.572 90.1534 100.081 89.9943 99.6648C89.839 99.2481 89.608 98.9242 89.3011 98.6932C88.9981 98.4621 88.625 98.3466 88.1818 98.3466C87.7235 98.3466 87.3409 98.4659 87.0341 98.7045C86.7273 98.9432 86.4962 99.2727 86.3409 99.6932C86.1856 100.114 86.108 100.595 86.108 101.136C86.108 101.682 86.1856 102.169 86.3409 102.597C86.5 103.021 86.733 103.356 87.0398 103.602C87.3504 103.845 87.7311 103.966 88.1818 103.966ZM97.6861 105.653C97.0005 105.653 96.3868 105.477 95.8452 105.125C95.3035 104.773 94.8755 104.261 94.5611 103.591C94.2467 102.92 94.0895 102.106 94.0895 101.148C94.0895 100.178 94.2486 99.3598 94.5668 98.6932C94.8887 98.0227 95.3224 97.517 95.8679 97.1761C96.4134 96.8314 97.0213 96.6591 97.6918 96.6591C98.2031 96.6591 98.6236 96.7462 98.9531 96.9205C99.2827 97.0909 99.544 97.2973 99.7372 97.5398C99.9304 97.7784 100.08 98.0038 100.186 98.2159H100.271V93.8636H102.334V105.5H100.311V104.125H100.186C100.08 104.337 99.9266 104.562 99.7259 104.801C99.5251 105.036 99.2599 105.237 98.9304 105.403C98.6009 105.57 98.1861 105.653 97.6861 105.653ZM98.2599 103.966C98.6955 103.966 99.0668 103.848 99.3736 103.614C99.6804 103.375 99.9134 103.044 100.072 102.619C100.232 102.195 100.311 101.701 100.311 101.136C100.311 100.572 100.232 100.081 100.072 99.6648C99.9171 99.2481 99.6861 98.9242 99.3793 98.6932C99.0762 98.4621 98.7031 98.3466 98.2599 98.3466C97.8016 98.3466 97.419 98.4659 97.1122 98.7045C96.8054 98.9432 96.5743 99.2727 96.419 99.6932C96.2637 100.114 96.1861 100.595 96.1861 101.136C96.1861 101.682 96.2637 102.169 96.419 102.597C96.5781 103.021 96.8111 103.356 97.1179 103.602C97.4285 103.845 97.8092 103.966 98.2599 103.966ZM108.585 93.8636H111.165L114.619 102.295H114.756L118.21 93.8636H120.79V105.5H118.767V97.5057H118.659L115.443 105.466H113.932L110.716 97.4886H110.608V105.5H108.585V93.8636ZM126.858 105.67C125.983 105.67 125.227 105.489 124.591 105.125C123.958 104.758 123.472 104.239 123.131 103.568C122.79 102.894 122.619 102.1 122.619 101.188C122.619 100.29 122.79 99.5019 123.131 98.8239C123.475 98.142 123.956 97.6117 124.574 97.233C125.191 96.8504 125.917 96.6591 126.75 96.6591C127.288 96.6591 127.795 96.7462 128.273 96.9205C128.754 97.0909 129.178 97.3561 129.545 97.7159C129.917 98.0758 130.208 98.5341 130.42 99.0909C130.633 99.6439 130.739 100.303 130.739 101.068V101.699H123.585V100.312H128.767C128.763 99.9186 128.678 99.5682 128.511 99.2614C128.345 98.9508 128.112 98.7064 127.812 98.5284C127.517 98.3504 127.172 98.2614 126.778 98.2614C126.358 98.2614 125.989 98.3636 125.67 98.5682C125.352 98.7689 125.104 99.0341 124.926 99.3636C124.752 99.6894 124.663 100.047 124.659 100.438V101.648C124.659 102.155 124.752 102.591 124.938 102.955C125.123 103.314 125.383 103.591 125.716 103.784C126.049 103.973 126.439 104.068 126.886 104.068C127.186 104.068 127.456 104.027 127.699 103.943C127.941 103.856 128.152 103.729 128.33 103.562C128.508 103.396 128.642 103.189 128.733 102.943L130.653 103.159C130.532 103.667 130.301 104.11 129.96 104.489C129.623 104.864 129.191 105.155 128.665 105.364C128.138 105.568 127.536 105.67 126.858 105.67ZM132.479 105.5V96.7727H134.445V98.2557H134.547C134.729 97.7557 135.03 97.3655 135.45 97.0852C135.871 96.8011 136.373 96.6591 136.956 96.6591C137.547 96.6591 138.045 96.803 138.45 97.0909C138.859 97.375 139.147 97.7633 139.314 98.2557H139.405C139.598 97.7708 139.924 97.3845 140.382 97.0966C140.844 96.8049 141.392 96.6591 142.024 96.6591C142.827 96.6591 143.482 96.9129 143.99 97.4205C144.498 97.928 144.751 98.6686 144.751 99.642V105.5H142.689V99.9602C142.689 99.4186 142.545 99.0227 142.257 98.7727C141.969 98.5189 141.617 98.392 141.2 98.392C140.704 98.392 140.316 98.5473 140.036 98.858C139.759 99.1648 139.621 99.5644 139.621 100.057V105.5H137.604V99.875C137.604 99.4242 137.467 99.0644 137.195 98.7955C136.926 98.5265 136.573 98.392 136.138 98.392C135.842 98.392 135.573 98.4678 135.331 98.6193C135.089 98.767 134.895 98.9773 134.751 99.25C134.607 99.5189 134.536 99.8333 134.536 100.193V105.5H132.479ZM146.929 105.5V93.8636H148.986V98.2159H149.071C149.177 98.0038 149.327 97.7784 149.52 97.5398C149.713 97.2973 149.974 97.0909 150.304 96.9205C150.634 96.7462 151.054 96.6591 151.565 96.6591C152.24 96.6591 152.848 96.8314 153.389 97.1761C153.935 97.517 154.366 98.0227 154.685 98.6932C155.007 99.3598 155.168 100.178 155.168 101.148C155.168 102.106 155.01 102.92 154.696 103.591C154.382 104.261 153.954 104.773 153.412 105.125C152.87 105.477 152.257 105.653 151.571 105.653C151.071 105.653 150.656 105.57 150.327 105.403C149.997 105.237 149.732 105.036 149.531 104.801C149.334 104.562 149.181 104.337 149.071 104.125H148.952V105.5H146.929ZM148.946 101.136C148.946 101.701 149.026 102.195 149.185 102.619C149.348 103.044 149.58 103.375 149.884 103.614C150.19 103.848 150.562 103.966 150.997 103.966C151.452 103.966 151.832 103.845 152.139 103.602C152.446 103.356 152.677 103.021 152.832 102.597C152.991 102.169 153.071 101.682 153.071 101.136C153.071 100.595 152.993 100.114 152.838 99.6932C152.683 99.2727 152.452 98.9432 152.145 98.7045C151.838 98.4659 151.455 98.3466 150.997 98.3466C150.558 98.3466 150.185 98.4621 149.878 98.6932C149.571 98.9242 149.338 99.2481 149.179 99.6648C149.024 100.081 148.946 100.572 148.946 101.136ZM160.78 105.67C159.905 105.67 159.149 105.489 158.513 105.125C157.88 104.758 157.393 104.239 157.053 103.568C156.712 102.894 156.541 102.1 156.541 101.188C156.541 100.29 156.712 99.5019 157.053 98.8239C157.397 98.142 157.878 97.6117 158.496 97.233C159.113 96.8504 159.839 96.6591 160.672 96.6591C161.21 96.6591 161.717 96.7462 162.195 96.9205C162.676 97.0909 163.1 97.3561 163.467 97.7159C163.839 98.0758 164.13 98.5341 164.342 99.0909C164.554 99.6439 164.661 100.303 164.661 101.068V101.699H157.507V100.312H162.689C162.685 99.9186 162.6 99.5682 162.433 99.2614C162.267 98.9508 162.034 98.7064 161.734 98.5284C161.439 98.3504 161.094 98.2614 160.7 98.2614C160.28 98.2614 159.911 98.3636 159.592 98.5682C159.274 98.7689 159.026 99.0341 158.848 99.3636C158.674 99.6894 158.585 100.047 158.581 100.438V101.648C158.581 102.155 158.674 102.591 158.859 102.955C159.045 103.314 159.304 103.591 159.638 103.784C159.971 103.973 160.361 104.068 160.808 104.068C161.107 104.068 161.378 104.027 161.621 103.943C161.863 103.856 162.073 103.729 162.251 103.562C162.429 103.396 162.564 103.189 162.655 102.943L164.575 103.159C164.454 103.667 164.223 104.11 163.882 104.489C163.545 104.864 163.113 105.155 162.587 105.364C162.06 105.568 161.458 105.67 160.78 105.67ZM166.401 105.5V96.7727H168.395V98.2273H168.486C168.645 97.7235 168.918 97.3352 169.304 97.0625C169.694 96.786 170.139 96.6477 170.639 96.6477C170.753 96.6477 170.88 96.6534 171.02 96.6648C171.164 96.6723 171.283 96.6856 171.378 96.7045V98.5966C171.291 98.5663 171.152 98.5398 170.963 98.517C170.777 98.4905 170.598 98.4773 170.423 98.4773C170.048 98.4773 169.711 98.5587 169.412 98.7216C169.116 98.8807 168.884 99.1023 168.713 99.3864C168.543 99.6705 168.457 99.9981 168.457 100.369V105.5H166.401ZM179.642 99.0795L177.767 99.2841C177.714 99.0947 177.621 98.9167 177.489 98.75C177.36 98.5833 177.186 98.4489 176.966 98.3466C176.746 98.2443 176.477 98.1932 176.159 98.1932C175.731 98.1932 175.371 98.286 175.08 98.4716C174.792 98.6572 174.65 98.8977 174.653 99.1932C174.65 99.447 174.742 99.6534 174.932 99.8125C175.125 99.9716 175.443 100.102 175.886 100.205L177.375 100.523C178.201 100.701 178.814 100.983 179.216 101.369C179.621 101.756 179.826 102.261 179.83 102.886C179.826 103.436 179.665 103.92 179.347 104.341C179.032 104.758 178.595 105.083 178.034 105.318C177.473 105.553 176.83 105.67 176.102 105.67C175.034 105.67 174.174 105.447 173.523 105C172.871 104.549 172.483 103.922 172.358 103.119L174.364 102.926C174.455 103.32 174.648 103.617 174.943 103.818C175.239 104.019 175.623 104.119 176.097 104.119C176.585 104.119 176.977 104.019 177.273 103.818C177.572 103.617 177.722 103.369 177.722 103.074C177.722 102.824 177.625 102.617 177.432 102.455C177.242 102.292 176.947 102.167 176.545 102.08L175.057 101.767C174.22 101.593 173.6 101.299 173.199 100.886C172.797 100.47 172.598 99.9432 172.602 99.3068C172.598 98.7689 172.744 98.303 173.04 97.9091C173.339 97.5114 173.754 97.2045 174.284 96.9886C174.818 96.7689 175.434 96.6591 176.131 96.6591C177.153 96.6591 177.958 96.8769 178.545 97.3125C179.136 97.7481 179.502 98.3371 179.642 99.0795Z" fill="black" fill-opacity="0.96"/>
<path d="M75.9716 116.773V125.5H74.9148V117.881H74.8636L72.733 119.295V118.222L74.9148 116.773H75.9716ZM78.277 123.71V122.841L82.1122 116.773H82.7429V118.119H82.3168L79.419 122.705V122.773H84.5838V123.71H78.277ZM82.3849 125.5V123.446V123.041V116.773H83.3906V125.5H82.3849ZM87.2876 124.307L87.2195 124.767C87.1712 125.091 87.0973 125.438 86.9979 125.807C86.9013 126.176 86.8004 126.524 86.6953 126.851C86.5902 127.178 86.5036 127.438 86.4354 127.631H85.6683C85.7053 127.449 85.7536 127.209 85.8132 126.911C85.8729 126.612 85.9325 126.278 85.9922 125.909C86.0547 125.543 86.1058 125.168 86.1456 124.784L86.1967 124.307H87.2876ZM91.6854 125.619C91.1854 125.619 90.7351 125.52 90.3345 125.321C89.9339 125.122 89.6129 124.849 89.3714 124.503C89.13 124.156 88.9979 123.761 88.9751 123.318H89.9979C90.0376 123.713 90.2166 124.04 90.5348 124.298C90.8558 124.554 91.2393 124.682 91.6854 124.682C92.0433 124.682 92.3615 124.598 92.6399 124.43C92.9212 124.263 93.1413 124.033 93.3004 123.74C93.4624 123.445 93.5433 123.111 93.5433 122.739C93.5433 122.358 93.4595 122.018 93.2919 121.72C93.1271 121.419 92.8999 121.182 92.6101 121.009C92.3203 120.835 91.9893 120.747 91.6172 120.744C91.3501 120.741 91.076 120.783 90.7947 120.868C90.5135 120.95 90.282 121.057 90.1001 121.188L89.1115 121.068L89.6399 116.773H94.174V117.71H90.5263L90.2195 120.284H90.2706C90.4496 120.142 90.674 120.024 90.9439 119.93C91.2138 119.837 91.495 119.79 91.7876 119.79C92.3217 119.79 92.7976 119.918 93.2152 120.173C93.6357 120.426 93.9652 120.773 94.2038 121.213C94.4453 121.653 94.5661 122.156 94.5661 122.722C94.5661 123.278 94.4411 123.776 94.1911 124.213C93.9439 124.648 93.603 124.991 93.1683 125.244C92.7337 125.494 92.2393 125.619 91.6854 125.619ZM99.1566 125.619C98.7987 125.614 98.4407 125.545 98.0827 125.415C97.7248 125.284 97.3981 125.064 97.1026 124.754C96.8072 124.442 96.57 124.02 96.391 123.489C96.212 122.955 96.1225 122.284 96.1225 121.477C96.1225 120.705 96.195 120.02 96.3398 119.423C96.4847 118.824 96.695 118.32 96.9705 117.911C97.2461 117.499 97.5785 117.186 97.9677 116.973C98.3597 116.76 98.8015 116.653 99.293 116.653C99.7816 116.653 100.216 116.751 100.597 116.947C100.98 117.141 101.293 117.411 101.534 117.757C101.776 118.104 101.932 118.503 102.003 118.955H100.963C100.867 118.562 100.679 118.237 100.401 117.979C100.123 117.72 99.7532 117.591 99.293 117.591C98.6168 117.591 98.0842 117.885 97.695 118.473C97.3086 119.061 97.114 119.886 97.1112 120.949H97.1793C97.3384 120.707 97.5273 120.501 97.7461 120.331C97.9677 120.158 98.212 120.024 98.479 119.93C98.7461 119.837 99.0288 119.79 99.3271 119.79C99.8271 119.79 100.284 119.915 100.699 120.165C101.114 120.412 101.446 120.754 101.696 121.192C101.946 121.626 102.071 122.125 102.071 122.688C102.071 123.227 101.951 123.722 101.709 124.17C101.468 124.616 101.128 124.972 100.691 125.236C100.256 125.497 99.7447 125.625 99.1566 125.619ZM99.1566 124.682C99.5146 124.682 99.8356 124.592 100.12 124.413C100.407 124.234 100.632 123.994 100.797 123.693C100.965 123.392 101.049 123.057 101.049 122.688C101.049 122.327 100.968 121.999 100.806 121.703C100.647 121.405 100.426 121.168 100.145 120.991C99.8668 120.815 99.5487 120.727 99.1907 120.727C98.9208 120.727 98.6694 120.781 98.4364 120.889C98.2035 120.994 97.9989 121.139 97.8228 121.324C97.6495 121.509 97.5131 121.72 97.4137 121.959C97.3143 122.195 97.2646 122.443 97.2646 122.705C97.2646 123.051 97.3455 123.375 97.5075 123.676C97.6722 123.977 97.8967 124.22 98.1808 124.405C98.4677 124.589 98.793 124.682 99.1566 124.682ZM103.747 125.5V124.733L106.628 121.58C106.966 121.21 107.244 120.889 107.463 120.616C107.682 120.341 107.844 120.082 107.949 119.841C108.057 119.597 108.111 119.341 108.111 119.074C108.111 118.767 108.037 118.501 107.889 118.277C107.744 118.053 107.545 117.879 107.293 117.757C107.04 117.635 106.756 117.574 106.44 117.574C106.105 117.574 105.812 117.643 105.562 117.783C105.315 117.919 105.124 118.111 104.987 118.358C104.854 118.605 104.787 118.895 104.787 119.227H103.781C103.781 118.716 103.899 118.267 104.135 117.881C104.371 117.494 104.692 117.193 105.098 116.977C105.507 116.761 105.966 116.653 106.474 116.653C106.986 116.653 107.439 116.761 107.834 116.977C108.229 117.193 108.538 117.484 108.763 117.851C108.987 118.217 109.099 118.625 109.099 119.074C109.099 119.395 109.041 119.709 108.925 120.016C108.811 120.32 108.612 120.659 108.328 121.034C108.047 121.406 107.656 121.861 107.156 122.398L105.196 124.494V124.562H109.253V125.5H103.747ZM119.314 118.955C119.263 118.523 119.055 118.188 118.692 117.949C118.328 117.71 117.882 117.591 117.354 117.591C116.967 117.591 116.629 117.653 116.339 117.778C116.053 117.903 115.828 118.075 115.666 118.294C115.507 118.513 115.428 118.761 115.428 119.04C115.428 119.273 115.483 119.473 115.594 119.641C115.707 119.805 115.852 119.943 116.028 120.054C116.205 120.162 116.389 120.251 116.582 120.322C116.776 120.391 116.953 120.446 117.115 120.489L118.001 120.727C118.229 120.787 118.482 120.869 118.76 120.974C119.041 121.08 119.31 121.223 119.565 121.405C119.824 121.584 120.037 121.814 120.205 122.095C120.372 122.376 120.456 122.722 120.456 123.131C120.456 123.602 120.332 124.028 120.085 124.409C119.841 124.79 119.483 125.092 119.011 125.317C118.543 125.541 117.973 125.653 117.303 125.653C116.678 125.653 116.136 125.553 115.679 125.351C115.224 125.149 114.866 124.868 114.605 124.507C114.347 124.146 114.2 123.727 114.166 123.25H115.257C115.286 123.58 115.396 123.852 115.589 124.068C115.786 124.281 116.033 124.44 116.331 124.545C116.632 124.648 116.956 124.699 117.303 124.699C117.706 124.699 118.068 124.634 118.389 124.503C118.71 124.369 118.964 124.185 119.152 123.949C119.339 123.71 119.433 123.432 119.433 123.114C119.433 122.824 119.352 122.588 119.19 122.406C119.028 122.224 118.815 122.077 118.551 121.963C118.287 121.849 118.001 121.75 117.695 121.665L116.621 121.358C115.939 121.162 115.399 120.882 115.001 120.518C114.604 120.155 114.405 119.679 114.405 119.091C114.405 118.602 114.537 118.176 114.801 117.812C115.068 117.446 115.426 117.162 115.875 116.96C116.327 116.756 116.831 116.653 117.388 116.653C117.95 116.653 118.45 116.754 118.888 116.956C119.325 117.155 119.672 117.428 119.928 117.774C120.186 118.121 120.322 118.514 120.337 118.955H119.314ZM124.801 125.636C124.171 125.636 123.627 125.497 123.169 125.219C122.715 124.938 122.364 124.545 122.117 124.043C121.873 123.537 121.75 122.949 121.75 122.278C121.75 121.608 121.873 121.017 122.117 120.506C122.364 119.991 122.708 119.591 123.148 119.304C123.591 119.014 124.108 118.869 124.699 118.869C125.04 118.869 125.377 118.926 125.709 119.04C126.042 119.153 126.344 119.338 126.617 119.594C126.89 119.847 127.107 120.182 127.269 120.599C127.431 121.017 127.512 121.531 127.512 122.142V122.568H122.466V121.699H126.489C126.489 121.33 126.415 121 126.267 120.71C126.123 120.42 125.915 120.192 125.645 120.024C125.378 119.857 125.063 119.773 124.699 119.773C124.299 119.773 123.952 119.872 123.659 120.071C123.37 120.267 123.147 120.523 122.99 120.838C122.834 121.153 122.756 121.491 122.756 121.852V122.432C122.756 122.926 122.841 123.345 123.012 123.689C123.185 124.03 123.425 124.29 123.732 124.469C124.039 124.645 124.395 124.733 124.801 124.733C125.066 124.733 125.304 124.696 125.517 124.622C125.733 124.545 125.919 124.432 126.076 124.281C126.232 124.128 126.353 123.937 126.438 123.71L127.409 123.983C127.307 124.312 127.135 124.602 126.894 124.852C126.652 125.099 126.354 125.293 125.999 125.432C125.644 125.568 125.245 125.636 124.801 125.636ZM131.786 125.636C131.155 125.636 130.611 125.497 130.154 125.219C129.699 124.938 129.348 124.545 129.101 124.043C128.857 123.537 128.735 122.949 128.735 122.278C128.735 121.608 128.857 121.017 129.101 120.506C129.348 119.991 129.692 119.591 130.132 119.304C130.576 119.014 131.093 118.869 131.684 118.869C132.025 118.869 132.361 118.926 132.694 119.04C133.026 119.153 133.328 119.338 133.601 119.594C133.874 119.847 134.091 120.182 134.253 120.599C134.415 121.017 134.496 121.531 134.496 122.142V122.568H129.451V121.699H133.473C133.473 121.33 133.4 121 133.252 120.71C133.107 120.42 132.9 120.192 132.63 120.024C132.363 119.857 132.047 119.773 131.684 119.773C131.283 119.773 130.936 119.872 130.644 120.071C130.354 120.267 130.131 120.523 129.975 120.838C129.819 121.153 129.74 121.491 129.74 121.852V122.432C129.74 122.926 129.826 123.345 129.996 123.689C130.169 124.03 130.409 124.29 130.716 124.469C131.023 124.645 131.38 124.733 131.786 124.733C132.05 124.733 132.289 124.696 132.502 124.622C132.718 124.545 132.904 124.432 133.06 124.281C133.216 124.128 133.337 123.937 133.422 123.71L134.394 123.983C134.292 124.312 134.12 124.602 133.878 124.852C133.637 125.099 133.338 125.293 132.983 125.432C132.628 125.568 132.229 125.636 131.786 125.636ZM139.401 127.955V118.955H140.373V119.994H140.492C140.566 119.881 140.668 119.736 140.799 119.56C140.932 119.381 141.123 119.222 141.37 119.082C141.62 118.94 141.958 118.869 142.384 118.869C142.935 118.869 143.421 119.007 143.841 119.283C144.262 119.558 144.59 119.949 144.826 120.455C145.061 120.96 145.179 121.557 145.179 122.244C145.179 122.938 145.061 123.538 144.826 124.047C144.59 124.553 144.263 124.945 143.846 125.223C143.428 125.499 142.946 125.636 142.401 125.636C141.98 125.636 141.644 125.567 141.391 125.428C141.138 125.286 140.944 125.125 140.807 124.946C140.671 124.764 140.566 124.614 140.492 124.494H140.407V127.955H139.401ZM140.39 122.227C140.39 122.722 140.462 123.158 140.607 123.536C140.752 123.911 140.963 124.205 141.242 124.418C141.52 124.628 141.861 124.733 142.265 124.733C142.685 124.733 143.036 124.622 143.317 124.401C143.601 124.176 143.814 123.875 143.956 123.497C144.101 123.116 144.174 122.693 144.174 122.227C144.174 121.767 144.103 121.352 143.961 120.983C143.821 120.611 143.61 120.317 143.326 120.101C143.044 119.882 142.691 119.773 142.265 119.773C141.855 119.773 141.512 119.876 141.233 120.084C140.955 120.288 140.745 120.575 140.603 120.945C140.461 121.311 140.39 121.739 140.39 122.227ZM149.373 125.636C148.782 125.636 148.263 125.496 147.817 125.214C147.374 124.933 147.027 124.54 146.777 124.034C146.53 123.528 146.407 122.937 146.407 122.261C146.407 121.58 146.53 120.984 146.777 120.476C147.027 119.967 147.374 119.572 147.817 119.291C148.263 119.01 148.782 118.869 149.373 118.869C149.963 118.869 150.48 119.01 150.924 119.291C151.37 119.572 151.716 119.967 151.963 120.476C152.213 120.984 152.338 121.58 152.338 122.261C152.338 122.937 152.213 123.528 151.963 124.034C151.716 124.54 151.37 124.933 150.924 125.214C150.48 125.496 149.963 125.636 149.373 125.636ZM149.373 124.733C149.821 124.733 150.191 124.618 150.48 124.388C150.77 124.158 150.985 123.855 151.124 123.48C151.263 123.105 151.333 122.699 151.333 122.261C151.333 121.824 151.263 121.416 151.124 121.038C150.985 120.661 150.77 120.355 150.48 120.122C150.191 119.889 149.821 119.773 149.373 119.773C148.924 119.773 148.554 119.889 148.265 120.122C147.975 120.355 147.76 120.661 147.621 121.038C147.482 121.416 147.412 121.824 147.412 122.261C147.412 122.699 147.482 123.105 147.621 123.48C147.76 123.855 147.975 124.158 148.265 124.388C148.554 124.618 148.924 124.733 149.373 124.733ZM158.51 120.42L157.607 120.676C157.55 120.526 157.466 120.379 157.355 120.237C157.247 120.092 157.099 119.973 156.912 119.879C156.724 119.786 156.484 119.739 156.192 119.739C155.791 119.739 155.457 119.831 155.19 120.016C154.926 120.197 154.794 120.429 154.794 120.71C154.794 120.96 154.885 121.158 155.067 121.303C155.249 121.447 155.533 121.568 155.919 121.665L156.891 121.903C157.476 122.045 157.912 122.263 158.199 122.555C158.486 122.845 158.629 123.219 158.629 123.676C158.629 124.051 158.521 124.386 158.305 124.682C158.092 124.977 157.794 125.21 157.411 125.381C157.027 125.551 156.581 125.636 156.072 125.636C155.405 125.636 154.852 125.491 154.415 125.202C153.977 124.912 153.7 124.489 153.584 123.932L154.538 123.693C154.629 124.045 154.801 124.31 155.054 124.486C155.31 124.662 155.643 124.75 156.055 124.75C156.524 124.75 156.896 124.651 157.172 124.452C157.45 124.25 157.589 124.009 157.589 123.727C157.589 123.5 157.51 123.31 157.351 123.156C157.192 123 156.947 122.884 156.618 122.807L155.527 122.551C154.928 122.409 154.487 122.189 154.206 121.891C153.928 121.589 153.788 121.213 153.788 120.761C153.788 120.392 153.892 120.065 154.099 119.781C154.31 119.497 154.595 119.274 154.956 119.112C155.32 118.95 155.732 118.869 156.192 118.869C156.839 118.869 157.348 119.011 157.717 119.295C158.089 119.58 158.354 119.955 158.51 120.42ZM162.99 118.955V119.807H159.598V118.955H162.99ZM160.586 117.386H161.592V123.625C161.592 123.909 161.633 124.122 161.716 124.264C161.801 124.403 161.909 124.497 162.039 124.545C162.173 124.591 162.314 124.614 162.461 124.614C162.572 124.614 162.663 124.608 162.734 124.597C162.805 124.582 162.862 124.571 162.904 124.562L163.109 125.466C163.041 125.491 162.946 125.517 162.824 125.543C162.701 125.571 162.547 125.585 162.359 125.585C162.075 125.585 161.797 125.524 161.524 125.402C161.254 125.28 161.029 125.094 160.85 124.844C160.674 124.594 160.586 124.278 160.586 123.898V117.386ZM167.176 125.636C166.546 125.636 166.002 125.497 165.544 125.219C165.09 124.938 164.739 124.545 164.492 124.043C164.248 123.537 164.125 122.949 164.125 122.278C164.125 121.608 164.248 121.017 164.492 120.506C164.739 119.991 165.083 119.591 165.523 119.304C165.966 119.014 166.483 118.869 167.074 118.869C167.415 118.869 167.752 118.926 168.084 119.04C168.417 119.153 168.719 119.338 168.992 119.594C169.265 119.847 169.482 120.182 169.644 120.599C169.806 121.017 169.887 121.531 169.887 122.142V122.568H164.841V121.699H168.864C168.864 121.33 168.79 121 168.642 120.71C168.498 120.42 168.29 120.192 168.02 120.024C167.753 119.857 167.438 119.773 167.074 119.773C166.674 119.773 166.327 119.872 166.034 120.071C165.745 120.267 165.522 120.523 165.365 120.838C165.209 121.153 165.131 121.491 165.131 121.852V122.432C165.131 122.926 165.216 123.345 165.387 123.689C165.56 124.03 165.8 124.29 166.107 124.469C166.414 124.645 166.77 124.733 167.176 124.733C167.441 124.733 167.679 124.696 167.892 124.622C168.108 124.545 168.294 124.432 168.451 124.281C168.607 124.128 168.728 123.937 168.813 123.71L169.784 123.983C169.682 124.312 169.51 124.602 169.269 124.852C169.027 125.099 168.729 125.293 168.374 125.432C168.019 125.568 167.62 125.636 167.176 125.636ZM173.888 125.636C173.343 125.636 172.861 125.499 172.444 125.223C172.026 124.945 171.699 124.553 171.463 124.047C171.228 123.538 171.11 122.938 171.11 122.244C171.11 121.557 171.228 120.96 171.463 120.455C171.699 119.949 172.027 119.558 172.448 119.283C172.868 119.007 173.354 118.869 173.905 118.869C174.331 118.869 174.668 118.94 174.915 119.082C175.165 119.222 175.355 119.381 175.486 119.56C175.62 119.736 175.723 119.881 175.797 119.994H175.882V116.773H176.888V125.5H175.917V124.494H175.797C175.723 124.614 175.618 124.764 175.482 124.946C175.346 125.125 175.151 125.286 174.898 125.428C174.645 125.567 174.309 125.636 173.888 125.636ZM174.025 124.733C174.428 124.733 174.769 124.628 175.047 124.418C175.326 124.205 175.537 123.911 175.682 123.536C175.827 123.158 175.9 122.722 175.9 122.227C175.9 121.739 175.828 121.311 175.686 120.945C175.544 120.575 175.334 120.288 175.056 120.084C174.777 119.876 174.434 119.773 174.025 119.773C173.598 119.773 173.243 119.882 172.959 120.101C172.678 120.317 172.466 120.611 172.324 120.983C172.185 121.352 172.115 121.767 172.115 122.227C172.115 122.693 172.186 123.116 172.328 123.497C172.473 123.875 172.686 124.176 172.968 124.401C173.252 124.622 173.604 124.733 174.025 124.733Z" fill="black" fill-opacity="0.64"/>
<path d="M234.057 105.119C233.608 105.116 233.175 105.041 232.757 104.893C232.342 104.746 231.97 104.506 231.641 104.173C231.311 103.841 231.05 103.401 230.857 102.852C230.666 102.304 230.571 101.631 230.571 100.832C230.574 100.099 230.658 99.4446 230.822 98.8679C230.99 98.2884 231.229 97.7969 231.538 97.3935C231.851 96.9901 232.224 96.6832 232.659 96.473C233.094 96.2599 233.581 96.1534 234.121 96.1534C234.703 96.1534 235.217 96.267 235.663 96.4943C236.109 96.7187 236.467 97.0241 236.737 97.4105C237.01 97.7969 237.175 98.2301 237.232 98.7102H235.412C235.341 98.4062 235.192 98.1676 234.964 97.9943C234.737 97.821 234.456 97.7344 234.121 97.7344C233.553 97.7344 233.121 97.9815 232.825 98.4759C232.533 98.9702 232.384 99.642 232.378 100.491H232.438C232.568 100.233 232.744 100.013 232.966 99.831C233.19 99.6463 233.445 99.5057 233.729 99.4091C234.016 99.3097 234.318 99.2599 234.636 99.2599C235.153 99.2599 235.614 99.3821 236.017 99.6264C236.42 99.8679 236.739 100.2 236.972 100.624C237.205 101.047 237.321 101.531 237.321 102.077C237.321 102.668 237.183 103.193 236.908 103.653C236.635 104.114 236.253 104.474 235.761 104.736C235.273 104.994 234.705 105.122 234.057 105.119ZM234.048 103.67C234.332 103.67 234.587 103.602 234.811 103.466C235.036 103.33 235.212 103.145 235.339 102.912C235.467 102.679 235.531 102.418 235.531 102.128C235.531 101.838 235.467 101.578 235.339 101.348C235.214 101.118 235.041 100.935 234.82 100.798C234.598 100.662 234.345 100.594 234.061 100.594C233.848 100.594 233.651 100.634 233.469 100.713C233.29 100.793 233.132 100.903 232.996 101.045C232.862 101.187 232.757 101.352 232.68 101.54C232.604 101.724 232.565 101.922 232.565 102.132C232.565 102.413 232.629 102.67 232.757 102.903C232.888 103.136 233.064 103.322 233.286 103.462C233.51 103.601 233.764 103.67 234.048 103.67ZM238.629 105V103.67L241.736 100.794C242 100.538 242.222 100.308 242.401 100.104C242.582 99.8991 242.72 99.6989 242.814 99.5028C242.908 99.304 242.955 99.0895 242.955 98.8594C242.955 98.6037 242.896 98.3835 242.78 98.1989C242.663 98.0114 242.504 97.8679 242.303 97.7685C242.101 97.6662 241.872 97.6151 241.616 97.6151C241.349 97.6151 241.116 97.669 240.918 97.777C240.719 97.8849 240.565 98.0398 240.457 98.2415C240.349 98.4432 240.295 98.6832 240.295 98.9616H238.544C238.544 98.3906 238.673 97.8949 238.932 97.4744C239.19 97.054 239.553 96.7287 240.018 96.4986C240.484 96.2685 241.021 96.1534 241.629 96.1534C242.254 96.1534 242.798 96.2642 243.261 96.4858C243.727 96.7045 244.089 97.0085 244.348 97.3977C244.607 97.7869 244.736 98.233 244.736 98.7358C244.736 99.0653 244.67 99.3906 244.54 99.7116C244.412 100.033 244.183 100.389 243.854 100.781C243.524 101.17 243.06 101.638 242.46 102.183L241.186 103.432V103.491H244.851V105H238.629ZM250.965 103.364V102.903C250.965 102.554 251.039 102.233 251.186 101.94C251.337 101.645 251.554 101.409 251.838 101.233C252.125 101.054 252.475 100.964 252.887 100.964C253.304 100.964 253.655 101.053 253.939 101.229C254.226 101.405 254.442 101.641 254.587 101.936C254.735 102.229 254.809 102.551 254.809 102.903V103.364C254.809 103.713 254.735 104.036 254.587 104.331C254.439 104.624 254.222 104.858 253.935 105.034C253.648 105.213 253.299 105.303 252.887 105.303C252.469 105.303 252.118 105.213 251.834 105.034C251.55 104.858 251.334 104.624 251.186 104.331C251.039 104.036 250.965 103.713 250.965 103.364ZM252.205 102.903V103.364C252.205 103.565 252.253 103.756 252.35 103.935C252.449 104.114 252.628 104.203 252.887 104.203C253.145 104.203 253.321 104.115 253.415 103.939C253.512 103.763 253.56 103.571 253.56 103.364V102.903C253.56 102.696 253.515 102.503 253.424 102.324C253.333 102.145 253.154 102.055 252.887 102.055C252.631 102.055 252.453 102.145 252.354 102.324C252.255 102.503 252.205 102.696 252.205 102.903ZM246.486 98.3693V97.9091C246.486 97.5568 246.561 97.2344 246.712 96.9418C246.863 96.6463 247.08 96.4105 247.364 96.2344C247.651 96.0582 247.998 95.9702 248.404 95.9702C248.824 95.9702 249.176 96.0582 249.461 96.2344C249.745 96.4105 249.961 96.6463 250.108 96.9418C250.256 97.2344 250.33 97.5568 250.33 97.9091V98.3693C250.33 98.7216 250.255 99.044 250.104 99.3366C249.956 99.6293 249.739 99.8636 249.452 100.04C249.168 100.213 248.819 100.3 248.404 100.3C247.989 100.3 247.638 100.212 247.351 100.036C247.067 99.8565 246.851 99.6222 246.703 99.3324C246.559 99.0398 246.486 98.7187 246.486 98.3693ZM247.735 97.9091V98.3693C247.735 98.5767 247.783 98.7685 247.88 98.9446C247.979 99.1207 248.154 99.2088 248.404 99.2088C248.665 99.2088 248.843 99.1207 248.936 98.9446C249.033 98.7685 249.081 98.5767 249.081 98.3693V97.9091C249.081 97.7017 249.036 97.5085 248.945 97.3295C248.854 97.1506 248.674 97.0611 248.404 97.0611C248.151 97.0611 247.976 97.152 247.88 97.3338C247.783 97.5156 247.735 97.7074 247.735 97.9091ZM247.049 105L253.049 96.2727H254.165L248.165 105H247.049Z" fill="black" fill-opacity="0.96"/>
<path d="M259.349 97.2102V96.2727H265.895V97.2102H263.15V105H262.093V97.2102H259.349ZM268.425 105.153C268.01 105.153 267.634 105.075 267.295 104.919C266.957 104.76 266.689 104.531 266.49 104.233C266.291 103.932 266.192 103.568 266.192 103.142C266.192 102.767 266.266 102.463 266.413 102.23C266.561 101.994 266.759 101.81 267.006 101.676C267.253 101.543 267.526 101.443 267.824 101.378C268.125 101.31 268.428 101.256 268.732 101.216C269.129 101.165 269.452 101.126 269.699 101.101C269.949 101.072 270.131 101.026 270.244 100.96C270.361 100.895 270.419 100.781 270.419 100.619V100.585C270.419 100.165 270.304 99.8381 270.074 99.6051C269.847 99.3722 269.501 99.2557 269.038 99.2557C268.558 99.2557 268.182 99.3608 267.909 99.571C267.636 99.7812 267.445 100.006 267.334 100.244L266.379 99.9034C266.55 99.5057 266.777 99.196 267.061 98.9744C267.348 98.75 267.661 98.5937 267.999 98.5057C268.339 98.4148 268.675 98.3693 269.004 98.3693C269.214 98.3693 269.456 98.3949 269.729 98.446C270.004 98.4943 270.27 98.5952 270.526 98.7486C270.784 98.902 270.999 99.1335 271.169 99.4432C271.339 99.7528 271.425 100.168 271.425 100.688V105H270.419V104.114H270.368C270.3 104.256 270.186 104.408 270.027 104.57C269.868 104.732 269.656 104.869 269.392 104.983C269.128 105.097 268.805 105.153 268.425 105.153ZM268.578 104.25C268.976 104.25 269.311 104.172 269.584 104.016C269.859 103.859 270.067 103.658 270.206 103.411C270.348 103.163 270.419 102.903 270.419 102.631V101.71C270.376 101.761 270.283 101.808 270.138 101.851C269.996 101.891 269.831 101.926 269.643 101.957C269.459 101.986 269.278 102.011 269.102 102.034C268.929 102.054 268.788 102.071 268.68 102.085C268.419 102.119 268.175 102.175 267.947 102.251C267.723 102.325 267.541 102.437 267.402 102.588C267.266 102.736 267.197 102.937 267.197 103.193C267.197 103.543 267.327 103.807 267.585 103.986C267.847 104.162 268.178 104.25 268.578 104.25ZM273.26 105V98.4545H274.232V99.4432H274.3C274.419 99.1193 274.635 98.8565 274.948 98.6548C275.26 98.4531 275.613 98.3523 276.005 98.3523C276.078 98.3523 276.171 98.3537 276.282 98.3565C276.392 98.3594 276.476 98.3636 276.533 98.3693V99.392C276.499 99.3835 276.421 99.3707 276.299 99.3537C276.179 99.3338 276.053 99.3239 275.919 99.3239C275.601 99.3239 275.317 99.3906 275.067 99.5241C274.82 99.6548 274.624 99.8366 274.479 100.07C274.337 100.3 274.266 100.562 274.266 100.858V105H273.26ZM280.168 107.591C279.682 107.591 279.265 107.528 278.915 107.403C278.566 107.281 278.275 107.119 278.042 106.918C277.811 106.719 277.628 106.506 277.492 106.278L278.293 105.716C278.384 105.835 278.499 105.972 278.638 106.125C278.777 106.281 278.968 106.416 279.209 106.53C279.453 106.646 279.773 106.705 280.168 106.705C280.696 106.705 281.132 106.577 281.476 106.321C281.82 106.065 281.992 105.665 281.992 105.119V103.79H281.907C281.833 103.909 281.728 104.057 281.591 104.233C281.458 104.406 281.265 104.561 281.012 104.697C280.762 104.831 280.424 104.898 279.998 104.898C279.469 104.898 278.995 104.773 278.574 104.523C278.157 104.273 277.826 103.909 277.581 103.432C277.34 102.955 277.219 102.375 277.219 101.693C277.219 101.023 277.337 100.439 277.573 99.9418C277.809 99.4418 278.137 99.0554 278.557 98.7827C278.978 98.5071 279.463 98.3693 280.015 98.3693C280.441 98.3693 280.779 98.4403 281.029 98.5824C281.282 98.7216 281.475 98.8807 281.608 99.0597C281.745 99.2358 281.85 99.3807 281.924 99.4943H282.026V98.4545H282.998V105.188C282.998 105.75 282.87 106.207 282.614 106.56C282.361 106.915 282.02 107.175 281.591 107.339C281.165 107.507 280.691 107.591 280.168 107.591ZM280.134 103.994C280.537 103.994 280.878 103.902 281.157 103.717C281.435 103.533 281.647 103.267 281.792 102.92C281.936 102.574 282.009 102.159 282.009 101.676C282.009 101.205 281.938 100.788 281.796 100.428C281.654 100.067 281.444 99.7841 281.165 99.5795C280.887 99.375 280.543 99.2727 280.134 99.2727C279.708 99.2727 279.353 99.3807 279.069 99.5966C278.787 99.8125 278.576 100.102 278.434 100.466C278.294 100.83 278.225 101.233 278.225 101.676C278.225 102.131 278.296 102.533 278.438 102.882C278.583 103.229 278.796 103.501 279.077 103.7C279.361 103.896 279.713 103.994 280.134 103.994ZM287.583 105.136C286.952 105.136 286.408 104.997 285.951 104.719C285.496 104.438 285.145 104.045 284.898 103.543C284.654 103.037 284.532 102.449 284.532 101.778C284.532 101.108 284.654 100.517 284.898 100.006C285.145 99.4915 285.489 99.0909 285.929 98.804C286.373 98.5142 286.89 98.3693 287.48 98.3693C287.821 98.3693 288.158 98.4261 288.49 98.5398C288.823 98.6534 289.125 98.8381 289.398 99.0938C289.671 99.3466 289.888 99.6818 290.05 100.099C290.212 100.517 290.293 101.031 290.293 101.642V102.068H285.248V101.199H289.27C289.27 100.83 289.196 100.5 289.049 100.21C288.904 99.9205 288.696 99.6918 288.426 99.5241C288.159 99.3565 287.844 99.2727 287.48 99.2727C287.08 99.2727 286.733 99.3722 286.441 99.571C286.151 99.767 285.928 100.023 285.772 100.338C285.615 100.653 285.537 100.991 285.537 101.352V101.932C285.537 102.426 285.623 102.845 285.793 103.189C285.966 103.53 286.206 103.79 286.513 103.969C286.82 104.145 287.176 104.233 287.583 104.233C287.847 104.233 288.086 104.196 288.299 104.122C288.515 104.045 288.701 103.932 288.857 103.781C289.013 103.628 289.134 103.437 289.219 103.21L290.191 103.483C290.088 103.812 289.917 104.102 289.675 104.352C289.434 104.599 289.135 104.793 288.78 104.932C288.425 105.068 288.026 105.136 287.583 105.136ZM294.669 98.4545V99.3068H291.277V98.4545H294.669ZM292.266 96.8864H293.272V103.125C293.272 103.409 293.313 103.622 293.395 103.764C293.48 103.903 293.588 103.997 293.719 104.045C293.853 104.091 293.993 104.114 294.141 104.114C294.252 104.114 294.343 104.108 294.414 104.097C294.485 104.082 294.542 104.071 294.584 104.062L294.789 104.966C294.721 104.991 294.625 105.017 294.503 105.043C294.381 105.071 294.226 105.085 294.039 105.085C293.755 105.085 293.476 105.024 293.203 104.902C292.934 104.78 292.709 104.594 292.53 104.344C292.354 104.094 292.266 103.778 292.266 103.398V96.8864ZM298.856 105.136C298.225 105.136 297.681 104.997 297.224 104.719C296.77 104.438 296.419 104.045 296.172 103.543C295.927 103.037 295.805 102.449 295.805 101.778C295.805 101.108 295.927 100.517 296.172 100.006C296.419 99.4915 296.762 99.0909 297.203 98.804C297.646 98.5142 298.163 98.3693 298.754 98.3693C299.095 98.3693 299.431 98.4261 299.764 98.5398C300.096 98.6534 300.399 98.8381 300.672 99.0938C300.944 99.3466 301.162 99.6818 301.324 100.099C301.485 100.517 301.566 101.031 301.566 101.642V102.068H296.521V101.199H300.544C300.544 100.83 300.47 100.5 300.322 100.21C300.177 99.9205 299.97 99.6918 299.7 99.5241C299.433 99.3565 299.118 99.2727 298.754 99.2727C298.353 99.2727 298.007 99.3722 297.714 99.571C297.424 99.767 297.201 100.023 297.045 100.338C296.889 100.653 296.811 100.991 296.811 101.352V101.932C296.811 102.426 296.896 102.845 297.066 103.189C297.24 103.53 297.48 103.79 297.787 103.969C298.093 104.145 298.45 104.233 298.856 104.233C299.12 104.233 299.359 104.196 299.572 104.122C299.788 104.045 299.974 103.932 300.13 103.781C300.287 103.628 300.407 103.437 300.493 103.21L301.464 103.483C301.362 103.812 301.19 104.102 300.949 104.352C300.707 104.599 300.409 104.793 300.054 104.932C299.699 105.068 299.299 105.136 298.856 105.136ZM305.568 105.136C305.022 105.136 304.541 104.999 304.123 104.723C303.706 104.445 303.379 104.053 303.143 103.547C302.907 103.038 302.789 102.438 302.789 101.744C302.789 101.057 302.907 100.46 303.143 99.9545C303.379 99.4489 303.707 99.0582 304.127 98.7827C304.548 98.5071 305.034 98.3693 305.585 98.3693C306.011 98.3693 306.348 98.4403 306.595 98.5824C306.845 98.7216 307.035 98.8807 307.166 99.0597C307.299 99.2358 307.403 99.3807 307.477 99.4943H307.562V96.2727H308.568V105H307.596V103.994H307.477C307.403 104.114 307.298 104.264 307.162 104.446C307.025 104.625 306.831 104.786 306.578 104.928C306.325 105.067 305.988 105.136 305.568 105.136ZM305.704 104.233C306.108 104.233 306.449 104.128 306.727 103.918C307.005 103.705 307.217 103.411 307.362 103.036C307.507 102.658 307.579 102.222 307.579 101.727C307.579 101.239 307.508 100.811 307.366 100.445C307.224 100.075 307.014 99.7884 306.735 99.5838C306.457 99.3764 306.113 99.2727 305.704 99.2727C305.278 99.2727 304.923 99.3821 304.639 99.6009C304.358 99.8168 304.146 100.111 304.004 100.483C303.865 100.852 303.795 101.267 303.795 101.727C303.795 102.193 303.866 102.616 304.008 102.997C304.153 103.375 304.366 103.676 304.647 103.901C304.931 104.122 305.284 104.233 305.704 104.233Z" fill="black" fill-opacity="0.64"/>
<rect x="230" y="120" width="148" height="6" rx="3" fill="black" fill-opacity="0.04"/>
<rect x="230" y="120" width="111" height="6" rx="3" fill="#845CF5"/>
<path d="M435 112.5C436.657 112.5 438 111.157 438 109.5C438 107.843 436.657 106.5 435 106.5C433.343 106.5 432 107.843 432 109.5C432 111.157 433.343 112.5 435 112.5Z" stroke="black" stroke-opacity="0.48" stroke-linecap="round" stroke-linejoin="round"/>
<path d="M439.337 106.544C439.487 106.759 439.619 106.987 439.731 107.225L441.349 108.125C441.551 109.03 441.554 109.969 441.356 110.875L439.731 111.775C439.619 112.013 439.487 112.241 439.337 112.456L439.368 114.312C438.682 114.938 437.87 115.409 436.987 115.694L435.393 114.737C435.131 114.756 434.868 114.756 434.606 114.737L433.018 115.687C432.132 115.407 431.317 114.938 430.631 114.312L430.662 112.462C430.513 112.244 430.381 112.014 430.268 111.775L428.649 110.875C428.447 109.97 428.445 109.031 428.643 108.125L430.268 107.225C430.38 106.987 430.511 106.759 430.662 106.544L430.631 104.687C431.317 104.062 432.129 103.591 433.012 103.306L434.606 104.262C434.868 104.244 435.131 104.244 435.393 104.262L436.981 103.312C437.867 103.592 438.681 104.061 439.368 104.687L439.337 106.544Z" stroke="black" stroke-opacity="0.48" stroke-linecap="round" stroke-linejoin="round"/>
</svg>
