<svg width="60" height="56" viewBox="0 0 60 56" fill="none" xmlns="http://www.w3.org/2000/svg">
<path d="M9.48693 23.8608L12.1395 12.8615L13.4266 7.54C13.8806 5.66609 14.4632 3.77794 14.7572 1.87454C14.8676 1.18615 14.1943 1.15056 13.6836 1.30779C13.0166 1.51248 12.2807 2.07798 12.0646 2.75681C11.4697 4.61019 11.1132 6.55918 10.6572 8.44947L9.37007 13.771L6.71046 24.7728C6.53715 25.4834 7.33669 25.4978 7.81944 25.3505C8.46543 25.1532 9.31569 24.5551 9.48447 23.8539L9.48693 23.8608Z" fill="#00AEFF" stroke="#00AEFF" stroke-width="2"/>
<path d="M24.0974 29.6918C34.2341 21.9042 44.4496 14.206 54.4976 6.3011C54.8493 6.02801 55.6935 5.34598 55.3306 4.8094C54.9775 4.30063 53.9732 4.7968 53.6375 5.04856C43.4122 12.7189 33.3379 20.594 23.2037 28.3886C22.8335 28.6761 21.9523 29.3869 22.339 29.9463C22.6994 30.4759 23.7621 29.9669 24.1069 29.6963L24.0974 29.6918Z" fill="#00AEFF" stroke="#00AEFF" stroke-width="2"/>
<path d="M26.3751 43.5547L37.3072 46.0628L42.6838 47.2976C44.5333 47.7228 46.3938 48.2459 48.2668 48.5376C48.9059 48.6322 49.6616 48.1223 50.0669 47.6895C50.2788 47.4659 50.895 46.6063 50.2941 46.4199C48.4728 45.8517 46.5661 45.5093 44.7096 45.0866L39.333 43.8518L28.2197 41.2983C27.2267 41.0707 24.9116 43.2198 26.3681 43.5572L26.3751 43.5547Z" fill="#00AEFF" stroke="#00AEFF" stroke-width="2"/>
</svg>
