<svg width="134" height="134" viewBox="0 0 134 134" fill="none" xmlns="http://www.w3.org/2000/svg">
<circle cx="67" cy="67" r="67" fill="#F5CC00"/>
<path d="M62.4286 79.6762C62.4286 72.4591 57.3907 67.2776 49.9271 66.5374C51.0466 57.8399 55.7114 50.9929 61.1224 46.1815L55.898 41C42.0904 51.363 35 64.5018 35 76.3452C35 86.5231 40.4111 93 48.8076 93C56.8309 93 62.4286 87.4484 62.4286 79.6762ZM96 79.6762C96 72.4591 91.1487 67.2776 83.4985 66.5374C84.6181 57.8399 89.2828 50.9929 94.6939 46.1815L89.656 41C75.6618 51.363 68.5714 64.5018 68.5714 76.3452C68.5714 86.5231 73.9825 93 82.5656 93C90.4023 93 96 87.4484 96 79.6762Z" fill="white"/>
</svg>
