<svg width="40" height="36" viewBox="0 0 40 36" fill="none" xmlns="http://www.w3.org/2000/svg">
<path d="M36.5 6H29V4.5C28.9951 3.30805 28.5194 2.16632 27.6765 1.32347C26.8337 0.480627 25.692 0.00493569 24.5 0H15.5C14.308 0.00493569 13.1663 0.480627 12.3235 1.32347C11.4806 2.16632 11.0049 3.30805 11 4.5V6H3.5C2.70435 6 1.94129 6.31607 1.37868 6.87868C0.81607 7.44129 0.5 8.20435 0.5 9V33C0.5 33.7957 0.81607 34.5587 1.37868 35.1213C1.94129 35.6839 2.70435 36 3.5 36H36.5C37.2957 36 38.0587 35.6839 38.6213 35.1213C39.1839 34.5587 39.5 33.7957 39.5 33V9C39.5 8.20435 39.1839 7.44129 38.6213 6.87868C38.0587 6.31607 37.2957 6 36.5 6ZM14 4.5C14 4.10218 14.158 3.72064 14.4393 3.43934C14.7206 3.15804 15.1022 3 15.5 3H24.5C24.8978 3 25.2794 3.15804 25.5607 3.43934C25.842 3.72064 26 4.10218 26 4.5V6H14V4.5ZM36.5 9V16.8C31.4384 19.5595 25.7649 21.0037 20 21C14.2351 21.0037 8.56157 19.5595 3.5 16.8V9H36.5ZM16.25 16.5C16.25 16.1022 16.408 15.7206 16.6893 15.4393C16.9706 15.158 17.3522 15 17.75 15H22.25C22.6478 15 23.0294 15.158 23.3107 15.4393C23.592 15.7206 23.75 16.1022 23.75 16.5C23.75 16.8978 23.592 17.2794 23.3107 17.5607C23.0294 17.842 22.6478 18 22.25 18H17.75C17.3522 18 16.9706 17.842 16.6893 17.5607C16.408 17.2794 16.25 16.8978 16.25 16.5Z" fill="#F5CC00"/>
</svg>
