<svg width="36" height="36" viewBox="0 0 36 36" fill="none" xmlns="http://www.w3.org/2000/svg">
<path d="M33 0H3C2.20435 0 1.44129 0.31607 0.87868 0.87868C0.31607 1.44129 0 2.20435 0 3V33C0 33.7957 0.31607 34.5587 0.87868 35.1213C1.44129 35.6839 2.20435 36 3 36H23.3812C23.7751 36.0004 24.1651 35.9227 24.5288 35.7714C24.8925 35.6201 25.2226 35.3983 25.5 35.1188L35.1188 25.5C35.3983 25.2226 35.6201 24.8925 35.7714 24.5288C35.9227 24.1651 36.0004 23.7751 36 23.3812V3C36 2.20435 35.6839 1.44129 35.1213 0.87868C34.5587 0.31607 33.7957 0 33 0ZM12 10.5H24C24.3978 10.5 24.7794 10.658 25.0607 10.9393C25.342 11.2206 25.5 11.6022 25.5 12C25.5 12.3978 25.342 12.7794 25.0607 13.0607C24.7794 13.342 24.3978 13.5 24 13.5H12C11.6022 13.5 11.2206 13.342 10.9393 13.0607C10.658 12.7794 10.5 12.3978 10.5 12C10.5 11.6022 10.658 11.2206 10.9393 10.9393C11.2206 10.658 11.6022 10.5 12 10.5ZM18 25.5H12C11.6022 25.5 11.2206 25.342 10.9393 25.0607C10.658 24.7794 10.5 24.3978 10.5 24C10.5 23.6022 10.658 23.2206 10.9393 22.9393C11.2206 22.658 11.6022 22.5 12 22.5H18C18.3978 22.5 18.7794 22.658 19.0607 22.9393C19.342 23.2206 19.5 23.6022 19.5 24C19.5 24.3978 19.342 24.7794 19.0607 25.0607C18.7794 25.342 18.3978 25.5 18 25.5ZM12 19.5C11.6022 19.5 11.2206 19.342 10.9393 19.0607C10.658 18.7794 10.5 18.3978 10.5 18C10.5 17.6022 10.658 17.2206 10.9393 16.9393C11.2206 16.658 11.6022 16.5 12 16.5H24C24.3978 16.5 24.7794 16.658 25.0607 16.9393C25.342 17.2206 25.5 17.6022 25.5 18C25.5 18.3978 25.342 18.7794 25.0607 19.0607C24.7794 19.342 24.3978 19.5 24 19.5H12ZM24 32.3812V24H32.3812L24 32.3812Z" fill="#12CE70"/>
</svg>
