<svg width="46" height="35" viewBox="0 0 46 35" fill="none" xmlns="http://www.w3.org/2000/svg">
<path d="M0.740914 14.7976L21.7409 26.7976C21.9676 26.933 22.2268 27.0045 22.4909 27.0045C22.755 27.0045 23.0142 26.933 23.2409 26.7976L44.2409 14.7976C44.4665 14.6652 44.6535 14.4762 44.7835 14.2493C44.9135 14.0223 44.9818 13.7654 44.9818 13.5038C44.9818 13.2423 44.9135 12.9853 44.7835 12.7584C44.6535 12.5315 44.4665 12.3424 44.2409 12.2101L23.2409 0.210091C23.0149 0.072675 22.7554 0 22.4909 0C22.2264 0 21.9669 0.072675 21.7409 0.210091L0.740914 12.2101C0.515351 12.3424 0.328309 12.5315 0.198342 12.7584C0.0683749 12.9853 0 13.2423 0 13.5038C0 13.7654 0.0683749 14.0223 0.198342 14.2493C0.328309 14.4762 0.515351 14.6652 0.740914 14.7976V14.7976Z" fill="#7656F0"/>
<path d="M42.7415 19.7103L22.4915 31.279L2.24147 19.7103C1.90105 19.547 1.51158 19.5181 1.15078 19.6294C0.789991 19.7406 0.484422 19.9838 0.295067 20.3105C0.105712 20.6371 0.0464985 21.0231 0.129246 21.3915C0.211993 21.7599 0.430615 22.0835 0.741475 22.2978L21.7415 34.2978C21.9682 34.4332 22.2274 34.5047 22.4915 34.5047C22.7556 34.5047 23.0147 34.4332 23.2415 34.2978L44.2415 22.2978C44.428 22.2083 44.594 22.0813 44.729 21.9246C44.8641 21.7679 44.9652 21.585 45.0262 21.3873C45.0871 21.1896 45.1065 20.9815 45.0832 20.776C45.0598 20.5704 44.9942 20.372 44.8905 20.193C44.7867 20.0141 44.6471 19.8585 44.4804 19.7361C44.3136 19.6137 44.1233 19.5271 43.9215 19.4818C43.7197 19.4364 43.5107 19.4333 43.3076 19.4727C43.1045 19.512 42.9118 19.5929 42.7415 19.7103V19.7103Z" fill="#7656F0"/>
</svg>
