<svg width="40" height="40" viewBox="0 0 40 40" fill="none" xmlns="http://www.w3.org/2000/svg">
<circle cx="20" cy="20" r="12.5" fill="#12CE70" fill-opacity="0.14"/>
<g clip-path="url(#clip0_141_5642)">
<path d="M30.3705 7.73926C27.8987 9.87852 25.8075 11.9149 23.8929 14.5719C23.0486 15.7438 22.1096 17.1231 21.4958 18.4253C21.1455 19.1158 20.5138 20.1948 20.2985 21.2322C19.1207 20.1365 17.8557 18.8929 16.5614 17.9188C15.6388 17.2247 12.9816 18.6398 14.0632 19.4536C16.0018 20.9117 17.614 22.7278 19.4996 24.251C20.2882 24.8873 22.0361 23.5054 22.4468 22.9256C23.7951 21.0154 23.9793 18.6805 24.962 16.5969C26.4622 13.4103 29.123 10.7926 31.75 8.51944C33.4906 6.8961 31.6929 6.59668 30.3731 7.73926" fill="#12CE70"/>
</g>
<defs>
<clipPath id="clip0_141_5642">
<rect width="18.75" height="18.75" fill="white" transform="translate(13.75 6.25)"/>
</clipPath>
</defs>
</svg>
