<svg width="126" height="40" viewBox="0 0 126 40" fill="none" xmlns="http://www.w3.org/2000/svg">
<path d="M39.0812 2.21286V2.22555V2.23824V17.6481H39.0787C39.0737 18.2394 38.5916 18.7177 37.9945 18.7177C37.992 18.7177 37.992 18.7172 37.9906 18.7172V18.7185H22.5032C22.4881 18.7189 22.4733 18.7236 22.4582 18.7236C21.8588 18.7236 21.3716 18.242 21.3716 17.6478V17.5896V17.5794C21.9345 8.82008 28.9611 1.80769 37.7771 1.17267L37.9926 1.15479C38.583 1.15479 39.064 1.61802 39.0793 2.19953H39.0818L39.0812 2.21286ZM39.0812 37.7864V37.8011H39.0787C39.0634 38.3822 38.5824 38.8453 37.992 38.8453L37.7766 38.8281C28.9608 38.1925 21.9341 31.18 21.3711 22.4208V22.4107V22.352C21.3711 21.7579 21.8583 21.2763 22.4577 21.2763C22.4728 21.2763 22.4876 21.2801 22.5027 21.2814H37.9903V21.2827H37.994C38.591 21.2827 39.0735 21.7609 39.0782 22.3518H39.0807V37.7617V37.7744L39.0812 37.7864Z" fill="#75227D"/>
<path d="M18.841 2.21286C18.841 2.21667 18.8435 2.22048 18.8435 2.22555C18.8435 2.22936 18.841 2.23316 18.841 2.23824V17.6481H18.8385C18.8372 18.2394 18.3517 18.7177 17.7547 18.7177L17.7522 18.7172V18.7185H2.26547C2.25035 18.7189 2.23522 18.7236 2.21818 18.7236C1.61877 18.7236 1.13394 18.242 1.13394 17.6478C1.13394 17.6244 1.1314 17.6127 1.13394 17.5896V17.5794C1.69642 8.82008 8.72312 1.80769 17.5371 1.17267L17.7549 1.15479C18.3454 1.15479 18.8259 1.61802 18.8387 2.19953H18.8412L18.841 2.21286ZM2.22216 38.8453C1.63174 38.8453 1.15117 38.3819 1.13603 37.7619L1.13857 22.3523C1.13984 21.7614 1.6253 21.2831 2.2247 21.2812C2.2247 21.2812 17.742 21.2761 17.7591 21.2761C18.3585 21.2761 18.8433 21.7577 18.8433 22.3519C18.8433 22.3753 18.8459 22.387 18.8433 22.4204C18.2808 31.1797 11.2542 38.1919 2.44012 38.8275L2.22216 38.8453Z" fill="#8F3E8C"/>
<path d="M49.3696 5.77033V9.53478H55.6004V12.3581H49.3696V18.6863H45.8229V2.9362H56.3097V5.77033H49.3696ZM67.8637 6.98189V18.6863H64.6664L64.5681 17.4531C64.1899 17.9219 63.7353 18.2806 63.2042 18.5294C62.6731 18.7782 62.0657 18.9026 61.3817 18.9026C60.1522 18.9026 59.1885 18.5493 58.4901 17.8425C57.7917 17.1358 57.4423 16.0396 57.4423 14.5541V6.98189H60.847V14.5757C60.847 15.1166 60.987 15.5186 61.2673 15.7818C61.5474 16.045 61.9348 16.1766 62.4295 16.1766C63.3971 16.1766 64.0699 15.8449 64.4482 15.1814V6.98189H67.8637ZM79.3687 7.82564C80.0198 8.53236 80.3455 9.68983 80.3455 11.298V18.6863H76.9297V11.2764C76.9297 10.5985 76.786 10.1315 76.4988 9.87553C76.2112 9.61953 75.7622 9.49153 75.1509 9.49153C74.3434 9.49153 73.7396 9.81603 73.3396 10.4651V18.6863H69.9458V6.98189H73.1323L73.2522 8.33406C73.6597 7.82203 74.1488 7.43261 74.72 7.16578C75.291 6.89895 75.9259 6.76553 76.624 6.76553C77.8026 6.76553 78.7176 7.11889 79.3687 7.82564ZM92.805 2.0708V18.6863H89.7388L89.5751 17.4206C88.8038 18.4086 87.8181 18.9026 86.6178 18.9026C85.6575 18.9026 84.8318 18.6484 84.1407 18.14C83.4495 17.6316 82.9239 16.9302 82.5637 16.036C82.2035 15.1418 82.0234 14.1214 82.0234 12.9747V12.7475C82.0234 11.5576 82.2035 10.512 82.5637 9.6105C82.9239 8.70906 83.4495 8.00953 84.1407 7.51194C84.8318 7.01433 85.6647 6.76553 86.6395 6.76553C87.7455 6.76553 88.6621 7.18381 89.3895 8.02036V2.0708H92.805ZM88.6421 15.89C88.9586 15.6989 89.2077 15.423 89.3895 15.0625V10.6057C89.0329 9.86292 88.4038 9.49153 87.5016 9.49153C86.7815 9.49153 86.2557 9.78358 85.9247 10.3677C85.5937 10.9519 85.4284 11.7451 85.4284 12.7475V12.9747C85.4284 13.9555 85.5884 14.7343 85.9083 15.3112C86.2284 15.8882 86.7523 16.1766 87.4799 16.1766C87.9381 16.1766 88.3256 16.0811 88.6421 15.89ZM98.2589 2.71443C98.6083 3.03533 98.7828 3.45181 98.7828 3.96383C98.7828 4.46867 98.6083 4.8815 98.2589 5.20245C97.9099 5.52333 97.4514 5.68381 96.8841 5.68381C96.3165 5.68381 95.86 5.52333 95.5146 5.20245C95.1691 4.8815 94.9962 4.46867 94.9962 3.96383C94.9962 3.45181 95.1691 3.03533 95.5146 2.71443C95.86 2.39352 96.3165 2.23306 96.8841 2.23306C97.4514 2.23306 97.9099 2.39352 98.2589 2.71443ZM95.1925 18.6863V6.98189H98.6083V18.6863H95.1925ZM110.342 7.82564C110.993 8.53236 111.319 9.68983 111.319 11.298V18.6863H107.903V11.2764C107.903 10.5985 107.76 10.1315 107.472 9.87553C107.185 9.61953 106.736 9.49153 106.125 9.49153C105.317 9.49153 104.713 9.81603 104.313 10.4651V18.6863H100.92V6.98189H104.106L104.226 8.33406C104.633 7.82203 105.123 7.43261 105.693 7.16578C106.265 6.89895 106.899 6.76553 107.598 6.76553C108.776 6.76553 109.691 7.11889 110.342 7.82564ZM124.008 6.98189V18.2428C124.008 19.3029 123.766 20.2133 123.282 20.9741C122.799 21.735 122.118 22.3119 121.242 22.7049C120.365 23.098 119.345 23.2945 118.181 23.2945C117.373 23.2945 116.557 23.1394 115.731 22.8293C114.905 22.5192 114.256 22.0829 113.783 21.5204L115.256 19.4543C115.598 19.8293 116.005 20.1268 116.478 20.3468C116.951 20.5667 117.471 20.6767 118.039 20.6767C118.854 20.6767 119.485 20.4639 119.932 20.0384C120.38 19.613 120.603 19.0108 120.603 18.2319V17.6911C119.868 18.4988 118.941 18.9026 117.821 18.9026C116.853 18.9026 116.007 18.6484 115.283 18.14C114.56 17.6316 114.003 16.9267 113.614 16.0252C113.225 15.1237 113.03 14.1069 113.03 12.9747V12.7475C113.03 11.5648 113.225 10.5228 113.614 9.62133C114.003 8.71989 114.561 8.01856 115.289 7.51733C116.016 7.01614 116.867 6.76553 117.842 6.76553C119.108 6.76553 120.094 7.19461 120.8 8.05281L120.93 6.98189H124.008ZM120.603 15.2464V10.4218C120.21 9.80161 119.577 9.49153 118.704 9.49153C117.969 9.49153 117.408 9.79258 117.018 10.3947C116.629 10.9969 116.435 11.7812 116.435 12.7475V12.9747C116.435 13.9194 116.626 14.6893 117.007 15.2842C117.389 15.8792 117.948 16.1766 118.683 16.1766C119.556 16.1766 120.196 15.8666 120.603 15.2464ZM57.5865 35.8163C57.0554 36.6491 56.3116 37.2963 55.3549 37.758C54.3982 38.2194 53.2797 38.4502 51.9992 38.4502C50.6316 38.4502 49.4494 38.1419 48.4529 37.5255C47.4561 36.9088 46.6923 36.0272 46.1611 34.8805C45.63 33.7338 45.3645 32.378 45.3645 30.8133V29.9047C45.3645 28.3541 45.6373 27.0019 46.1829 25.848C46.7287 24.6942 47.5015 23.8071 48.5019 23.1869C49.5023 22.5667 50.6681 22.2566 51.9992 22.2566C53.3162 22.2566 54.4438 22.4964 55.3822 22.976C56.3205 23.4556 57.0499 24.119 57.5701 24.9664C58.0904 25.8138 58.4013 26.7891 58.5032 27.8924H54.9674C54.9092 26.955 54.6548 26.2609 54.2036 25.8102C53.7527 25.3594 53.0178 25.1341 51.9992 25.1341C50.959 25.1341 50.1916 25.5127 49.6969 26.2699C49.202 27.0271 48.9548 28.2313 48.9548 29.883V30.8133C48.9548 31.9383 49.0547 32.8469 49.2549 33.5391C49.455 34.2316 49.7768 34.7436 50.2205 35.0752C50.6645 35.4069 51.2574 35.5727 51.9992 35.5727C52.9524 35.5727 53.6672 35.3566 54.1437 34.9238C54.62 34.4911 54.8875 33.8241 54.9457 32.9224H58.4812C58.4158 34.0188 58.1177 34.9833 57.5865 35.8163ZM63.4553 22.2621C63.8043 22.583 63.9789 22.9994 63.9789 23.5115C63.9789 24.0163 63.8043 24.4291 63.4553 24.7501C63.1059 25.071 62.6477 25.2314 62.0801 25.2314C61.5128 25.2314 61.0563 25.071 60.7106 24.7501C60.3652 24.4291 60.1923 24.0163 60.1923 23.5115C60.1923 22.9994 60.3652 22.583 60.7106 22.2621C61.0563 21.9411 61.5128 21.7807 62.0801 21.7807C62.6477 21.7807 63.1059 21.9411 63.4553 22.2621ZM60.3888 38.2338V26.5295H63.8043V38.2338H60.3888ZM73.0994 26.443L73.056 29.7099C72.4956 29.6522 72.1029 29.6233 71.8774 29.6233C71.2809 29.6233 70.7951 29.7172 70.4204 29.9047C70.0458 30.0922 69.7713 30.3733 69.5965 30.7483V38.2338H66.1918V26.5295H69.3894L69.4982 27.9683C69.7966 27.4346 70.1657 27.0253 70.6058 26.7404C71.0462 26.4556 71.5461 26.3132 72.1065 26.3132C72.5137 26.3132 72.8447 26.3564 73.0994 26.443ZM84.348 34.1016C84.348 34.9455 84.1298 35.6972 83.693 36.3572C83.2566 37.0169 82.6637 37.5308 81.9143 37.8986C81.1652 38.2663 80.3285 38.4502 79.4046 38.4502C78.2188 38.4502 77.213 38.1941 76.3871 37.6822C75.5615 37.1702 74.9433 36.4688 74.5321 35.5783C74.121 34.6877 73.9156 33.6691 73.9156 32.5224V32.2519C73.9156 31.1052 74.121 30.0849 74.5321 29.1905C74.9433 28.2963 75.5599 27.5932 76.3819 27.0812C77.2039 26.5692 78.2079 26.3132 79.3937 26.3132C80.3686 26.3132 81.2287 26.4989 81.9744 26.8703C82.7202 27.2416 83.3022 27.7788 83.7203 28.4822C84.1387 29.1852 84.348 30.0163 84.348 30.9755H81.1505C81.143 30.4058 80.9815 29.9405 80.665 29.5799C80.3485 29.2194 79.8992 29.0391 79.3172 29.0391C78.5461 29.0391 78.0206 29.3258 77.7406 29.8991C77.4602 30.4724 77.3202 31.2566 77.3202 32.2519V32.5224C77.3202 33.5391 77.4602 34.3269 77.7406 34.8861C78.0206 35.4449 78.5534 35.7244 79.3392 35.7244C79.8848 35.7244 80.3212 35.5783 80.6486 35.2861C80.976 34.9941 81.1433 34.5994 81.1505 34.1016H84.348ZM86.1463 38.2338V21.6184H89.5618V38.2338H86.1463ZM102.414 33.4852H95.0049C95.1357 34.1774 95.4377 34.7236 95.9107 35.1238C96.3833 35.5241 96.9874 35.7244 97.722 35.7244C98.2895 35.7244 98.8131 35.6233 99.2933 35.4213C99.7735 35.2194 100.185 34.9058 100.526 34.4802L102.131 36.3733C101.716 36.9574 101.109 37.4497 100.308 37.8499C99.5079 38.2502 98.5732 38.4502 97.5037 38.4502C96.289 38.4502 95.2303 38.1961 94.3282 37.6877C93.4263 37.1791 92.7351 36.4924 92.2549 35.6269C91.7748 34.7616 91.5345 33.8097 91.5345 32.7711V32.3599C91.5345 31.1991 91.7567 30.1624 92.2004 29.2499C92.6441 28.3377 93.286 27.6203 94.1264 27.0974C94.9667 26.5746 95.9688 26.3132 97.1327 26.3132C98.2458 26.3132 99.199 26.5457 99.9917 27.0109C100.785 27.476 101.387 28.1394 101.798 29.0013C102.209 29.863 102.414 30.878 102.414 32.0463V33.4852ZM99.0751 30.9755C99.0751 30.3697 98.9097 29.8955 98.5788 29.553C98.2475 29.2105 97.7584 29.0391 97.111 29.0391C95.9541 29.0391 95.256 29.7747 95.0157 31.2458H99.0751V30.9755Z" fill="#262838"/>
</svg>
