<svg width="48" height="34" viewBox="0 0 48 34" fill="none" xmlns="http://www.w3.org/2000/svg">
<path d="M12.0001 18.25C12.0026 18.4476 11.9655 18.6438 11.891 18.8269C11.8165 19.0101 11.7061 19.1764 11.5663 19.3162C11.4265 19.456 11.2602 19.5664 11.0771 19.6409C10.8939 19.7154 10.6977 19.7525 10.5001 19.75H2.25006C1.9714 19.7477 1.69859 19.6697 1.4608 19.5244C1.22301 19.3791 1.02919 19.1719 0.90006 18.925C0.77998 18.6735 0.730506 18.3941 0.756926 18.1167C0.783347 17.8393 0.884669 17.5742 1.05006 17.35C2.37754 15.568 4.1489 14.1651 6.18756 13.2812C5.31155 12.4793 4.63849 11.4809 4.22378 10.368C3.80907 9.25515 3.66456 8.05972 3.80215 6.8801C3.93975 5.70048 4.3555 4.57041 5.01521 3.58287C5.67491 2.59534 6.5597 1.77859 7.59675 1.19985C8.6338 0.621098 9.79347 0.2969 10.9803 0.253934C12.1671 0.210968 13.3472 0.450462 14.4234 0.952705C15.4996 1.45495 16.4411 2.20558 17.1705 3.14282C17.8999 4.08007 18.3963 5.17712 18.6188 6.3437C18.6743 6.64754 18.6358 6.96106 18.5085 7.24246C18.3812 7.52386 18.1711 7.75977 17.9063 7.9187C15.4812 9.35674 13.6368 11.5992 12.6938 14.2562C12.2289 15.5361 11.9941 16.8882 12.0001 18.25ZM46.9501 17.35C45.6226 15.568 43.8512 14.1651 41.8126 13.2812C42.6886 12.4793 43.3616 11.4809 43.7763 10.368C44.1911 9.25515 44.3356 8.05972 44.198 6.8801C44.0604 5.70048 43.6446 4.57041 42.9849 3.58287C42.3252 2.59534 41.4404 1.77859 40.4034 1.19985C39.3663 0.621098 38.2066 0.2969 37.0198 0.253934C35.833 0.210968 34.6529 0.450462 33.5767 0.952705C32.5005 1.45495 31.559 2.20558 30.8296 3.14282C30.1002 4.08007 29.6038 5.17712 29.3813 6.3437C29.3258 6.64754 29.3643 6.96106 29.4916 7.24246C29.6189 7.52386 29.829 7.75977 30.0938 7.9187C32.522 9.35305 34.3675 11.5968 35.3063 14.2562C35.7712 15.5361 36.006 16.8882 36.0001 18.25C35.9975 18.4476 36.0346 18.6438 36.1091 18.8269C36.1836 19.0101 36.294 19.1764 36.4338 19.3162C36.5736 19.456 36.7399 19.5664 36.9231 19.6409C37.1062 19.7154 37.3024 19.7525 37.5001 19.75H45.7501C46.0286 19.75 46.3017 19.6724 46.5387 19.5259C46.7756 19.3795 46.9671 19.1699 47.0917 18.9208C47.2163 18.6716 47.269 18.3927 47.244 18.1152C47.219 17.8378 47.1172 17.5728 46.9501 17.35ZM29.4751 25.3937C30.9679 24.2495 32.0647 22.6663 32.6115 20.8666C33.1582 19.0669 33.1273 17.1412 32.5232 15.3599C31.9191 13.5787 30.7721 12.0314 29.2433 10.9357C27.7146 9.83986 25.881 9.25057 24.0001 9.25057C22.1192 9.25057 20.2855 9.83986 18.7568 10.9357C17.228 12.0314 16.081 13.5787 15.4769 15.3599C14.8728 17.1412 14.8419 19.0669 15.3887 20.8666C15.9354 22.6663 17.0322 24.2495 18.5251 25.3937C15.6086 26.6885 13.2441 28.9733 11.8501 31.8437C11.7391 32.0718 11.6895 32.3249 11.7059 32.578C11.7223 32.8311 11.8043 33.0756 11.9438 33.2875C12.0736 33.5048 12.2576 33.6847 12.4778 33.8096C12.6981 33.9345 12.9469 34.0001 13.2001 34H34.8001C35.0532 34.0001 35.3021 33.9345 35.5223 33.8096C35.7425 33.6847 35.9265 33.5048 36.0563 33.2875C36.1958 33.0756 36.2778 32.8311 36.2942 32.578C36.3107 32.3249 36.261 32.0718 36.1501 31.8437C34.756 28.9733 32.3916 26.6885 29.4751 25.3937Z" fill="#3D7EFF"/>
</svg>
