<svg width="12" height="7" viewBox="0 0 12 7" fill="none" xmlns="http://www.w3.org/2000/svg">
<path d="M11.4624 0.806253C11.4241 0.715252 11.3598 0.63761 11.2775 0.58311C11.1952 0.528611 11.0986 0.499694 10.9999 0.500002H0.999854C0.901141 0.499694 0.804546 0.528611 0.722241 0.58311C0.639936 0.63761 0.575605 0.715252 0.537354 0.806253C0.501331 0.898608 0.492193 0.999275 0.510995 1.09661C0.529798 1.19394 0.575774 1.28396 0.643604 1.35625L5.6436 6.35625C5.73917 6.44866 5.86691 6.50032 5.99985 6.50032C6.13279 6.50032 6.26053 6.44866 6.3561 6.35625L11.3561 1.35625C11.4239 1.28396 11.4699 1.19394 11.4887 1.09661C11.5075 0.999275 11.4984 0.898608 11.4624 0.806253Z" fill="#001014"/>
</svg>
