<svg width="312" height="253" viewBox="0 0 312 253" fill="none" xmlns="http://www.w3.org/2000/svg">
<rect width="312" height="253" rx="12" fill="white"/>
<path d="M27.875 20H20.125C19.5951 20.0016 19.0873 20.2129 18.7126 20.5876C18.3379 20.9623 18.1266 21.4701 18.125 22V31.5C18.125 31.7652 18.2304 32.0196 18.4179 32.2071C18.6054 32.3946 18.8598 32.5 19.125 32.5H20.625C20.8902 32.5 21.1446 32.3946 21.3321 32.2071C21.5196 32.0196 21.625 31.7652 21.625 31.5V30.5H26.375V31.5C26.375 31.7652 26.4804 32.0196 26.6679 32.2071C26.8554 32.3946 27.1098 32.5 27.375 32.5H28.875C29.1402 32.5 29.3946 32.3946 29.5821 32.2071C29.7696 32.0196 29.875 31.7652 29.875 31.5V22C29.8734 21.4701 29.6621 20.9623 29.2874 20.5876C28.9127 20.2129 28.4049 20.0016 27.875 20V20ZM21.125 28.5C20.9767 28.5 20.8317 28.456 20.7083 28.3736C20.585 28.2912 20.4889 28.1741 20.4321 28.037C20.3753 27.9 20.3605 27.7492 20.3894 27.6037C20.4183 27.4582 20.4898 27.3246 20.5947 27.2197C20.6996 27.1148 20.8332 27.0433 20.9787 27.0144C21.1242 26.9855 21.275 27.0003 21.412 27.0571C21.5491 27.1139 21.6662 27.21 21.7486 27.3333C21.831 27.4567 21.875 27.6017 21.875 27.75C21.875 27.9489 21.796 28.1397 21.6553 28.2803C21.5147 28.421 21.3239 28.5 21.125 28.5ZM26.875 28.5C26.7267 28.5 26.5817 28.456 26.4583 28.3736C26.335 28.2912 26.2389 28.1741 26.1821 28.037C26.1253 27.9 26.1105 27.7492 26.1394 27.6037C26.1683 27.4582 26.2398 27.3246 26.3447 27.2197C26.4496 27.1148 26.5832 27.0433 26.7287 27.0144C26.8742 26.9855 27.025 27.0003 27.162 27.0571C27.2991 27.1139 27.4162 27.21 27.4986 27.3333C27.581 27.4567 27.625 27.6017 27.625 27.75C27.625 27.9489 27.546 28.1397 27.4053 28.2803C27.2647 28.421 27.0739 28.5 26.875 28.5ZM28.875 25.5H19.125V22.5H28.875V25.5Z" fill="#845CF5"/>
<path d="M40.8608 30.5V21.7727H44.1335C44.804 21.7727 45.3665 21.8977 45.821 22.1477C46.2784 22.3977 46.6236 22.7415 46.8565 23.179C47.0923 23.6136 47.2102 24.108 47.2102 24.6619C47.2102 25.2216 47.0923 25.7187 46.8565 26.1534C46.6207 26.5881 46.2727 26.9304 45.8125 27.1804C45.3523 27.4276 44.7855 27.5511 44.1122 27.5511H41.9432V26.2514H43.8991C44.2912 26.2514 44.6122 26.1832 44.8622 26.0469C45.1122 25.9105 45.2969 25.723 45.4162 25.4844C45.5384 25.2457 45.5994 24.9716 45.5994 24.6619C45.5994 24.3523 45.5384 24.0795 45.4162 23.8438C45.2969 23.608 45.1108 23.4247 44.858 23.294C44.608 23.1605 44.2855 23.0938 43.8906 23.0938H42.4418V30.5H40.8608ZM50.2816 30.6321C49.8668 30.6321 49.4933 30.5582 49.1609 30.4105C48.8313 30.2599 48.57 30.0384 48.3768 29.7457C48.1864 29.4531 48.0913 29.0923 48.0913 28.6634C48.0913 28.294 48.1594 27.9886 48.2958 27.7472C48.4322 27.5057 48.6183 27.3125 48.854 27.1676C49.0898 27.0227 49.3555 26.9134 49.6509 26.8395C49.9492 26.7628 50.2575 26.7074 50.5756 26.6733C50.9592 26.6335 51.2702 26.598 51.5089 26.5668C51.7475 26.5327 51.9208 26.4815 52.0288 26.4134C52.1396 26.3423 52.195 26.233 52.195 26.0852V26.0597C52.195 25.7386 52.0998 25.4901 51.9094 25.3139C51.7191 25.1378 51.445 25.0497 51.087 25.0497C50.7092 25.0497 50.4094 25.1321 50.1879 25.2969C49.9691 25.4616 49.8214 25.6562 49.7447 25.8807L48.3043 25.6761C48.418 25.2784 48.6055 24.946 48.8668 24.679C49.1282 24.4091 49.4478 24.2074 49.8256 24.0739C50.2035 23.9375 50.6211 23.8693 51.0785 23.8693C51.3938 23.8693 51.7077 23.9062 52.0202 23.9801C52.3327 24.054 52.6183 24.1761 52.8768 24.3466C53.1353 24.5142 53.3427 24.7429 53.4989 25.0327C53.658 25.3224 53.7376 25.6847 53.7376 26.1193V30.5H52.2546V29.6009H52.2035C52.1097 29.7827 51.9776 29.9531 51.8072 30.1122C51.6396 30.2685 51.4279 30.3949 51.1722 30.4915C50.9194 30.5852 50.6225 30.6321 50.2816 30.6321ZM50.6822 29.4986C50.9918 29.4986 51.2603 29.4375 51.4876 29.3153C51.7148 29.1903 51.8896 29.0256 52.0117 28.821C52.1367 28.6165 52.1992 28.3935 52.1992 28.152V27.3807C52.1509 27.4205 52.0685 27.4574 51.9521 27.4915C51.8384 27.5256 51.7106 27.5554 51.5685 27.581C51.4265 27.6065 51.2859 27.6293 51.1467 27.6491C51.0075 27.669 50.8867 27.6861 50.7844 27.7003C50.5543 27.7315 50.3484 27.7827 50.1665 27.8537C49.9847 27.9247 49.8413 28.0241 49.7362 28.152C49.631 28.277 49.5785 28.4389 49.5785 28.6378C49.5785 28.9219 49.6822 29.1364 49.8896 29.2812C50.0969 29.4261 50.3612 29.4986 50.6822 29.4986ZM58.1353 33.0909C57.5813 33.0909 57.1055 33.0156 56.7077 32.8651C56.31 32.7173 55.9904 32.5185 55.7489 32.2685C55.5075 32.0185 55.3398 31.7415 55.2461 31.4375L56.6353 31.1009C56.6978 31.2287 56.7887 31.3551 56.908 31.4801C57.0273 31.608 57.1879 31.7131 57.3896 31.7955C57.5941 31.8807 57.8512 31.9233 58.1609 31.9233C58.5984 31.9233 58.9606 31.8168 59.2475 31.6037C59.5344 31.3935 59.6779 31.0469 59.6779 30.5639V29.3239H59.6012C59.5217 29.483 59.4052 29.6463 59.2518 29.8139C59.1012 29.9815 58.9009 30.1222 58.6509 30.2358C58.4038 30.3494 58.0927 30.4062 57.7177 30.4062C57.2148 30.4062 56.7589 30.2884 56.3498 30.0526C55.9435 29.8139 55.6197 29.4588 55.3782 28.9872C55.1396 28.5128 55.0202 27.919 55.0202 27.206C55.0202 26.4872 55.1396 25.8807 55.3782 25.3864C55.6197 24.8892 55.945 24.5128 56.354 24.2571C56.7631 23.9986 57.2191 23.8693 57.7219 23.8693C58.1055 23.8693 58.4208 23.9347 58.668 24.0653C58.918 24.1932 59.1168 24.348 59.2646 24.5298C59.4123 24.7088 59.5245 24.8778 59.6012 25.0369H59.6864V23.9545H61.2077V30.6065C61.2077 31.1662 61.0742 31.6293 60.8072 31.9957C60.5401 32.3622 60.1751 32.6364 59.712 32.8182C59.2489 33 58.7234 33.0909 58.1353 33.0909ZM58.1481 29.196C58.4748 29.196 58.7532 29.1165 58.9833 28.9574C59.2134 28.7983 59.3881 28.5696 59.5075 28.2713C59.6268 27.973 59.6864 27.6151 59.6864 27.1974C59.6864 26.7855 59.6268 26.4247 59.5075 26.1151C59.391 25.8054 59.2177 25.5653 58.9876 25.3949C58.7603 25.2216 58.4805 25.1349 58.1481 25.1349C57.8043 25.1349 57.5174 25.2244 57.2873 25.4034C57.0572 25.5824 56.8839 25.8281 56.7674 26.1406C56.6509 26.4503 56.5927 26.8026 56.5927 27.1974C56.5927 27.598 56.6509 27.9489 56.7674 28.25C56.8867 28.5483 57.0614 28.7812 57.2915 28.9489C57.5245 29.1136 57.81 29.196 58.1481 29.196ZM65.6864 30.6278C65.0302 30.6278 64.4634 30.4915 63.9862 30.2188C63.5117 29.9432 63.1467 29.554 62.891 29.0511C62.6353 28.5455 62.5075 27.9503 62.5075 27.2656C62.5075 26.5923 62.6353 26.0014 62.891 25.4929C63.1495 24.9815 63.5103 24.5838 63.9734 24.2997C64.4364 24.0128 64.9805 23.8693 65.6055 23.8693C66.0089 23.8693 66.3896 23.9347 66.7475 24.0653C67.1083 24.1932 67.4265 24.392 67.7021 24.6619C67.9805 24.9318 68.1992 25.2756 68.3583 25.6932C68.5174 26.108 68.5969 26.6023 68.5969 27.1761V27.6491H63.2319V26.6094H67.1183C67.1154 26.3139 67.0515 26.0511 66.9265 25.821C66.8015 25.5881 66.6268 25.4048 66.4023 25.2713C66.1808 25.1378 65.9222 25.071 65.6268 25.071C65.3114 25.071 65.0344 25.1477 64.7958 25.3011C64.5572 25.4517 64.3711 25.6506 64.2376 25.8977C64.1069 26.142 64.0401 26.4105 64.0373 26.7031V27.6108C64.0373 27.9915 64.1069 28.3182 64.2461 28.5909C64.3853 28.8608 64.5799 29.0682 64.8299 29.2131C65.0799 29.3551 65.3725 29.4261 65.7077 29.4261C65.9322 29.4261 66.1353 29.3949 66.3171 29.3324C66.4989 29.267 66.6566 29.1719 66.7901 29.0469C66.9237 28.9219 67.0245 28.767 67.0927 28.5824L68.533 28.7443C68.4421 29.125 68.2688 29.4574 68.0131 29.7415C67.7603 30.0227 67.4364 30.2415 67.0415 30.3977C66.6467 30.5511 66.195 30.6278 65.6864 30.6278ZM74.1143 21.7727L76.3857 28.642H76.4751L78.7422 21.7727H80.4808L77.4041 30.5H75.4524L72.38 21.7727H74.1143ZM81.5621 30.5V23.9545H83.1048V30.5H81.5621ZM82.3377 23.0256C82.0934 23.0256 81.8832 22.9446 81.707 22.7827C81.5309 22.6179 81.4428 22.4205 81.4428 22.1903C81.4428 21.9574 81.5309 21.7599 81.707 21.598C81.8832 21.4332 82.0934 21.3509 82.3377 21.3509C82.5849 21.3509 82.7951 21.4332 82.9684 21.598C83.1445 21.7599 83.2326 21.9574 83.2326 22.1903C83.2326 22.4205 83.1445 22.6179 82.9684 22.7827C82.7951 22.9446 82.5849 23.0256 82.3377 23.0256ZM89.8643 25.6847L88.4581 25.8381C88.4183 25.696 88.3487 25.5625 88.2493 25.4375C88.1527 25.3125 88.022 25.2116 87.8572 25.1349C87.6925 25.0582 87.4908 25.0199 87.2521 25.0199C86.9311 25.0199 86.6612 25.0895 86.4425 25.2287C86.2266 25.3679 86.12 25.5483 86.1229 25.7699C86.12 25.9602 86.1896 26.1151 86.3317 26.2344C86.4766 26.3537 86.7152 26.4517 87.0476 26.5284L88.1641 26.767C88.7834 26.9006 89.2436 27.1122 89.5447 27.402C89.8487 27.6918 90.0021 28.071 90.005 28.5398C90.0021 28.9517 89.8814 29.3153 89.6428 29.6307C89.407 29.9432 89.0788 30.1875 88.6584 30.3636C88.2379 30.5398 87.755 30.6278 87.2095 30.6278C86.4084 30.6278 85.7635 30.4602 85.2749 30.125C84.7862 29.7869 84.495 29.3168 84.4013 28.7145L85.9055 28.5696C85.9737 28.8651 86.1186 29.0881 86.3402 29.2386C86.5618 29.3892 86.8501 29.4645 87.2053 29.4645C87.5717 29.4645 87.8658 29.3892 88.0874 29.2386C88.3118 29.0881 88.424 28.902 88.424 28.6804C88.424 28.4929 88.3516 28.3381 88.2067 28.2159C88.0646 28.0937 87.843 28 87.5419 27.9347L86.4254 27.7003C85.7976 27.5696 85.3331 27.3494 85.032 27.0398C84.7308 26.7273 84.5817 26.3324 84.5845 25.8551C84.5817 25.4517 84.6911 25.1023 84.9126 24.8068C85.1371 24.5085 85.4482 24.2784 85.8459 24.1165C86.2464 23.9517 86.7081 23.8693 87.2308 23.8693C87.9979 23.8693 88.6016 24.0327 89.0419 24.3594C89.4851 24.6861 89.7592 25.1278 89.8643 25.6847ZM91.277 30.5V23.9545H92.8196V30.5H91.277ZM92.0526 23.0256C91.8082 23.0256 91.598 22.9446 91.4219 22.7827C91.2457 22.6179 91.1577 22.4205 91.1577 22.1903C91.1577 21.9574 91.2457 21.7599 91.4219 21.598C91.598 21.4332 91.8082 21.3509 92.0526 21.3509C92.2997 21.3509 92.5099 21.4332 92.6832 21.598C92.8594 21.7599 92.9474 21.9574 92.9474 22.1903C92.9474 22.4205 92.8594 22.6179 92.6832 22.7827C92.5099 22.9446 92.2997 23.0256 92.0526 23.0256ZM97.6744 23.9545V25.1477H93.9116V23.9545H97.6744ZM94.8406 22.3864H96.3832V28.5312C96.3832 28.7386 96.4144 28.8977 96.4769 29.0085C96.5423 29.1165 96.6275 29.1903 96.7326 29.2301C96.8377 29.2699 96.9542 29.2898 97.082 29.2898C97.1786 29.2898 97.2667 29.2827 97.3462 29.2685C97.4286 29.2543 97.4911 29.2415 97.5337 29.2301L97.7937 30.4361C97.7113 30.4645 97.5934 30.4957 97.44 30.5298C97.2894 30.5639 97.1048 30.5838 96.886 30.5895C96.4996 30.6009 96.1516 30.5426 95.842 30.4148C95.5323 30.2841 95.2866 30.0824 95.1048 29.8097C94.9258 29.5369 94.8377 29.196 94.8406 28.7869V22.3864ZM101.749 30.6278C101.11 30.6278 100.556 30.4872 100.087 30.206C99.6186 29.9247 99.255 29.5312 98.9964 29.0256C98.7408 28.5199 98.6129 27.929 98.6129 27.2528C98.6129 26.5767 98.7408 25.9844 98.9964 25.4759C99.255 24.9673 99.6186 24.5724 100.087 24.2912C100.556 24.0099 101.11 23.8693 101.749 23.8693C102.388 23.8693 102.942 24.0099 103.411 24.2912C103.88 24.5724 104.242 24.9673 104.498 25.4759C104.756 25.9844 104.886 26.5767 104.886 27.2528C104.886 27.929 104.756 28.5199 104.498 29.0256C104.242 29.5312 103.88 29.9247 103.411 30.206C102.942 30.4872 102.388 30.6278 101.749 30.6278ZM101.758 29.392C102.104 29.392 102.394 29.2969 102.627 29.1065C102.86 28.9134 103.033 28.6548 103.147 28.331C103.263 28.0071 103.322 27.6463 103.322 27.2486C103.322 26.848 103.263 26.4858 103.147 26.1619C103.033 25.8352 102.86 25.5753 102.627 25.3821C102.394 25.1889 102.104 25.0923 101.758 25.0923C101.403 25.0923 101.107 25.1889 100.871 25.3821C100.638 25.5753 100.464 25.8352 100.347 26.1619C100.234 26.4858 100.177 26.848 100.177 27.2486C100.177 27.6463 100.234 28.0071 100.347 28.331C100.464 28.6548 100.638 28.9134 100.871 29.1065C101.107 29.2969 101.403 29.392 101.758 29.392ZM106.195 30.5V23.9545H107.691V25.0455H107.759C107.878 24.6676 108.083 24.3764 108.373 24.1719C108.665 23.9645 108.999 23.8608 109.374 23.8608C109.459 23.8608 109.554 23.8651 109.659 23.8736C109.767 23.8793 109.857 23.8892 109.928 23.9034V25.3224C109.863 25.2997 109.759 25.2798 109.617 25.2628C109.478 25.2429 109.343 25.233 109.212 25.233C108.931 25.233 108.678 25.294 108.453 25.4162C108.232 25.5355 108.057 25.7017 107.929 25.9148C107.801 26.1278 107.738 26.3736 107.738 26.652V30.5H106.195ZM116.126 25.6847L114.72 25.8381C114.68 25.696 114.61 25.5625 114.511 25.4375C114.414 25.3125 114.284 25.2116 114.119 25.1349C113.954 25.0582 113.752 25.0199 113.514 25.0199C113.193 25.0199 112.923 25.0895 112.704 25.2287C112.488 25.3679 112.382 25.5483 112.385 25.7699C112.382 25.9602 112.451 26.1151 112.593 26.2344C112.738 26.3537 112.977 26.4517 113.309 26.5284L114.426 26.767C115.045 26.9006 115.505 27.1122 115.806 27.402C116.11 27.6918 116.264 28.071 116.267 28.5398C116.264 28.9517 116.143 29.3153 115.904 29.6307C115.669 29.9432 115.341 30.1875 114.92 30.3636C114.5 30.5398 114.017 30.6278 113.471 30.6278C112.67 30.6278 112.025 30.4602 111.537 30.125C111.048 29.7869 110.757 29.3168 110.663 28.7145L112.167 28.5696C112.235 28.8651 112.38 29.0881 112.602 29.2386C112.824 29.3892 113.112 29.4645 113.467 29.4645C113.833 29.4645 114.127 29.3892 114.349 29.2386C114.574 29.0881 114.686 28.902 114.686 28.6804C114.686 28.4929 114.613 28.3381 114.468 28.2159C114.326 28.0937 114.105 28 113.804 27.9347L112.687 27.7003C112.059 27.5696 111.595 27.3494 111.294 27.0398C110.993 26.7273 110.843 26.3324 110.846 25.8551C110.843 25.4517 110.953 25.1023 111.174 24.8068C111.399 24.5085 111.71 24.2784 112.108 24.1165C112.508 23.9517 112.97 23.8693 113.493 23.8693C114.26 23.8693 114.863 24.0327 115.304 24.3594C115.747 24.6861 116.021 25.1278 116.126 25.6847Z" fill="#845CF5"/>
<path d="M125.386 23.8068V23.1818H129.75V23.8068H127.92V29H127.216V23.8068H125.386ZM131.417 26.375V29H130.746V23.1818H131.417V25.3182H131.474C131.576 25.0928 131.729 24.9138 131.934 24.7812C132.14 24.6468 132.415 24.5795 132.758 24.5795C133.055 24.5795 133.316 24.6392 133.539 24.7585C133.763 24.8759 133.936 25.0568 134.059 25.3011C134.184 25.5436 134.246 25.8523 134.246 26.2273V29H133.576V26.2727C133.576 25.9261 133.486 25.6581 133.306 25.4688C133.128 25.2775 132.881 25.1818 132.565 25.1818C132.345 25.1818 132.148 25.2282 131.974 25.321C131.801 25.4138 131.665 25.5492 131.565 25.7273C131.466 25.9053 131.417 26.1212 131.417 26.375ZM135.473 29V24.6364H136.143V29H135.473ZM135.814 23.9091C135.683 23.9091 135.571 23.8646 135.476 23.7756C135.383 23.6866 135.337 23.5795 135.337 23.4545C135.337 23.3295 135.383 23.2225 135.476 23.1335C135.571 23.0445 135.683 23 135.814 23C135.945 23 136.056 23.0445 136.149 23.1335C136.244 23.2225 136.291 23.3295 136.291 23.4545C136.291 23.5795 136.244 23.6866 136.149 23.7756C136.056 23.8646 135.945 23.9091 135.814 23.9091ZM140.462 25.6136L139.86 25.7841C139.822 25.6837 139.766 25.5862 139.692 25.4915C139.621 25.3949 139.522 25.3153 139.397 25.2528C139.272 25.1903 139.112 25.1591 138.917 25.1591C138.65 25.1591 138.427 25.2206 138.249 25.3438C138.073 25.465 137.985 25.6193 137.985 25.8068C137.985 25.9735 138.046 26.1051 138.167 26.2017C138.288 26.2983 138.478 26.3788 138.735 26.4432L139.383 26.6023C139.773 26.697 140.064 26.8419 140.255 27.0369C140.446 27.2301 140.542 27.4792 140.542 27.7841C140.542 28.0341 140.47 28.2576 140.326 28.4545C140.184 28.6515 139.985 28.8068 139.729 28.9205C139.474 29.0341 139.176 29.0909 138.837 29.0909C138.392 29.0909 138.024 28.9943 137.732 28.8011C137.441 28.608 137.256 28.3258 137.178 27.9545L137.815 27.7955C137.875 28.0303 137.99 28.2064 138.158 28.3239C138.329 28.4413 138.551 28.5 138.826 28.5C139.138 28.5 139.387 28.4337 139.57 28.3011C139.756 28.1667 139.849 28.0057 139.849 27.8182C139.849 27.6667 139.796 27.5398 139.69 27.4375C139.584 27.3333 139.421 27.2557 139.201 27.2045L138.474 27.0341C138.074 26.9394 137.781 26.7926 137.593 26.5938C137.407 26.393 137.315 26.142 137.315 25.8409C137.315 25.5947 137.384 25.3769 137.522 25.1875C137.662 24.9981 137.853 24.8494 138.093 24.7415C138.335 24.6335 138.61 24.5795 138.917 24.5795C139.349 24.5795 139.688 24.6742 139.934 24.8636C140.182 25.053 140.358 25.303 140.462 25.6136ZM143.892 23.1818H144.733L146.71 28.0114H146.778L148.756 23.1818H149.597V29H148.938V24.5795H148.881L147.062 29H146.426L144.608 24.5795H144.551V29H143.892V23.1818ZM152.691 29.0909C152.297 29.0909 151.951 28.9972 151.654 28.8097C151.359 28.6222 151.128 28.3598 150.961 28.0227C150.796 27.6856 150.714 27.2917 150.714 26.8409C150.714 26.3864 150.796 25.9896 150.961 25.6506C151.128 25.3116 151.359 25.0483 151.654 24.8608C151.951 24.6733 152.297 24.5795 152.691 24.5795C153.085 24.5795 153.43 24.6733 153.725 24.8608C154.022 25.0483 154.254 25.3116 154.418 25.6506C154.585 25.9896 154.668 26.3864 154.668 26.8409C154.668 27.2917 154.585 27.6856 154.418 28.0227C154.254 28.3598 154.022 28.6222 153.725 28.8097C153.43 28.9972 153.085 29.0909 152.691 29.0909ZM152.691 28.4886C152.99 28.4886 153.237 28.4119 153.43 28.2585C153.623 28.1051 153.766 27.9034 153.859 27.6534C153.951 27.4034 153.998 27.1326 153.998 26.8409C153.998 26.5492 153.951 26.2775 153.859 26.0256C153.766 25.7737 153.623 25.5701 153.43 25.4148C153.237 25.2595 152.99 25.1818 152.691 25.1818C152.392 25.1818 152.146 25.2595 151.952 25.4148C151.759 25.5701 151.616 25.7737 151.523 26.0256C151.431 26.2775 151.384 26.5492 151.384 26.8409C151.384 27.1326 151.431 27.4034 151.523 27.6534C151.616 27.9034 151.759 28.1051 151.952 28.2585C152.146 28.4119 152.392 28.4886 152.691 28.4886ZM156.362 26.375V29H155.692V24.6364H156.339V25.3182H156.396C156.499 25.0966 156.654 24.9186 156.862 24.7841C157.071 24.6477 157.339 24.5795 157.669 24.5795C157.964 24.5795 158.223 24.6402 158.445 24.7614C158.666 24.8807 158.839 25.0625 158.962 25.3068C159.085 25.5492 159.146 25.8561 159.146 26.2273V29H158.476V26.2727C158.476 25.9299 158.387 25.6629 158.209 25.4716C158.031 25.2784 157.786 25.1818 157.476 25.1818C157.262 25.1818 157.071 25.2282 156.902 25.321C156.735 25.4138 156.604 25.5492 156.507 25.7273C156.411 25.9053 156.362 26.1212 156.362 26.375ZM162.269 24.6364V25.2045H160.008V24.6364H162.269ZM160.667 23.5909H161.337V27.75C161.337 27.9394 161.365 28.0814 161.42 28.1761C161.477 28.2689 161.549 28.3314 161.636 28.3636C161.725 28.3939 161.818 28.4091 161.917 28.4091C161.991 28.4091 162.051 28.4053 162.099 28.3977C162.146 28.3883 162.184 28.3807 162.212 28.375L162.349 28.9773C162.303 28.9943 162.24 29.0114 162.158 29.0284C162.077 29.0473 161.974 29.0568 161.849 29.0568C161.659 29.0568 161.474 29.0161 161.292 28.9347C161.112 28.8532 160.962 28.7292 160.843 28.5625C160.726 28.3958 160.667 28.1856 160.667 27.9318V23.5909ZM164.042 26.375V29H163.371V23.1818H164.042V25.3182H164.099C164.201 25.0928 164.354 24.9138 164.559 24.7812C164.765 24.6468 165.04 24.5795 165.383 24.5795C165.68 24.5795 165.941 24.6392 166.164 24.7585C166.388 24.8759 166.561 25.0568 166.684 25.3011C166.809 25.5436 166.871 25.8523 166.871 26.2273V29H166.201V26.2727C166.201 25.9261 166.111 25.6581 165.931 25.4688C165.753 25.2775 165.506 25.1818 165.19 25.1818C164.97 25.1818 164.773 25.2282 164.599 25.321C164.426 25.4138 164.29 25.5492 164.19 25.7273C164.091 25.9053 164.042 26.1212 164.042 26.375Z" fill="black" fill-opacity="0.4"/>
<path d="M286 24.4375V32.875" stroke="#D5D5D5" stroke-width="1.5" stroke-linecap="round" stroke-linejoin="round"/>
<path d="M286 19.125V21.3125" stroke="#D5D5D5" stroke-width="1.5" stroke-linecap="round" stroke-linejoin="round"/>
<path d="M286 24.4375C286.863 24.4375 287.562 23.7379 287.562 22.875C287.562 22.0121 286.863 21.3125 286 21.3125C285.137 21.3125 284.438 22.0121 284.438 22.875C284.438 23.7379 285.137 24.4375 286 24.4375Z" stroke="#D5D5D5" stroke-width="1.5" stroke-linecap="round" stroke-linejoin="round"/>
<path d="M291.625 30.6875V32.875" stroke="#D5D5D5" stroke-width="1.5" stroke-linecap="round" stroke-linejoin="round"/>
<path d="M291.625 19.125V27.5625" stroke="#D5D5D5" stroke-width="1.5" stroke-linecap="round" stroke-linejoin="round"/>
<path d="M291.625 30.6875C292.488 30.6875 293.188 29.9879 293.188 29.125C293.188 28.2621 292.488 27.5625 291.625 27.5625C290.762 27.5625 290.062 28.2621 290.062 29.125C290.062 29.9879 290.762 30.6875 291.625 30.6875Z" stroke="#D5D5D5" stroke-width="1.5" stroke-linecap="round" stroke-linejoin="round"/>
<path d="M280.375 28.1875V32.875" stroke="#D5D5D5" stroke-width="1.5" stroke-linecap="round" stroke-linejoin="round"/>
<path d="M280.375 19.125V25.0625" stroke="#D5D5D5" stroke-width="1.5" stroke-linecap="round" stroke-linejoin="round"/>
<path d="M280.375 28.1875C281.238 28.1875 281.938 27.4879 281.938 26.625C281.938 25.7621 281.238 25.0625 280.375 25.0625C279.512 25.0625 278.812 25.7621 278.812 26.625C278.812 27.4879 279.512 28.1875 280.375 28.1875Z" stroke="#D5D5D5" stroke-width="1.5" stroke-linecap="round" stroke-linejoin="round"/>
<path d="M18 140C18 137.791 19.7909 136 22 136H38C40.2091 136 42 137.791 42 140V166H18V140Z" fill="#327AEF" fill-opacity="0.12"/>
<path d="M54 91C54 88.7909 55.7909 87 58 87H74C76.2091 87 78 88.7909 78 91V166H54V91Z" fill="#327AEF"/>
<path d="M90 106C90 103.791 91.7909 102 94 102H110C112.209 102 114 103.791 114 106V166H90V106Z" fill="#327AEF" fill-opacity="0.12"/>
<path d="M126 91C126 88.7909 127.791 87 130 87H146C148.209 87 150 88.7909 150 91V166H126V91Z" fill="#327AEF"/>
<path d="M162 121C162 118.791 163.791 117 166 117H182C184.209 117 186 118.791 186 121V166H162V121Z" fill="#327AEF" fill-opacity="0.12"/>
<path d="M198 69C198 66.7909 199.791 65 202 65H218C220.209 65 222 66.7909 222 69V166H198V69Z" fill="#327AEF"/>
<path d="M234 106C234 103.791 235.791 102 238 102H254C256.209 102 258 103.791 258 106V166H234V106Z" fill="#327AEF" fill-opacity="0.12"/>
<path d="M270 69C270 66.7909 271.791 65 274 65H290C292.209 65 294 66.7909 294 69V166H270V69Z" fill="#327AEF"/>
<line x1="294" y1="175.5" x2="18" y2="175.5" stroke="black" stroke-opacity="0.08"/>
<rect width="286" height="54" transform="translate(13 191)" fill="white"/>
<path d="M27.0057 202.364V214H24.5455V204.699H24.4773L21.8125 206.369V204.188L24.6932 202.364H27.0057ZM33.9815 202.205C34.58 202.205 35.1558 202.305 35.7088 202.506C36.2656 202.706 36.7618 203.027 37.1974 203.466C37.6368 203.905 37.9834 204.489 38.2372 205.216C38.4948 205.939 38.6255 206.828 38.6293 207.881C38.6293 208.869 38.5175 209.752 38.294 210.528C38.0743 211.301 37.758 211.958 37.3452 212.5C36.9323 213.042 36.4342 213.455 35.8509 213.739C35.2675 214.019 34.616 214.159 33.8963 214.159C33.1198 214.159 32.4342 214.009 31.8395 213.71C31.2448 213.407 30.7656 212.996 30.402 212.477C30.0421 211.955 29.8243 211.367 29.7486 210.716H32.1747C32.2694 211.14 32.4683 211.47 32.7713 211.705C33.0743 211.936 33.4493 212.051 33.8963 212.051C34.6539 212.051 35.2296 211.722 35.6236 211.062C36.0175 210.4 36.2164 209.492 36.2202 208.341H36.1406C35.9664 208.682 35.7315 208.975 35.4361 209.222C35.1406 209.464 34.8016 209.652 34.419 209.784C34.0402 209.917 33.6368 209.983 33.2088 209.983C32.5232 209.983 31.9115 209.822 31.3736 209.5C30.8357 209.178 30.4115 208.735 30.1009 208.17C29.7902 207.606 29.6349 206.962 29.6349 206.239C29.6312 205.458 29.8111 204.763 30.1747 204.153C30.5384 203.544 31.0459 203.066 31.6974 202.722C32.3527 202.373 33.1141 202.201 33.9815 202.205ZM33.9986 204.136C33.616 204.136 33.2751 204.227 32.9759 204.409C32.6804 204.591 32.4455 204.835 32.2713 205.142C32.1009 205.449 32.0175 205.792 32.0213 206.17C32.0213 206.553 32.1046 206.898 32.2713 207.205C32.4418 207.508 32.6728 207.75 32.9645 207.932C33.2599 208.11 33.5971 208.199 33.9759 208.199C34.2599 208.199 34.5232 208.146 34.7656 208.04C35.008 207.934 35.2183 207.788 35.3963 207.602C35.5781 207.413 35.7202 207.195 35.8224 206.949C35.9247 206.703 35.9759 206.441 35.9759 206.165C35.9721 205.797 35.8849 205.46 35.7145 205.153C35.544 204.847 35.3092 204.6 35.0099 204.415C34.7107 204.229 34.3736 204.136 33.9986 204.136ZM40.402 214V202.364H42.8622V207.494H43.0156L47.2031 202.364H50.152L45.8338 207.574L50.2031 214H47.2599L44.0724 209.216L42.8622 210.693V214H40.402Z" fill="black" fill-opacity="0.8"/>
<path d="M22.4148 225.273L25.0057 232.619H25.108L27.6989 225.273H28.8068L25.6023 234H24.5114L21.3068 225.273H22.4148ZM30.0298 234V227.455H31.0355V234H30.0298ZM30.5412 226.364C30.3452 226.364 30.1761 226.297 30.0341 226.163C29.8949 226.03 29.8253 225.869 29.8253 225.682C29.8253 225.494 29.8949 225.334 30.0341 225.2C30.1761 225.067 30.3452 225 30.5412 225C30.7372 225 30.9048 225.067 31.044 225.2C31.1861 225.334 31.2571 225.494 31.2571 225.682C31.2571 225.869 31.1861 226.03 31.044 226.163C30.9048 226.297 30.7372 226.364 30.5412 226.364ZM37.5138 228.92L36.6104 229.176C36.5536 229.026 36.4698 228.879 36.359 228.737C36.2511 228.592 36.1033 228.473 35.9158 228.379C35.7283 228.286 35.4883 228.239 35.1957 228.239C34.7951 228.239 34.4613 228.331 34.1942 228.516C33.93 228.697 33.7979 228.929 33.7979 229.21C33.7979 229.46 33.8888 229.658 34.0707 229.803C34.2525 229.947 34.5366 230.068 34.9229 230.165L35.8945 230.403C36.4798 230.545 36.9158 230.763 37.2028 231.055C37.4897 231.345 37.6332 231.719 37.6332 232.176C37.6332 232.551 37.5252 232.886 37.3093 233.182C37.0962 233.477 36.7979 233.71 36.4144 233.881C36.0309 234.051 35.5849 234.136 35.0763 234.136C34.4087 234.136 33.8562 233.991 33.4187 233.702C32.9812 233.412 32.7042 232.989 32.5877 232.432L33.5423 232.193C33.6332 232.545 33.805 232.81 34.0579 232.986C34.3136 233.162 34.6474 233.25 35.0593 233.25C35.5281 233.25 35.9002 233.151 36.1758 232.952C36.4542 232.75 36.5934 232.509 36.5934 232.227C36.5934 232 36.5138 231.81 36.3548 231.656C36.1957 231.5 35.9513 231.384 35.6218 231.307L34.5309 231.051C33.9315 230.909 33.4911 230.689 33.2099 230.391C32.9315 230.089 32.7923 229.713 32.7923 229.261C32.7923 228.892 32.896 228.565 33.1033 228.281C33.3136 227.997 33.5991 227.774 33.9599 227.612C34.3235 227.45 34.7354 227.369 35.1957 227.369C35.8434 227.369 36.3519 227.511 36.7212 227.795C37.0934 228.08 37.3576 228.455 37.5138 228.92ZM39.147 234V227.455H40.1527V234H39.147ZM39.6584 226.364C39.4624 226.364 39.2933 226.297 39.1513 226.163C39.0121 226.03 38.9425 225.869 38.9425 225.682C38.9425 225.494 39.0121 225.334 39.1513 225.2C39.2933 225.067 39.4624 225 39.6584 225C39.8544 225 40.022 225.067 40.1612 225.2C40.3033 225.334 40.3743 225.494 40.3743 225.682C40.3743 225.869 40.3033 226.03 40.1612 226.163C40.022 226.297 39.8544 226.364 39.6584 226.364ZM44.8413 227.455V228.307H41.4492V227.455H44.8413ZM42.4379 225.886H43.4435V232.125C43.4435 232.409 43.4847 232.622 43.5671 232.764C43.6523 232.903 43.7603 232.997 43.891 233.045C44.0245 233.091 44.1651 233.114 44.3129 233.114C44.4237 233.114 44.5146 233.108 44.5856 233.097C44.6566 233.082 44.7134 233.071 44.756 233.062L44.9606 233.966C44.8924 233.991 44.7972 234.017 44.6751 234.043C44.5529 234.071 44.3981 234.085 44.2106 234.085C43.9265 234.085 43.6481 234.024 43.3754 233.902C43.1055 233.78 42.881 233.594 42.7021 233.344C42.5259 233.094 42.4379 232.778 42.4379 232.398V225.886ZM48.9428 234.136C48.3519 234.136 47.8335 233.996 47.3874 233.714C46.9442 233.433 46.5977 233.04 46.3477 232.534C46.1005 232.028 45.9769 231.437 45.9769 230.761C45.9769 230.08 46.1005 229.484 46.3477 228.976C46.5977 228.467 46.9442 228.072 47.3874 227.791C47.8335 227.51 48.3519 227.369 48.9428 227.369C49.5337 227.369 50.0508 227.51 50.494 227.791C50.94 228.072 51.2866 228.467 51.5337 228.976C51.7837 229.484 51.9087 230.08 51.9087 230.761C51.9087 231.437 51.7837 232.028 51.5337 232.534C51.2866 233.04 50.94 233.433 50.494 233.714C50.0508 233.996 49.5337 234.136 48.9428 234.136ZM48.9428 233.233C49.3917 233.233 49.761 233.118 50.0508 232.888C50.3406 232.658 50.555 232.355 50.6942 231.98C50.8335 231.605 50.9031 231.199 50.9031 230.761C50.9031 230.324 50.8335 229.916 50.6942 229.538C50.555 229.161 50.3406 228.855 50.0508 228.622C49.761 228.389 49.3917 228.273 48.9428 228.273C48.494 228.273 48.1246 228.389 47.8349 228.622C47.5451 228.855 47.3306 229.161 47.1914 229.538C47.0522 229.916 46.9826 230.324 46.9826 230.761C46.9826 231.199 47.0522 231.605 47.1914 231.98C47.3306 232.355 47.5451 232.658 47.8349 232.888C48.1246 233.118 48.494 233.233 48.9428 233.233ZM53.4439 234V227.455H54.4155V228.443H54.4837C54.603 228.119 54.8189 227.857 55.1314 227.655C55.4439 227.453 55.7962 227.352 56.1882 227.352C56.2621 227.352 56.3544 227.354 56.4652 227.357C56.576 227.359 56.6598 227.364 56.7166 227.369V228.392C56.6825 228.384 56.6044 228.371 56.4822 228.354C56.3629 228.334 56.2365 228.324 56.103 228.324C55.7848 228.324 55.5007 228.391 55.2507 228.524C55.0036 228.655 54.8075 228.837 54.6626 229.07C54.5206 229.3 54.4496 229.562 54.4496 229.858V234H53.4439ZM62.5451 228.92L61.6417 229.176C61.5849 229.026 61.5011 228.879 61.3903 228.737C61.2823 228.592 61.1346 228.473 60.9471 228.379C60.7596 228.286 60.5195 228.239 60.2269 228.239C59.8263 228.239 59.4925 228.331 59.2255 228.516C58.9613 228.697 58.8292 228.929 58.8292 229.21C58.8292 229.46 58.9201 229.658 59.1019 229.803C59.2837 229.947 59.5678 230.068 59.9542 230.165L60.9258 230.403C61.511 230.545 61.9471 230.763 62.234 231.055C62.521 231.345 62.6644 231.719 62.6644 232.176C62.6644 232.551 62.5565 232.886 62.3406 233.182C62.1275 233.477 61.8292 233.71 61.4457 233.881C61.0621 234.051 60.6161 234.136 60.1076 234.136C59.44 234.136 58.8874 233.991 58.4499 233.702C58.0124 233.412 57.7354 232.989 57.619 232.432L58.5735 232.193C58.6644 232.545 58.8363 232.81 59.0891 232.986C59.3448 233.162 59.6786 233.25 60.0906 233.25C60.5593 233.25 60.9315 233.151 61.207 232.952C61.4854 232.75 61.6246 232.509 61.6246 232.227C61.6246 232 61.5451 231.81 61.386 231.656C61.2269 231.5 60.9826 231.384 60.6531 231.307L59.5621 231.051C58.9627 230.909 58.5224 230.689 58.2411 230.391C57.9627 230.089 57.8235 229.713 57.8235 229.261C57.8235 228.892 57.9272 228.565 58.1346 228.281C58.3448 227.997 58.6303 227.774 58.9911 227.612C59.3548 227.45 59.7667 227.369 60.2269 227.369C60.8746 227.369 61.3832 227.511 61.7525 227.795C62.1246 228.08 62.3888 228.455 62.5451 228.92Z" fill="black" fill-opacity="0.64"/>
<line x1="80.5" y1="208" x2="80.5" y2="228" stroke="black" stroke-opacity="0.08"/>
<path d="M102.006 202.364V214H99.5455V204.699H99.4773L96.8125 206.369V204.188L99.6932 202.364H102.006ZM105.584 214.148C105.209 214.148 104.887 214.015 104.618 213.75C104.353 213.481 104.22 213.159 104.22 212.784C104.22 212.413 104.353 212.095 104.618 211.83C104.887 211.564 105.209 211.432 105.584 211.432C105.947 211.432 106.266 211.564 106.538 211.83C106.811 212.095 106.947 212.413 106.947 212.784C106.947 213.034 106.883 213.263 106.754 213.472C106.629 213.676 106.464 213.841 106.26 213.966C106.055 214.087 105.83 214.148 105.584 214.148ZM113.068 214.159C112.265 214.159 111.549 214.011 110.92 213.716C110.295 213.42 109.799 213.013 109.432 212.494C109.064 211.975 108.873 211.381 108.858 210.71H111.244C111.271 211.161 111.46 211.527 111.812 211.807C112.165 212.087 112.583 212.227 113.068 212.227C113.455 212.227 113.795 212.142 114.091 211.972C114.39 211.797 114.623 211.557 114.79 211.25C114.96 210.939 115.045 210.583 115.045 210.182C115.045 209.773 114.958 209.413 114.784 209.102C114.614 208.792 114.377 208.549 114.074 208.375C113.771 208.201 113.424 208.112 113.034 208.108C112.693 208.108 112.362 208.178 112.04 208.318C111.722 208.458 111.473 208.65 111.295 208.892L109.108 208.5L109.659 202.364H116.773V204.375H111.688L111.386 207.29H111.455C111.659 207.002 111.968 206.763 112.381 206.574C112.794 206.384 113.256 206.29 113.767 206.29C114.468 206.29 115.093 206.455 115.642 206.784C116.191 207.114 116.625 207.566 116.943 208.142C117.261 208.714 117.419 209.373 117.415 210.119C117.419 210.903 117.237 211.6 116.869 212.21C116.506 212.816 115.996 213.294 115.341 213.642C114.689 213.987 113.932 214.159 113.068 214.159ZM119.199 214V202.364H121.659V207.494H121.812L126 202.364H128.949L124.631 207.574L129 214H126.057L122.869 209.216L121.659 210.693V214H119.199Z" fill="black" fill-opacity="0.8"/>
<path d="M97.0568 234V225.273H98.1136V229.602H98.2159L102.136 225.273H103.517L99.8523 229.21L103.517 234H102.239L99.2045 229.943L98.1136 231.17V234H97.0568ZM105.754 230.062V234H104.749V227.455H105.72V228.477H105.805C105.959 228.145 106.192 227.878 106.504 227.676C106.817 227.472 107.22 227.369 107.714 227.369C108.158 227.369 108.545 227.46 108.878 227.642C109.21 227.821 109.469 228.094 109.653 228.46C109.838 228.824 109.93 229.284 109.93 229.841V234H108.925V229.909C108.925 229.395 108.791 228.994 108.524 228.707C108.257 228.418 107.891 228.273 107.425 228.273C107.104 228.273 106.817 228.342 106.564 228.482C106.314 228.621 106.116 228.824 105.972 229.091C105.827 229.358 105.754 229.682 105.754 230.062ZM114.427 234.136C113.836 234.136 113.318 233.996 112.872 233.714C112.429 233.433 112.082 233.04 111.832 232.534C111.585 232.028 111.461 231.437 111.461 230.761C111.461 230.08 111.585 229.484 111.832 228.976C112.082 228.467 112.429 228.072 112.872 227.791C113.318 227.51 113.836 227.369 114.427 227.369C115.018 227.369 115.535 227.51 115.978 227.791C116.424 228.072 116.771 228.467 117.018 228.976C117.268 229.484 117.393 230.08 117.393 230.761C117.393 231.437 117.268 232.028 117.018 232.534C116.771 233.04 116.424 233.433 115.978 233.714C115.535 233.996 115.018 234.136 114.427 234.136ZM114.427 233.233C114.876 233.233 115.245 233.118 115.535 232.888C115.825 232.658 116.039 232.355 116.179 231.98C116.318 231.605 116.387 231.199 116.387 230.761C116.387 230.324 116.318 229.916 116.179 229.538C116.039 229.161 115.825 228.855 115.535 228.622C115.245 228.389 114.876 228.273 114.427 228.273C113.978 228.273 113.609 228.389 113.319 228.622C113.029 228.855 112.815 229.161 112.676 229.538C112.537 229.916 112.467 230.324 112.467 230.761C112.467 231.199 112.537 231.605 112.676 231.98C112.815 232.355 113.029 232.658 113.319 232.888C113.609 233.118 113.978 233.233 114.427 233.233ZM120.189 234L118.194 227.455H119.251L120.666 232.466H120.734L122.132 227.455H123.206L124.586 232.449H124.654L126.069 227.455H127.126L125.132 234H124.143L122.711 228.972H122.609L121.177 234H120.189ZM129.461 230.062V234H128.456V227.455H129.427V228.477H129.512C129.666 228.145 129.899 227.878 130.211 227.676C130.524 227.472 130.927 227.369 131.422 227.369C131.865 227.369 132.252 227.46 132.585 227.642C132.917 227.821 133.176 228.094 133.36 228.46C133.545 228.824 133.637 229.284 133.637 229.841V234H132.632V229.909C132.632 229.395 132.498 228.994 132.231 228.707C131.964 228.418 131.598 228.273 131.132 228.273C130.811 228.273 130.524 228.342 130.271 228.482C130.021 228.621 129.824 228.824 129.679 229.091C129.534 229.358 129.461 229.682 129.461 230.062ZM146.009 228H144.952C144.89 227.696 144.781 227.429 144.624 227.199C144.471 226.969 144.283 226.776 144.062 226.619C143.843 226.46 143.6 226.341 143.333 226.261C143.066 226.182 142.788 226.142 142.498 226.142C141.969 226.142 141.491 226.276 141.062 226.543C140.636 226.81 140.296 227.203 140.043 227.723C139.793 228.243 139.668 228.881 139.668 229.636C139.668 230.392 139.793 231.03 140.043 231.55C140.296 232.07 140.636 232.463 141.062 232.73C141.491 232.997 141.969 233.131 142.498 233.131C142.788 233.131 143.066 233.091 143.333 233.011C143.6 232.932 143.843 232.814 144.062 232.658C144.283 232.499 144.471 232.304 144.624 232.074C144.781 231.841 144.89 231.574 144.952 231.273H146.009C145.93 231.719 145.785 232.118 145.575 232.47C145.364 232.822 145.103 233.122 144.79 233.369C144.478 233.614 144.127 233.8 143.738 233.928C143.352 234.055 142.938 234.119 142.498 234.119C141.754 234.119 141.092 233.938 140.512 233.574C139.933 233.21 139.477 232.693 139.144 232.023C138.812 231.352 138.646 230.557 138.646 229.636C138.646 228.716 138.812 227.92 139.144 227.25C139.477 226.58 139.933 226.062 140.512 225.699C141.092 225.335 141.754 225.153 142.498 225.153C142.938 225.153 143.352 225.217 143.738 225.345C144.127 225.473 144.478 225.661 144.79 225.908C145.103 226.152 145.364 226.45 145.575 226.803C145.785 227.152 145.93 227.551 146.009 228ZM150.24 234.136C149.649 234.136 149.13 233.996 148.684 233.714C148.241 233.433 147.895 233.04 147.645 232.534C147.397 232.028 147.274 231.437 147.274 230.761C147.274 230.08 147.397 229.484 147.645 228.976C147.895 228.467 148.241 228.072 148.684 227.791C149.13 227.51 149.649 227.369 150.24 227.369C150.831 227.369 151.348 227.51 151.791 227.791C152.237 228.072 152.583 228.467 152.831 228.976C153.081 229.484 153.206 230.08 153.206 230.761C153.206 231.437 153.081 232.028 152.831 232.534C152.583 233.04 152.237 233.433 151.791 233.714C151.348 233.996 150.831 234.136 150.24 234.136ZM150.24 233.233C150.689 233.233 151.058 233.118 151.348 232.888C151.637 232.658 151.852 232.355 151.991 231.98C152.13 231.605 152.2 231.199 152.2 230.761C152.2 230.324 152.13 229.916 151.991 229.538C151.852 229.161 151.637 228.855 151.348 228.622C151.058 228.389 150.689 228.273 150.24 228.273C149.791 228.273 149.422 228.389 149.132 228.622C148.842 228.855 148.627 229.161 148.488 229.538C148.349 229.916 148.279 230.324 148.279 230.761C148.279 231.199 148.349 231.605 148.488 231.98C148.627 232.355 148.842 232.658 149.132 232.888C149.422 233.118 149.791 233.233 150.24 233.233ZM155.746 230.062V234H154.741V227.455H155.712V228.477H155.798C155.951 228.145 156.184 227.878 156.496 227.676C156.809 227.472 157.212 227.369 157.707 227.369C158.15 227.369 158.538 227.46 158.87 227.642C159.202 227.821 159.461 228.094 159.646 228.46C159.83 228.824 159.923 229.284 159.923 229.841V234H158.917V229.909C158.917 229.395 158.783 228.994 158.516 228.707C158.249 228.418 157.883 228.273 157.417 228.273C157.096 228.273 156.809 228.342 156.556 228.482C156.306 228.621 156.109 228.824 155.964 229.091C155.819 229.358 155.746 229.682 155.746 230.062ZM164.607 227.455V228.307H161.215V227.455H164.607ZM162.203 225.886H163.209V232.125C163.209 232.409 163.25 232.622 163.333 232.764C163.418 232.903 163.526 232.997 163.657 233.045C163.79 233.091 163.931 233.114 164.078 233.114C164.189 233.114 164.28 233.108 164.351 233.097C164.422 233.082 164.479 233.071 164.522 233.062L164.726 233.966C164.658 233.991 164.563 234.017 164.441 234.043C164.319 234.071 164.164 234.085 163.976 234.085C163.692 234.085 163.414 234.024 163.141 233.902C162.871 233.78 162.647 233.594 162.468 233.344C162.292 233.094 162.203 232.778 162.203 232.398V225.886ZM168.046 234.153C167.631 234.153 167.255 234.075 166.917 233.919C166.578 233.76 166.31 233.531 166.111 233.233C165.912 232.932 165.813 232.568 165.813 232.142C165.813 231.767 165.887 231.463 166.034 231.23C166.182 230.994 166.38 230.81 166.627 230.676C166.874 230.543 167.147 230.443 167.445 230.378C167.746 230.31 168.049 230.256 168.353 230.216C168.75 230.165 169.073 230.126 169.32 230.101C169.57 230.072 169.752 230.026 169.865 229.96C169.982 229.895 170.04 229.781 170.04 229.619V229.585C170.04 229.165 169.925 228.838 169.695 228.605C169.468 228.372 169.123 228.256 168.659 228.256C168.179 228.256 167.803 228.361 167.53 228.571C167.257 228.781 167.066 229.006 166.955 229.244L166 228.903C166.171 228.506 166.398 228.196 166.682 227.974C166.969 227.75 167.282 227.594 167.62 227.506C167.961 227.415 168.296 227.369 168.625 227.369C168.836 227.369 169.077 227.395 169.35 227.446C169.625 227.494 169.891 227.595 170.147 227.749C170.405 227.902 170.62 228.134 170.79 228.443C170.961 228.753 171.046 229.168 171.046 229.688V234H170.04V233.114H169.989C169.921 233.256 169.807 233.408 169.648 233.57C169.489 233.732 169.277 233.869 169.013 233.983C168.749 234.097 168.426 234.153 168.046 234.153ZM168.199 233.25C168.597 233.25 168.932 233.172 169.205 233.016C169.48 232.859 169.688 232.658 169.827 232.411C169.969 232.163 170.04 231.903 170.04 231.631V230.71C169.998 230.761 169.904 230.808 169.759 230.851C169.617 230.891 169.452 230.926 169.265 230.957C169.08 230.986 168.9 231.011 168.723 231.034C168.55 231.054 168.409 231.071 168.301 231.085C168.04 231.119 167.796 231.175 167.569 231.251C167.344 231.325 167.162 231.437 167.023 231.588C166.887 231.736 166.819 231.937 166.819 232.193C166.819 232.543 166.948 232.807 167.206 232.986C167.468 233.162 167.799 233.25 168.199 233.25ZM175.54 234.136C174.927 234.136 174.398 233.991 173.955 233.702C173.512 233.412 173.171 233.013 172.933 232.504C172.694 231.996 172.575 231.415 172.575 230.761C172.575 230.097 172.697 229.51 172.941 229.001C173.188 228.49 173.532 228.091 173.972 227.804C174.415 227.514 174.933 227.369 175.523 227.369C175.984 227.369 176.398 227.455 176.768 227.625C177.137 227.795 177.44 228.034 177.675 228.341C177.911 228.648 178.058 229.006 178.114 229.415H177.109C177.032 229.116 176.862 228.852 176.597 228.622C176.336 228.389 175.984 228.273 175.54 228.273C175.148 228.273 174.805 228.375 174.509 228.58C174.217 228.781 173.988 229.067 173.823 229.436C173.661 229.803 173.58 230.233 173.58 230.727C173.58 231.233 173.66 231.673 173.819 232.048C173.981 232.423 174.208 232.714 174.501 232.922C174.796 233.129 175.143 233.233 175.54 233.233C175.802 233.233 176.039 233.188 176.252 233.097C176.465 233.006 176.646 232.875 176.793 232.705C176.941 232.534 177.046 232.33 177.109 232.091H178.114C178.058 232.477 177.917 232.825 177.692 233.135C177.471 233.442 177.177 233.686 176.81 233.868C176.447 234.047 176.023 234.136 175.54 234.136ZM182.431 227.455V228.307H179.039V227.455H182.431ZM180.028 225.886H181.033V232.125C181.033 232.409 181.075 232.622 181.157 232.764C181.242 232.903 181.35 232.997 181.481 233.045C181.614 233.091 181.755 233.114 181.903 233.114C182.013 233.114 182.104 233.108 182.175 233.097C182.246 233.082 182.303 233.071 182.346 233.062L182.55 233.966C182.482 233.991 182.387 234.017 182.265 234.043C182.143 234.071 181.988 234.085 181.8 234.085C181.516 234.085 181.238 234.024 180.965 233.902C180.695 233.78 180.471 233.594 180.292 233.344C180.116 233.094 180.028 232.778 180.028 232.398V225.886Z" fill="black" fill-opacity="0.64"/>
<line x1="200.5" y1="208" x2="200.5" y2="228" stroke="black" stroke-opacity="0.08"/>
<path d="M221.244 214.159C220.396 214.159 219.64 214.013 218.977 213.722C218.318 213.426 217.797 213.021 217.415 212.506C217.036 211.987 216.841 211.388 216.83 210.71H219.307C219.322 210.994 219.415 211.244 219.585 211.46C219.759 211.672 219.991 211.837 220.278 211.955C220.566 212.072 220.89 212.131 221.25 212.131C221.625 212.131 221.956 212.064 222.244 211.932C222.532 211.799 222.758 211.616 222.92 211.381C223.083 211.146 223.165 210.875 223.165 210.568C223.165 210.258 223.078 209.983 222.903 209.744C222.733 209.502 222.487 209.312 222.165 209.176C221.847 209.04 221.468 208.972 221.028 208.972H219.943V207.165H221.028C221.4 207.165 221.727 207.1 222.011 206.972C222.299 206.843 222.523 206.665 222.682 206.438C222.841 206.206 222.92 205.938 222.92 205.631C222.92 205.339 222.85 205.083 222.71 204.864C222.574 204.64 222.381 204.466 222.131 204.341C221.884 204.216 221.597 204.153 221.267 204.153C220.934 204.153 220.629 204.214 220.352 204.335C220.076 204.453 219.854 204.621 219.688 204.841C219.521 205.061 219.432 205.318 219.42 205.614H217.062C217.074 204.943 217.265 204.352 217.636 203.841C218.008 203.33 218.508 202.93 219.136 202.642C219.769 202.35 220.483 202.205 221.278 202.205C222.081 202.205 222.784 202.35 223.386 202.642C223.989 202.934 224.456 203.328 224.79 203.824C225.127 204.316 225.294 204.869 225.29 205.483C225.294 206.134 225.091 206.678 224.682 207.114C224.277 207.549 223.748 207.826 223.097 207.943V208.034C223.953 208.144 224.604 208.441 225.051 208.926C225.502 209.407 225.725 210.009 225.722 210.733C225.725 211.396 225.534 211.985 225.148 212.5C224.765 213.015 224.237 213.42 223.562 213.716C222.888 214.011 222.116 214.159 221.244 214.159ZM231.956 214.159C231.357 214.155 230.78 214.055 230.223 213.858C229.67 213.661 229.174 213.341 228.734 212.898C228.295 212.455 227.946 211.867 227.689 211.136C227.435 210.405 227.308 209.508 227.308 208.443C227.312 207.466 227.424 206.593 227.643 205.824C227.867 205.051 228.185 204.396 228.598 203.858C229.015 203.32 229.513 202.911 230.092 202.631C230.672 202.347 231.321 202.205 232.041 202.205C232.818 202.205 233.503 202.356 234.098 202.659C234.693 202.958 235.17 203.366 235.53 203.881C235.893 204.396 236.113 204.973 236.189 205.614H233.763C233.668 205.208 233.469 204.89 233.166 204.659C232.863 204.428 232.488 204.312 232.041 204.312C231.284 204.312 230.708 204.642 230.314 205.301C229.924 205.96 229.725 206.856 229.717 207.989H229.797C229.971 207.644 230.206 207.35 230.501 207.108C230.801 206.862 231.14 206.674 231.518 206.545C231.901 206.413 232.304 206.347 232.729 206.347C233.418 206.347 234.032 206.509 234.57 206.835C235.107 207.157 235.532 207.6 235.842 208.165C236.153 208.729 236.308 209.375 236.308 210.102C236.308 210.89 236.125 211.591 235.757 212.205C235.393 212.818 234.884 213.299 234.229 213.648C233.577 213.992 232.82 214.163 231.956 214.159ZM231.945 212.227C232.323 212.227 232.662 212.136 232.962 211.955C233.261 211.773 233.496 211.527 233.666 211.216C233.837 210.905 233.922 210.557 233.922 210.17C233.922 209.784 233.837 209.437 233.666 209.131C233.5 208.824 233.268 208.58 232.973 208.398C232.678 208.216 232.34 208.125 231.962 208.125C231.678 208.125 231.414 208.178 231.172 208.284C230.933 208.39 230.723 208.538 230.541 208.727C230.363 208.917 230.223 209.136 230.121 209.386C230.018 209.633 229.967 209.896 229.967 210.176C229.967 210.551 230.053 210.894 230.223 211.205C230.397 211.515 230.632 211.763 230.928 211.949C231.227 212.134 231.566 212.227 231.945 212.227ZM238.121 214V202.364H240.581V207.494H240.734L244.922 202.364H247.871L243.553 207.574L247.922 214H244.979L241.791 209.216L240.581 210.693V214H238.121Z" fill="black" fill-opacity="0.8"/>
<path d="M217.057 234V225.273H220.006C220.69 225.273 221.25 225.396 221.685 225.643C222.122 225.888 222.446 226.219 222.656 226.636C222.866 227.054 222.972 227.52 222.972 228.034C222.972 228.548 222.866 229.016 222.656 229.436C222.449 229.857 222.128 230.192 221.693 230.442C221.259 230.689 220.702 230.812 220.023 230.812H217.909V229.875H219.989C220.457 229.875 220.834 229.794 221.118 229.632C221.402 229.47 221.608 229.251 221.736 228.976C221.866 228.697 221.932 228.384 221.932 228.034C221.932 227.685 221.866 227.372 221.736 227.097C221.608 226.821 221.401 226.605 221.114 226.449C220.827 226.29 220.446 226.21 219.972 226.21H218.114V234H217.057ZM226.464 234.153C226.049 234.153 225.673 234.075 225.335 233.919C224.996 233.76 224.728 233.531 224.529 233.233C224.33 232.932 224.231 232.568 224.231 232.142C224.231 231.767 224.305 231.463 224.452 231.23C224.6 230.994 224.798 230.81 225.045 230.676C225.292 230.543 225.565 230.443 225.863 230.378C226.164 230.31 226.467 230.256 226.771 230.216C227.168 230.165 227.491 230.126 227.738 230.101C227.988 230.072 228.17 230.026 228.283 229.96C228.4 229.895 228.458 229.781 228.458 229.619V229.585C228.458 229.165 228.343 228.838 228.113 228.605C227.886 228.372 227.54 228.256 227.077 228.256C226.597 228.256 226.221 228.361 225.948 228.571C225.675 228.781 225.484 229.006 225.373 229.244L224.418 228.903C224.589 228.506 224.816 228.196 225.1 227.974C225.387 227.75 225.7 227.594 226.038 227.506C226.379 227.415 226.714 227.369 227.043 227.369C227.254 227.369 227.495 227.395 227.768 227.446C228.043 227.494 228.309 227.595 228.565 227.749C228.823 227.902 229.038 228.134 229.208 228.443C229.379 228.753 229.464 229.168 229.464 229.688V234H228.458V233.114H228.407C228.339 233.256 228.225 233.408 228.066 233.57C227.907 233.732 227.695 233.869 227.431 233.983C227.167 234.097 226.844 234.153 226.464 234.153ZM226.617 233.25C227.015 233.25 227.35 233.172 227.623 233.016C227.898 232.859 228.106 232.658 228.245 232.411C228.387 232.163 228.458 231.903 228.458 231.631V230.71C228.415 230.761 228.322 230.808 228.177 230.851C228.035 230.891 227.87 230.926 227.683 230.957C227.498 230.986 227.317 231.011 227.141 231.034C226.968 231.054 226.827 231.071 226.719 231.085C226.458 231.119 226.214 231.175 225.987 231.251C225.762 231.325 225.58 231.437 225.441 231.588C225.305 231.736 225.237 231.937 225.237 232.193C225.237 232.543 225.366 232.807 225.624 232.986C225.886 233.162 226.217 233.25 226.617 233.25ZM233.941 236.591C233.456 236.591 233.038 236.528 232.689 236.403C232.339 236.281 232.048 236.119 231.815 235.918C231.585 235.719 231.402 235.506 231.265 235.278L232.066 234.716C232.157 234.835 232.272 234.972 232.412 235.125C232.551 235.281 232.741 235.416 232.983 235.53C233.227 235.646 233.547 235.705 233.941 235.705C234.47 235.705 234.906 235.577 235.25 235.321C235.593 235.065 235.765 234.665 235.765 234.119V232.79H235.68C235.606 232.909 235.501 233.057 235.365 233.233C235.231 233.406 235.038 233.561 234.785 233.697C234.535 233.831 234.197 233.898 233.771 233.898C233.243 233.898 232.768 233.773 232.348 233.523C231.93 233.273 231.599 232.909 231.355 232.432C231.113 231.955 230.993 231.375 230.993 230.693C230.993 230.023 231.11 229.439 231.346 228.942C231.582 228.442 231.91 228.055 232.331 227.783C232.751 227.507 233.237 227.369 233.788 227.369C234.214 227.369 234.552 227.44 234.802 227.582C235.055 227.722 235.248 227.881 235.382 228.06C235.518 228.236 235.623 228.381 235.697 228.494H235.799V227.455H236.771V234.188C236.771 234.75 236.643 235.207 236.387 235.56C236.135 235.915 235.794 236.175 235.365 236.339C234.939 236.507 234.464 236.591 233.941 236.591ZM233.907 232.994C234.311 232.994 234.652 232.902 234.93 232.717C235.208 232.533 235.42 232.267 235.565 231.92C235.71 231.574 235.782 231.159 235.782 230.676C235.782 230.205 235.711 229.788 235.569 229.428C235.427 229.067 235.217 228.784 234.939 228.58C234.66 228.375 234.316 228.273 233.907 228.273C233.481 228.273 233.126 228.381 232.842 228.597C232.561 228.812 232.349 229.102 232.207 229.466C232.068 229.83 231.998 230.233 231.998 230.676C231.998 231.131 232.069 231.533 232.211 231.882C232.356 232.229 232.569 232.501 232.85 232.7C233.135 232.896 233.487 232.994 233.907 232.994ZM241.356 234.136C240.725 234.136 240.181 233.997 239.724 233.719C239.27 233.438 238.919 233.045 238.672 232.543C238.427 232.037 238.305 231.449 238.305 230.778C238.305 230.108 238.427 229.517 238.672 229.006C238.919 228.491 239.262 228.091 239.703 227.804C240.146 227.514 240.663 227.369 241.254 227.369C241.595 227.369 241.931 227.426 242.264 227.54C242.596 227.653 242.899 227.838 243.172 228.094C243.444 228.347 243.662 228.682 243.824 229.099C243.985 229.517 244.066 230.031 244.066 230.642V231.068H239.021V230.199H243.044C243.044 229.83 242.97 229.5 242.822 229.21C242.677 228.92 242.47 228.692 242.2 228.524C241.933 228.357 241.618 228.273 241.254 228.273C240.853 228.273 240.507 228.372 240.214 228.571C239.924 228.767 239.701 229.023 239.545 229.338C239.389 229.653 239.311 229.991 239.311 230.352V230.932C239.311 231.426 239.396 231.845 239.566 232.189C239.74 232.53 239.98 232.79 240.287 232.969C240.593 233.145 240.95 233.233 241.356 233.233C241.62 233.233 241.859 233.196 242.072 233.122C242.288 233.045 242.474 232.932 242.63 232.781C242.787 232.628 242.907 232.437 242.993 232.21L243.964 232.483C243.862 232.812 243.69 233.102 243.449 233.352C243.207 233.599 242.909 233.793 242.554 233.932C242.199 234.068 241.799 234.136 241.356 234.136ZM249.466 225.273L252.056 232.619H252.159L254.75 225.273H255.858L252.653 234H251.562L248.358 225.273H249.466ZM257.081 234V227.455H258.086V234H257.081ZM257.592 226.364C257.396 226.364 257.227 226.297 257.085 226.163C256.946 226.03 256.876 225.869 256.876 225.682C256.876 225.494 256.946 225.334 257.085 225.2C257.227 225.067 257.396 225 257.592 225C257.788 225 257.956 225.067 258.095 225.2C258.237 225.334 258.308 225.494 258.308 225.682C258.308 225.869 258.237 226.03 258.095 226.163C257.956 226.297 257.788 226.364 257.592 226.364ZM264.565 228.92L263.661 229.176C263.604 229.026 263.521 228.879 263.41 228.737C263.302 228.592 263.154 228.473 262.967 228.379C262.779 228.286 262.539 228.239 262.246 228.239C261.846 228.239 261.512 228.331 261.245 228.516C260.981 228.697 260.849 228.929 260.849 229.21C260.849 229.46 260.94 229.658 261.121 229.803C261.303 229.947 261.587 230.068 261.974 230.165L262.945 230.403C263.531 230.545 263.967 230.763 264.254 231.055C264.54 231.345 264.684 231.719 264.684 232.176C264.684 232.551 264.576 232.886 264.36 233.182C264.147 233.477 263.849 233.71 263.465 233.881C263.082 234.051 262.636 234.136 262.127 234.136C261.46 234.136 260.907 233.991 260.469 233.702C260.032 233.412 259.755 232.989 259.638 232.432L260.593 232.193C260.684 232.545 260.856 232.81 261.109 232.986C261.364 233.162 261.698 233.25 262.11 233.25C262.579 233.25 262.951 233.151 263.227 232.952C263.505 232.75 263.644 232.509 263.644 232.227C263.644 232 263.565 231.81 263.406 231.656C263.246 231.5 263.002 231.384 262.673 231.307L261.582 231.051C260.982 230.909 260.542 230.689 260.261 230.391C259.982 230.089 259.843 229.713 259.843 229.261C259.843 228.892 259.947 228.565 260.154 228.281C260.364 227.997 260.65 227.774 261.011 227.612C261.374 227.45 261.786 227.369 262.246 227.369C262.894 227.369 263.403 227.511 263.772 227.795C264.144 228.08 264.408 228.455 264.565 228.92ZM266.198 234V227.455H267.203V234H266.198ZM266.709 226.364C266.513 226.364 266.344 226.297 266.202 226.163C266.063 226.03 265.993 225.869 265.993 225.682C265.993 225.494 266.063 225.334 266.202 225.2C266.344 225.067 266.513 225 266.709 225C266.905 225 267.073 225.067 267.212 225.2C267.354 225.334 267.425 225.494 267.425 225.682C267.425 225.869 267.354 226.03 267.212 226.163C267.073 226.297 266.905 226.364 266.709 226.364ZM271.892 227.455V228.307H268.5V227.455H271.892ZM269.489 225.886H270.494V232.125C270.494 232.409 270.536 232.622 270.618 232.764C270.703 232.903 270.811 232.997 270.942 233.045C271.075 233.091 271.216 233.114 271.364 233.114C271.474 233.114 271.565 233.108 271.636 233.097C271.707 233.082 271.764 233.071 271.807 233.062L272.011 233.966C271.943 233.991 271.848 234.017 271.726 234.043C271.604 234.071 271.449 234.085 271.261 234.085C270.977 234.085 270.699 234.024 270.426 233.902C270.156 233.78 269.932 233.594 269.753 233.344C269.577 233.094 269.489 232.778 269.489 232.398V225.886ZM275.994 234.136C275.403 234.136 274.884 233.996 274.438 233.714C273.995 233.433 273.648 233.04 273.398 232.534C273.151 232.028 273.028 231.437 273.028 230.761C273.028 230.08 273.151 229.484 273.398 228.976C273.648 228.467 273.995 228.072 274.438 227.791C274.884 227.51 275.403 227.369 275.994 227.369C276.585 227.369 277.102 227.51 277.545 227.791C277.991 228.072 278.337 228.467 278.585 228.976C278.835 229.484 278.96 230.08 278.96 230.761C278.96 231.437 278.835 232.028 278.585 232.534C278.337 233.04 277.991 233.433 277.545 233.714C277.102 233.996 276.585 234.136 275.994 234.136ZM275.994 233.233C276.442 233.233 276.812 233.118 277.102 232.888C277.391 232.658 277.606 232.355 277.745 231.98C277.884 231.605 277.954 231.199 277.954 230.761C277.954 230.324 277.884 229.916 277.745 229.538C277.606 229.161 277.391 228.855 277.102 228.622C276.812 228.389 276.442 228.273 275.994 228.273C275.545 228.273 275.175 228.389 274.886 228.622C274.596 228.855 274.381 229.161 274.242 229.538C274.103 229.916 274.033 230.324 274.033 230.761C274.033 231.199 274.103 231.605 274.242 231.98C274.381 232.355 274.596 232.658 274.886 232.888C275.175 233.118 275.545 233.233 275.994 233.233ZM280.495 234V227.455H281.466V228.443H281.534C281.654 228.119 281.87 227.857 282.182 227.655C282.495 227.453 282.847 227.352 283.239 227.352C283.313 227.352 283.405 227.354 283.516 227.357C283.627 227.359 283.711 227.364 283.767 227.369V228.392C283.733 228.384 283.655 228.371 283.533 228.354C283.414 228.334 283.287 228.324 283.154 228.324C282.836 228.324 282.551 228.391 282.301 228.524C282.054 228.655 281.858 228.837 281.713 229.07C281.571 229.3 281.5 229.562 281.5 229.858V234H280.495ZM289.596 228.92L288.692 229.176C288.636 229.026 288.552 228.879 288.441 228.737C288.333 228.592 288.185 228.473 287.998 228.379C287.81 228.286 287.57 228.239 287.278 228.239C286.877 228.239 286.543 228.331 286.276 228.516C286.012 228.697 285.88 228.929 285.88 229.21C285.88 229.46 285.971 229.658 286.153 229.803C286.335 229.947 286.619 230.068 287.005 230.165L287.977 230.403C288.562 230.545 288.998 230.763 289.285 231.055C289.572 231.345 289.715 231.719 289.715 232.176C289.715 232.551 289.607 232.886 289.391 233.182C289.178 233.477 288.88 233.71 288.496 233.881C288.113 234.051 287.667 234.136 287.158 234.136C286.491 234.136 285.938 233.991 285.501 233.702C285.063 233.412 284.786 232.989 284.67 232.432L285.624 232.193C285.715 232.545 285.887 232.81 286.14 232.986C286.396 233.162 286.729 233.25 287.141 233.25C287.61 233.25 287.982 233.151 288.258 232.952C288.536 232.75 288.675 232.509 288.675 232.227C288.675 232 288.596 231.81 288.437 231.656C288.278 231.5 288.033 231.384 287.704 231.307L286.613 231.051C286.013 230.909 285.573 230.689 285.292 230.391C285.013 230.089 284.874 229.713 284.874 229.261C284.874 228.892 284.978 228.565 285.185 228.281C285.396 227.997 285.681 227.774 286.042 227.612C286.406 227.45 286.817 227.369 287.278 227.369C287.925 227.369 288.434 227.511 288.803 227.795C289.175 228.08 289.44 228.455 289.596 228.92Z" fill="black" fill-opacity="0.64"/>
</svg>
