<svg width="32" height="32" viewBox="0 0 32 32" fill="none" xmlns="http://www.w3.org/2000/svg">
<path d="M26.4997 16.5L19.3247 23.675C18.9542 24.0469 18.514 24.342 18.0292 24.5433C17.5444 24.7447 17.0246 24.8483 16.4997 24.8483C15.9748 24.8483 15.455 24.7447 14.9702 24.5433C14.4854 24.342 14.0452 24.0469 13.6747 23.675L8.3247 18.325C7.9528 17.9545 7.65771 17.5143 7.45637 17.0295C7.25502 16.5447 7.15137 16.0249 7.15137 15.5C7.15137 14.9751 7.25502 14.4553 7.45637 13.9705C7.65771 13.4857 7.9528 13.0455 8.3247 12.675L15.4997 5.5" stroke="#5C5C5C" stroke-width="2" stroke-linecap="round" stroke-linejoin="round"/>
<path d="M11 21L4 28" stroke="#5C5C5C" stroke-width="2" stroke-linecap="round" stroke-linejoin="round"/>
<path d="M18 8L23 3" stroke="#5C5C5C" stroke-width="2" stroke-linecap="round" stroke-linejoin="round"/>
<path d="M29 9L24 14" stroke="#5C5C5C" stroke-width="2" stroke-linecap="round" stroke-linejoin="round"/>
<path d="M28 18L14 4" stroke="#5C5C5C" stroke-width="2" stroke-linecap="round" stroke-linejoin="round"/>
</svg>
