<svg width="209" height="40" viewBox="0 0 209 40" fill="none" xmlns="http://www.w3.org/2000/svg">
<g clip-path="url(#clip0_141_4961)">
<path d="M5.50025 29.9092C5.50025 27.4419 7.50045 25.4417 9.96782 25.4417C12.4352 25.4417 14.4354 27.4419 14.4354 29.9092C14.4354 32.3766 12.4352 34.3768 9.96782 34.3768C7.50045 34.3768 5.50025 32.3766 5.50025 29.9092Z" fill="white" stroke="#EE4195" stroke-width="4.98487"/>
<path d="M39.879 4.35789e-07L19.9396 19.9395L19.9396 -8.71584e-07L39.879 4.35789e-07Z" fill="#F7893B"/>
<path d="M19.9396 19.9395L39.8791 39.8789C39.8791 39.8789 33.8596 39.8789 29.9094 39.8789C24.078 39.8789 22.9493 40.2551 21.2564 38.5622C19.5634 36.8692 19.9396 35.1762 19.9396 29.9092C19.9396 25.9589 19.9396 19.9395 19.9396 19.9395Z" fill="#6441EE"/>
<path d="M39.8791 39.8789L19.9396 19.9395L39.8791 19.9395L39.8791 39.8789Z" fill="#12CE70"/>
<path d="M19.9396 19.9395L39.879 4.35789e-07L39.8791 19.9395L19.9396 19.9395Z" fill="#F5CC00"/>
<path d="M19.9396 19.9395L0.000149727 -2.52564e-07L19.9396 -8.71584e-07L19.9396 19.9395Z" fill="#1FC9FF"/>
<path d="M0.000149727 -2.52564e-07L19.9396 19.9395C19.9396 19.9395 13.9202 19.9395 9.96988 19.9395C4.13853 19.9395 3.00988 20.3157 1.31691 18.6227C-0.376063 16.9297 0.000153381 15.2368 0.000152161 9.96973C0.000151246 6.01946 0.000149727 -2.52564e-07 0.000149727 -2.52564e-07Z" fill="#EF4354"/>
<path d="M19.9396 19.9395L19.9396 30.0973C19.9396 30.0973 19.9396 25.7708 17.118 22.9492C14.2964 20.1276 9.78178 19.9395 9.78178 19.9395L19.9396 19.9395Z" fill="#EF4354"/>
<path d="M19.9396 30.0973L19.9396 19.9395L17.118 22.9492C19.9396 25.7708 19.9396 30.0973 19.9396 30.0973Z" fill="#6441EE"/>
</g>
<path d="M74.7848 8.55176C74.7848 8.55176 70.2498 8.83184 68.5331 12.6574L63.3382 25.5792L58.2394 12.893C56.606 8.8382 51.8788 8.55812 51.8788 8.55812L61.0579 31.3335H63.3382H65.6762L74.7977 8.55812H74.7848V8.55176Z" fill="#001014"/>
<path d="M85.0205 8.55176C78.6791 8.55176 73.5611 13.6377 73.5611 19.9395C73.5611 26.1839 78.6791 31.3272 85.0205 31.3272C91.362 31.3272 96.48 26.1839 96.48 19.9395C96.48 13.6377 91.362 8.55176 85.0205 8.55176ZM85.0205 27.0114C81.0683 27.0114 77.8464 23.8605 77.8464 19.9331C77.8464 16.0056 81.0747 12.8038 85.0205 12.8038C88.9727 12.8038 92.1947 16.012 92.1947 19.9331C92.1947 23.8605 88.9663 27.0114 85.0205 27.0114Z" fill="#001014"/>
<path d="M110.147 8.55176C103.806 8.55176 98.6879 13.6377 98.6879 19.9395V31.3272C98.6879 31.3272 102.973 30.3469 102.973 27.0178V19.9395C102.973 16.012 106.202 12.8102 110.147 12.8102C114.099 12.8102 117.321 16.0184 117.321 19.9395V27.0242C117.328 30.3469 121.607 31.3272 121.607 31.3272V19.9395C121.607 13.6377 116.489 8.55176 110.147 8.55176Z" fill="#001014"/>
<path d="M135.271 8.55176C128.93 8.55176 123.812 13.6377 123.812 19.9395C123.812 26.1839 128.93 31.3272 135.271 31.3272C141.613 31.3272 146.731 26.1839 146.731 19.9395C146.731 13.6377 141.613 8.55176 135.271 8.55176ZM135.271 27.0114C131.319 27.0114 128.097 23.8605 128.097 19.9331C128.097 16.0056 131.326 12.8038 135.271 12.8038C139.224 12.8038 142.445 16.012 142.445 19.9331C142.452 23.8605 139.224 27.0114 135.271 27.0114Z" fill="#001014"/>
<path d="M173.699 8.55176C170.637 8.55176 167.914 9.93305 166.134 12.1482C164.353 9.93942 161.682 8.55176 158.626 8.55176C153.284 8.55176 148.948 12.8611 148.948 18.1699V31.3272C148.948 31.3272 153.233 30.3469 153.233 27.0178C153.233 26.865 153.259 26.7313 153.291 26.5977V18.1699C153.291 15.2418 155.68 12.8102 158.633 12.8102C161.579 12.8102 164.026 15.2418 164.026 18.1699V26.7122C164.046 26.8077 164.052 26.9096 164.052 27.0178C164.052 30.2323 168.03 31.2571 168.312 31.3208V18.1699C168.312 15.2418 170.701 12.8102 173.705 12.8102C176.652 12.8102 179.047 15.2418 179.047 18.1699V27.0178C179.047 30.3469 183.332 31.3272 183.332 31.3272V18.1699C183.32 12.8611 179.034 8.55176 173.699 8.55176Z" fill="#001014"/>
<path d="M200.678 26.0375C199.595 26.6804 198.34 27.0687 196.988 27.0687C193.76 27.0687 191.038 24.9681 190.147 22.091H208.23C208.339 21.429 208.454 20.7097 208.454 19.9331C208.454 13.6887 203.336 8.54541 196.995 8.54541C190.653 8.54541 185.535 13.6887 185.535 19.9331C185.535 26.2349 190.653 31.3208 196.995 31.3208C201.498 31.3208 205.45 28.7237 207.288 24.9618C202.158 24.9618 200.697 26.0375 200.697 26.0375H200.678ZM196.988 12.8612C200.159 12.8612 202.888 14.9617 203.829 17.8389H190.147C191.031 14.9617 193.76 12.8612 196.988 12.8612Z" fill="#001014"/>
<defs>
<clipPath id="clip0_141_4961">
<rect x="39.8789" width="39.879" height="39.879" rx="5.98185" transform="rotate(90 39.8789 0)" fill="white"/>
</clipPath>
</defs>
</svg>
