<svg width="40" height="40" viewBox="0 0 40 40" fill="none" xmlns="http://www.w3.org/2000/svg">
<path d="M36.9323 10.3251C36.9129 10.3042 36.8999 10.2782 36.8948 10.2501L36.8197 10.1564C34.1634 5.81794 29.9168 2.68933 24.986 1.43804C20.0552 0.18674 14.8307 0.911832 10.427 3.45861C6.02339 6.00539 2.78931 10.1722 1.41479 15.0701C0.0402812 19.9679 0.63417 25.209 3.06975 29.6751L3.10725 29.7501L3.1635 29.8251C5.795 34.2119 10.0449 37.3889 14.997 38.6713C19.9492 39.9537 25.2069 39.2388 29.6369 36.6807C34.0668 34.1226 37.3142 29.9262 38.6788 24.9961C40.0435 20.066 39.4163 14.797 36.9323 10.3251ZM33.4823 10.4939L21.501 17.3939V3.57512C23.8792 3.79479 26.1817 4.52698 28.2499 5.72133C30.3182 6.91569 32.1032 8.54386 33.4823 10.4939ZM20.001 36.5001C17.358 36.4993 14.7539 35.8636 12.4079 34.6465C10.0618 33.4294 8.04246 31.6666 6.51975 29.5064L34.9823 13.0814C36.1435 15.5956 36.6533 18.3617 36.4645 21.1247C36.2758 23.8877 35.3946 26.5587 33.9022 28.8917C32.4098 31.2246 30.3542 33.1444 27.9248 34.474C25.4954 35.8037 22.7705 36.5004 20.001 36.5001Z" fill="#F7893B"/>
</svg>
