<svg width="420" height="325" viewBox="0 0 420 325" fill="none" xmlns="http://www.w3.org/2000/svg">
<path d="M528.398 -103.246C578.061 -115.245 604.191 -46.6469 559.13 -22.5645L410.001 57.1367C392.515 66.4819 383.556 86.465 388.212 105.737L427.921 270.1C439.919 319.763 371.321 345.892 347.239 300.831L267.538 151.702C258.193 134.216 238.209 125.257 218.937 129.914L54.575 169.623C4.91137 181.621 -21.2177 113.023 23.843 88.9406L172.972 9.23947C190.458 -0.105816 199.417 -20.0889 194.761 -39.361L155.052 -203.723C143.053 -253.387 211.651 -279.516 235.734 -234.455L315.435 -85.3263C324.78 -67.8403 344.763 -58.8813 364.036 -63.5374L528.398 -103.246Z" stroke="#D6D6D6"/>
</svg>
