<svg width="288" height="397" viewBox="0 0 288 397" fill="none" xmlns="http://www.w3.org/2000/svg">
<path d="M-40.229 -142.577C-34.2038 -189.808 34.2037 -189.808 40.229 -142.577L60.1695 13.7335C62.5076 32.0616 76.9384 46.4924 95.2665 48.8305L251.577 68.771C298.808 74.7962 298.808 143.204 251.577 149.229L95.2665 169.169C76.9384 171.508 62.5076 185.938 60.1695 204.266L40.229 360.577C34.2037 407.808 -34.2038 407.808 -40.229 360.577L-60.1695 204.266C-62.5076 185.938 -76.9384 171.508 -95.2665 169.169L-251.577 149.229C-298.808 143.204 -298.808 74.7962 -251.577 68.771L-95.2665 48.8305C-76.9384 46.4924 -62.5076 32.0616 -60.1695 13.7335L-40.229 -142.577Z" stroke="#D6D6D6"/>
</svg>
