<svg width="384" height="458" viewBox="0 0 384 458" fill="none" xmlns="http://www.w3.org/2000/svg">
<path d="M-39.4332 -238.271C-31.655 -299.243 56.655 -299.243 64.4332 -238.271L90.1753 -36.4834C93.1936 -12.823 111.823 5.80639 135.483 8.82475L337.271 34.5668C398.243 42.345 398.243 130.655 337.271 138.433L135.483 164.175C111.823 167.194 93.1936 185.823 90.1753 209.483L64.4332 411.271C56.655 472.243 -31.655 472.243 -39.4332 411.271L-65.1753 209.483C-68.1936 185.823 -86.823 167.194 -110.483 164.175L-312.271 138.433C-373.243 130.655 -373.243 42.345 -312.271 34.5668L-110.483 8.82475C-86.823 5.80639 -68.1936 -12.823 -65.1753 -36.4834L-39.4332 -238.271Z" stroke="#D6D6D6" stroke-width="0.8"/>
</svg>
