<svg width="477" height="413" viewBox="0 0 477 413" fill="none" xmlns="http://www.w3.org/2000/svg">
<path d="M681.809 -139.112C745.916 -154.6 779.644 -66.0523 721.478 -34.9663L528.98 67.9132C506.409 79.9763 494.845 105.771 500.855 130.648L552.112 342.809C567.6 406.916 479.052 440.644 447.966 382.478L345.087 189.98C333.024 167.409 307.229 155.845 282.352 161.855L70.1908 213.112C6.08428 228.6 -27.6436 140.052 30.5216 108.966L223.02 6.08673C245.591 -5.97631 257.155 -31.7708 251.145 -56.6476L199.888 -268.809C184.4 -332.916 272.948 -366.644 304.034 -308.478L406.913 -115.98C418.976 -93.4091 444.771 -81.8447 469.648 -87.8548L681.809 -139.112Z" stroke="#D6D6D6" stroke-width="0.8"/>
</svg>
