<svg width="36" height="39" viewBox="0 0 36 39" fill="none" xmlns="http://www.w3.org/2000/svg">
<path d="M33 3H28.5V1.5C28.5 1.10218 28.342 0.720644 28.0607 0.43934C27.7794 0.158035 27.3978 0 27 0C26.6022 0 26.2206 0.158035 25.9393 0.43934C25.658 0.720644 25.5 1.10218 25.5 1.5V3H10.5V1.5C10.5 1.10218 10.342 0.720644 10.0607 0.43934C9.77936 0.158035 9.39782 0 9 0C8.60218 0 8.22064 0.158035 7.93934 0.43934C7.65804 0.720644 7.5 1.10218 7.5 1.5V3H3C2.20435 3 1.44129 3.31607 0.87868 3.87868C0.31607 4.44129 0 5.20435 0 6V36C0 36.7957 0.31607 37.5587 0.87868 38.1213C1.44129 38.6839 2.20435 39 3 39H33C33.7957 39 34.5587 38.6839 35.1213 38.1213C35.6839 37.5587 36 36.7957 36 36V6C36 5.20435 35.6839 4.44129 35.1213 3.87868C34.5587 3.31607 33.7957 3 33 3ZM25.7812 22.0875L17.025 30.3375C16.8889 30.4709 16.7276 30.5761 16.5506 30.6469C16.3736 30.7177 16.1844 30.7527 15.9938 30.75C15.6095 30.7515 15.2397 30.6036 14.9625 30.3375L10.2188 25.8375C10.0664 25.7046 9.94245 25.5422 9.85443 25.3601C9.76641 25.1781 9.71611 24.9801 9.70655 24.7781C9.697 24.5761 9.72838 24.3743 9.79882 24.1847C9.86926 23.9952 9.97729 23.8218 10.1164 23.6751C10.2556 23.5283 10.423 23.4113 10.6085 23.3309C10.7941 23.2505 10.9939 23.2084 11.1962 23.2072C11.3984 23.2061 11.5987 23.2458 11.7852 23.324C11.9717 23.4023 12.1404 23.5174 12.2812 23.6625L15.9938 27.1875L23.7188 19.9125C23.8604 19.7749 24.0282 19.6671 24.2121 19.5953C24.3961 19.5235 24.5926 19.4892 24.79 19.4944C24.9874 19.4997 25.1817 19.5443 25.3616 19.6258C25.5415 19.7073 25.7033 19.8239 25.8375 19.9688C26.1107 20.2573 26.2582 20.6425 26.2476 21.0398C26.2371 21.437 26.0694 21.8138 25.7812 22.0875ZM33 12H3V6H7.5V7.5C7.5 7.89782 7.65804 8.27936 7.93934 8.56066C8.22064 8.84196 8.60218 9 9 9C9.39782 9 9.77936 8.84196 10.0607 8.56066C10.342 8.27936 10.5 7.89782 10.5 7.5V6H25.5V7.5C25.5 7.89782 25.658 8.27936 25.9393 8.56066C26.2206 8.84196 26.6022 9 27 9C27.3978 9 27.7794 8.84196 28.0607 8.56066C28.342 8.27936 28.5 7.89782 28.5 7.5V6H33V12Z" fill="#EF4354"/>
</svg>
