<svg width="80" height="36" viewBox="0 0 80 36" fill="none" xmlns="http://www.w3.org/2000/svg">
<path d="M9.34493 35.183C5.09438 33.1107 -1.43373 10.7483 0.280622 4.13237C1.19987 0.584877 4.21295 0.0260849 22.2914 0.0503696C43.7313 0.0791724 44.8423 0.686572 43.1668 11.4634C42.3358 16.809 39.602 26.1395 37.279 31.559C34.6865 37.607 30.6615 37.063 26.0408 30.0403C21.9387 23.8054 21.4959 23.8695 16.4251 31.4322C13.7688 35.3937 11.8562 36.407 9.34493 35.183ZM57.2235 35.188C48.287 31.8505 43.7395 21.6684 46.7293 11.6901C47.937 7.65863 52.4095 2.8936 56.4485 1.3352C61.5365 -0.628018 68.9685 -0.399665 73.0343 1.8448C81.3428 6.43143 81.654 15.9455 73.6323 20.1193C71.0813 21.4466 64.9423 21.3998 62.299 20.033C59.9828 18.8351 59.817 19.1275 60.958 22.4002C62.4125 26.5728 67.1 28.2138 72.7068 26.513C77.3468 25.1058 77.8663 25.135 78.7883 26.858C79.8918 28.92 77.7345 32.316 74.133 34.1865C70.5103 36.068 61.0765 36.6268 57.2235 35.1878V35.188Z" fill="#001014"/>
</svg>
