<svg width="116" height="27" viewBox="0 0 116 27" fill="none" xmlns="http://www.w3.org/2000/svg">
<path d="M115.843 11.6483C115.843 4.80951 111.154 0 104.581 0C96.2132 0 90.6051 6.17803 90.6051 15.0003C90.6051 21.8848 95.3391 26.6486 102.024 26.6486C108.103 26.6486 112.634 23.6625 114.496 18.8976H107.744C106.846 20.3805 104.94 21.3143 102.608 21.3143C99.0177 21.3143 96.7746 18.8976 96.5719 15.4781H115.462C115.708 14.1795 115.843 13.0626 115.843 11.6483ZM97.0884 10.8503C97.6935 7.70538 100.701 5.19708 104.334 5.19708C107.475 5.19708 109.852 7.52241 109.852 10.8516H97.0884V10.8503ZM72.4572 26.0324L73.6687 19.4681C77.37 20.2202 77.9314 18.0995 78.8955 12.994L79.3668 10.4628C80.7121 3.3279 83.4268 -0.228721 91.1891 0.729368L89.9763 7.29496C86.275 6.54272 85.6249 9.39158 84.796 13.8135L84.3245 16.3447C82.9779 23.5711 80.1733 26.9905 72.4585 26.0337L72.4572 26.0324ZM63.3945 26.0565L67.9709 0.615008H74.0051L69.4512 26.0565H63.3945ZM28.8254 0.615008H34.6807L36.5877 19.012L44.2599 0.615008H50.0692L52.1122 19.1948L59.5146 0.615008H65.3475L54.7369 26.0565H48.0974L45.9416 8.54785L38.6082 26.0578H32.1925L28.8254 0.615008Z" fill="#2E4369"/>
<path d="M6.95335 7.36277L0 14.1101H11.8211L13.0552 11.171H7.06589L10.812 7.36277L8.63635 3.55583H18.7982L9.42035 26.0569H12.9427L23.5533 0.615479H3.05093L6.95335 7.36277Z" fill="#00B9FF"/>
</svg>
