<svg width="26" height="26" viewBox="0 0 26 26" fill="none" xmlns="http://www.w3.org/2000/svg">
<path d="M24.6999 14.8H22.8999V11.2H24.6999C24.9386 11.2 25.1675 11.1052 25.3363 10.9364C25.5051 10.7676 25.5999 10.5387 25.5999 10.3C25.5999 10.0613 25.5051 9.83241 25.3363 9.66363C25.1675 9.49485 24.9386 9.40003 24.6999 9.40003H22.8999V4.90002C22.8999 4.42264 22.7103 3.9648 22.3727 3.62723C22.0351 3.28967 21.5773 3.10002 21.0999 3.10002L16.5999 3.10002V1.30002C16.5999 1.06133 16.5051 0.832411 16.3363 0.663628C16.1675 0.494846 15.9386 0.400024 15.6999 0.400024C15.4612 0.400024 15.2323 0.494846 15.0635 0.663628C14.8947 0.832411 14.7999 1.06133 14.7999 1.30002V3.10002L11.1999 3.10002V1.30002C11.1999 1.06133 11.1051 0.832411 10.9363 0.663628C10.7675 0.494846 10.5386 0.400024 10.2999 0.400024C10.0612 0.400024 9.83229 0.494846 9.66351 0.663628C9.49472 0.832411 9.3999 1.06133 9.3999 1.30002V3.10002H4.8999C4.42251 3.10002 3.96468 3.28967 3.62711 3.62723C3.28954 3.9648 3.0999 4.42264 3.0999 4.90002V9.40003H1.2999C1.06121 9.40003 0.832289 9.49485 0.663506 9.66363C0.494723 9.83241 0.399902 10.0613 0.399902 10.3C0.399902 10.5387 0.494723 10.7676 0.663506 10.9364C0.832289 11.1052 1.06121 11.2 1.2999 11.2H3.0999L3.0999 14.8H1.2999C1.06121 14.8 0.832289 14.8948 0.663506 15.0636C0.494723 15.2324 0.399902 15.4613 0.399902 15.7C0.399902 15.9387 0.494723 16.1676 0.663506 16.3364C0.832289 16.5052 1.06121 16.6 1.2999 16.6H3.0999L3.0999 21.1C3.0999 21.5774 3.28954 22.0353 3.62711 22.3728C3.96468 22.7104 4.42251 22.9 4.8999 22.9H9.3999V24.7C9.3999 24.9387 9.49472 25.1676 9.66351 25.3364C9.83229 25.5052 10.0612 25.6 10.2999 25.6C10.5386 25.6 10.7675 25.5052 10.9363 25.3364C11.1051 25.1676 11.1999 24.9387 11.1999 24.7V22.9H14.7999V24.7C14.7999 24.9387 14.8947 25.1676 15.0635 25.3364C15.2323 25.5052 15.4612 25.6 15.6999 25.6C15.9386 25.6 16.1675 25.5052 16.3363 25.3364C16.5051 25.1676 16.5999 24.9387 16.5999 24.7V22.9H21.0999C21.5773 22.9 22.0351 22.7104 22.3727 22.3728C22.7103 22.0353 22.8999 21.5774 22.8999 21.1V16.6H24.6999C24.9386 16.6 25.1675 16.5052 25.3363 16.3364C25.5051 16.1676 25.5999 15.9387 25.5999 15.7C25.5999 15.4613 25.5051 15.2324 25.3363 15.0636C25.1675 14.8948 24.9386 14.8 24.6999 14.8ZM17.0499 16.15C17.0499 16.3887 16.9551 16.6176 16.7863 16.7864C16.6175 16.9552 16.3886 17.05 16.1499 17.05H9.8499C9.61121 17.05 9.38229 16.9552 9.21351 16.7864C9.04472 16.6176 8.9499 16.3887 8.9499 16.15V9.85003C8.9499 9.61133 9.04472 9.38241 9.21351 9.21363C9.38229 9.04485 9.61121 8.95003 9.8499 8.95003H16.1499C16.3886 8.95003 16.6175 9.04485 16.7863 9.21363C16.9551 9.38241 17.0499 9.61133 17.0499 9.85003V16.15ZM10.7499 10.75H15.2499V15.25H10.7499V10.75Z" fill="#00AEFF"/>
</svg>
