<svg width="22" height="23" viewBox="0 0 22 23" fill="none" xmlns="http://www.w3.org/2000/svg">
<path d="M19.75 0.375H2.25C1.78587 0.375 1.34075 0.559374 1.01256 0.887563C0.684374 1.21575 0.5 1.66087 0.5 2.125V8.54531C0.5 18.3234 8.79062 21.5719 10.4531 22.1187C10.8083 22.2356 11.1917 22.2356 11.5469 22.1187C13.2094 21.5719 21.5 18.3234 21.5 8.54531V2.125C21.5 1.66087 21.3156 1.21575 20.9874 0.887563C20.6592 0.559374 20.2141 0.375 19.75 0.375ZM16.4141 8.00938L10.0047 14.1344C9.83899 14.2902 9.61968 14.3764 9.39219 14.375C9.16805 14.3759 8.95235 14.2896 8.79063 14.1344L5.58594 11.0719C5.49705 10.9943 5.42476 10.8996 5.37342 10.7934C5.32207 10.6872 5.29273 10.5717 5.28716 10.4539C5.28158 10.3361 5.29989 10.2183 5.34098 10.1077C5.38207 9.99718 5.44509 9.89605 5.52626 9.81046C5.60742 9.72486 5.70506 9.65656 5.8133 9.60967C5.92154 9.56277 6.03814 9.53824 6.1561 9.53755C6.27405 9.53687 6.39093 9.56004 6.49971 9.60568C6.60848 9.65132 6.70691 9.71848 6.78906 9.80312L9.39219 12.2859L15.2109 6.74062C15.3811 6.59219 15.602 6.51527 15.8275 6.52594C16.0531 6.53661 16.2657 6.63405 16.4211 6.79788C16.5765 6.96171 16.6625 7.17926 16.6612 7.40504C16.6599 7.63082 16.5713 7.84736 16.4141 8.00938Z" fill="#12CE70"/>
</svg>
