<svg width="24" height="23" viewBox="0 0 24 23" fill="none" xmlns="http://www.w3.org/2000/svg">
<path d="M19.9625 3.89532C17.8431 1.79825 14.9814 0.622917 12 0.625003H11.8796C9.20453 0.65116 6.62422 1.61935 4.5922 3.35942C2.56017 5.09949 1.20647 7.50009 0.768991 10.1393C0.331512 12.7786 0.838253 15.4875 2.20016 17.7902C3.56206 20.0928 5.69198 21.8418 8.21559 22.7297C8.74335 22.915 9.30783 22.9711 9.86173 22.8933C10.4156 22.8155 10.9428 22.6061 11.3991 22.2826C11.8554 21.9591 12.2276 21.531 12.4844 21.034C12.7411 20.5371 12.8751 19.9859 12.875 19.4266V19C12.875 18.5359 13.0593 18.0908 13.3875 17.7626C13.7157 17.4344 14.1608 17.25 14.625 17.25H19.6781C20.4729 17.256 21.2456 16.9887 21.8668 16.4929C22.4881 15.9971 22.9201 15.3029 23.0906 14.5266C23.2895 13.666 23.3849 12.7848 23.375 11.9016C23.3661 10.4073 23.0598 8.92983 22.4739 7.55524C21.888 6.18064 21.0343 4.93647 19.9625 3.89532ZM7.73434 15.9813C7.50947 16.1108 7.25123 16.1708 6.99227 16.1536C6.73332 16.1365 6.48526 16.0429 6.27946 15.8848C6.07366 15.7267 5.91935 15.5111 5.83604 15.2653C5.75273 15.0195 5.74416 14.7546 5.81141 14.5039C5.87866 14.2533 6.01872 14.0282 6.21387 13.8571C6.40902 13.686 6.65051 13.5766 6.90782 13.5427C7.16513 13.5089 7.4267 13.5521 7.65947 13.6668C7.89224 13.7816 8.08577 13.9628 8.21559 14.1875C8.30186 14.3369 8.35785 14.5018 8.38036 14.6728C8.40287 14.8438 8.39145 15.0175 8.34675 15.1841C8.30205 15.3507 8.22496 15.5069 8.11988 15.6436C8.0148 15.7804 7.88379 15.8951 7.73434 15.9813ZM8.21559 9.8125C8.08577 10.0372 7.89224 10.2184 7.65947 10.3332C7.4267 10.448 7.16513 10.4911 6.90782 10.4573C6.65051 10.4234 6.40902 10.314 6.21387 10.1429C6.01872 9.97185 5.87866 9.74675 5.81141 9.49609C5.74416 9.24543 5.75273 8.98046 5.83604 8.73467C5.91935 8.48888 6.07366 8.2733 6.27946 8.11519C6.48526 7.95707 6.73332 7.86352 6.99227 7.84636C7.25123 7.82919 7.50947 7.88919 7.73434 8.01875C8.03397 8.1947 8.25239 8.48143 8.34243 8.81704C8.43247 9.15265 8.38691 9.5102 8.21559 9.8125ZM12 7.625C11.7404 7.625 11.4866 7.54803 11.2708 7.40381C11.0549 7.25959 10.8867 7.0546 10.7874 6.81477C10.688 6.57495 10.662 6.31105 10.7127 6.05645C10.7633 5.80185 10.8883 5.56798 11.0719 5.38443C11.2554 5.20087 11.4893 5.07587 11.7439 5.02522C11.9985 4.97458 12.2624 5.00057 12.5022 5.09991C12.7421 5.19925 12.947 5.36748 13.0913 5.58332C13.2355 5.79916 13.3125 6.05292 13.3125 6.3125C13.3125 6.6606 13.1742 6.99444 12.928 7.24058C12.6819 7.48672 12.3481 7.625 12 7.625ZM17.5781 10.2938C17.3532 10.4233 17.095 10.4833 16.836 10.4661C16.5771 10.449 16.329 10.3554 16.1232 10.1973C15.9174 10.0392 15.7631 9.82363 15.6798 9.57784C15.5965 9.33205 15.5879 9.06707 15.6552 8.81641C15.7224 8.56575 15.8625 8.34065 16.0576 8.16957C16.2528 7.99849 16.4943 7.88911 16.7516 7.85524C17.0089 7.82138 17.2704 7.86455 17.5032 7.97932C17.736 8.09408 17.9295 8.27528 18.0593 8.5C18.2307 8.80231 18.2762 9.15986 18.1862 9.49547C18.0961 9.83107 17.8777 10.1178 17.5781 10.2938Z" fill="#F5CC00"/>
</svg>
