<svg width="20" height="25" viewBox="0 0 20 25" fill="none" xmlns="http://www.w3.org/2000/svg">
<path d="M17.875 2.5H16.125V1.625C16.125 1.39294 16.0328 1.17038 15.8687 1.00628C15.7046 0.842187 15.4821 0.75 15.25 0.75C15.0179 0.75 14.7954 0.842187 14.6313 1.00628C14.4672 1.17038 14.375 1.39294 14.375 1.625V2.5H10.875V1.625C10.875 1.39294 10.7828 1.17038 10.6187 1.00628C10.4546 0.842187 10.2321 0.75 10 0.75C9.76794 0.75 9.54538 0.842187 9.38128 1.00628C9.21719 1.17038 9.125 1.39294 9.125 1.625V2.5H5.625V1.625C5.625 1.39294 5.53281 1.17038 5.36872 1.00628C5.20462 0.842187 4.98206 0.75 4.75 0.75C4.51794 0.75 4.29538 0.842187 4.13128 1.00628C3.96719 1.17038 3.875 1.39294 3.875 1.625V2.5H2.125C1.66087 2.5 1.21575 2.68437 0.887563 3.01256C0.559374 3.34075 0.375 3.78587 0.375 4.25V20.875C0.375 21.8033 0.743749 22.6935 1.40013 23.3499C2.0565 24.0063 2.94674 24.375 3.875 24.375H16.125C17.0533 24.375 17.9435 24.0063 18.5999 23.3499C19.2563 22.6935 19.625 21.8033 19.625 20.875V4.25C19.625 3.78587 19.4406 3.34075 19.1124 3.01256C18.7842 2.68437 18.3391 2.5 17.875 2.5ZM13.5 17.375H6.5C6.26794 17.375 6.04538 17.2828 5.88128 17.1187C5.71719 16.9546 5.625 16.7321 5.625 16.5C5.625 16.2679 5.71719 16.0454 5.88128 15.8813C6.04538 15.7172 6.26794 15.625 6.5 15.625H13.5C13.7321 15.625 13.9546 15.7172 14.1187 15.8813C14.2828 16.0454 14.375 16.2679 14.375 16.5C14.375 16.7321 14.2828 16.9546 14.1187 17.1187C13.9546 17.2828 13.7321 17.375 13.5 17.375ZM13.5 13.875H6.5C6.26794 13.875 6.04538 13.7828 5.88128 13.6187C5.71719 13.4546 5.625 13.2321 5.625 13C5.625 12.7679 5.71719 12.5454 5.88128 12.3813C6.04538 12.2172 6.26794 12.125 6.5 12.125H13.5C13.7321 12.125 13.9546 12.2172 14.1187 12.3813C14.2828 12.5454 14.375 12.7679 14.375 13C14.375 13.2321 14.2828 13.4546 14.1187 13.6187C13.9546 13.7828 13.7321 13.875 13.5 13.875Z" fill="#EE4195"/>
</svg>
