<svg width="26" height="23" viewBox="0 0 26 23" fill="none" xmlns="http://www.w3.org/2000/svg">
<path d="M25.1516 21.2312L19.0266 8.98125C18.955 8.83648 18.8443 8.71466 18.7071 8.6296C18.5698 8.54454 18.4115 8.49964 18.25 8.5C18.0869 8.49887 17.9268 8.54332 17.7876 8.62836C17.6485 8.71339 17.5359 8.83562 17.4625 8.98125L15.0891 13.7281C13.2284 13.6272 11.4378 12.9848 9.9375 11.8797C11.6971 9.99558 12.7653 7.57009 12.9672 5H15.625C15.8571 5 16.0796 4.90781 16.2437 4.74372C16.4078 4.57962 16.5 4.35706 16.5 4.125C16.5 3.89294 16.4078 3.67038 16.2437 3.50628C16.0796 3.34219 15.8571 3.25 15.625 3.25H9.5V1.5C9.5 1.26794 9.40781 1.04538 9.24372 0.881282C9.07962 0.717187 8.85706 0.625 8.625 0.625C8.39294 0.625 8.17038 0.717187 8.00628 0.881282C7.84219 1.04538 7.75 1.26794 7.75 1.5V3.25H1.625C1.39294 3.25 1.17038 3.34219 1.00628 3.50628C0.842187 3.67038 0.75 3.89294 0.75 4.125C0.75 4.35706 0.842187 4.57962 1.00628 4.74372C1.17038 4.90781 1.39294 5 1.625 5H11.2063C11.0132 7.1427 10.1039 9.15787 8.625 10.7203C7.70148 9.74888 6.99334 8.5935 6.54688 7.32969C6.46786 7.11265 6.30623 6.93566 6.09724 6.83731C5.88825 6.73896 5.64885 6.72723 5.43125 6.80469C5.32192 6.84148 5.22107 6.89979 5.13463 6.97618C5.0482 7.05257 4.97794 7.14549 4.92799 7.24947C4.87804 7.35344 4.84941 7.46637 4.8438 7.58159C4.83819 7.6968 4.8557 7.81197 4.89531 7.92031C5.41995 9.3924 6.24285 10.7403 7.3125 11.8797C5.66693 13.0981 3.67257 13.754 1.625 13.75C1.39294 13.75 1.17038 13.8422 1.00628 14.0063C0.842187 14.1704 0.75 14.3929 0.75 14.625C0.75 14.8571 0.842187 15.0796 1.00628 15.2437C1.17038 15.4078 1.39294 15.5 1.625 15.5C4.16292 15.4993 6.62743 14.6483 8.625 13.0828C10.2515 14.3575 12.1955 15.1631 14.2469 15.4125L11.3375 21.2312C11.2331 21.4387 11.2153 21.6791 11.2881 21.8996C11.3609 22.1201 11.5184 22.3026 11.7258 22.407C11.9332 22.5115 12.1736 22.5292 12.3941 22.4564C12.6146 22.3836 12.7971 22.2262 12.9016 22.0188L14.4109 19H22.0781L23.5875 22.0188C23.6609 22.1644 23.7735 22.2866 23.9126 22.3716C24.0518 22.4567 24.2119 22.5011 24.375 22.5C24.5107 22.4971 24.6446 22.4674 24.7688 22.4125C24.9747 22.3051 25.1301 22.1211 25.2017 21.9002C25.2733 21.6792 25.2553 21.439 25.1516 21.2312ZM15.2859 17.25L18.25 11.3328L21.2031 17.25H15.2859Z" fill="black"/>
</svg>
