<svg width="26" height="24" viewBox="0 0 26 24" fill="none" xmlns="http://www.w3.org/2000/svg">
<path d="M24.211 18.7594C24.8831 17.5049 25.239 16.1055 25.248 14.6824C25.257 13.2593 24.9187 11.8554 24.2625 10.5926C23.6063 9.32979 22.652 8.24608 21.4823 7.43544C20.3126 6.6248 18.9629 6.11169 17.55 5.94061C17.0849 4.85565 16.405 3.87604 15.5512 3.06074C14.6975 2.24544 13.6877 1.61132 12.5825 1.19654C11.4773 0.781769 10.2996 0.594918 9.12023 0.647241C7.94091 0.699563 6.78437 0.989976 5.72024 1.501C4.6561 2.01202 3.70637 2.73308 2.92822 3.62078C2.15006 4.50848 1.55958 5.54446 1.19231 6.66635C0.825042 7.78824 0.688582 8.97285 0.791145 10.1489C0.893709 11.3249 1.23318 12.468 1.78911 13.5094L1.11098 15.8719C1.03239 16.1347 1.02636 16.4138 1.09353 16.6798C1.1607 16.9457 1.29857 17.1885 1.49253 17.3825C1.68649 17.5765 1.92931 17.7143 2.19526 17.7815C2.46121 17.8487 2.74037 17.8426 3.00317 17.764L5.36567 17.0859C6.32516 17.5974 7.37079 17.9274 8.45005 18.0594C8.92676 19.1766 9.63087 20.1823 10.5176 21.0126C11.4042 21.8428 12.4541 22.4793 13.6002 22.8816C14.7464 23.2839 15.9637 23.4431 17.1747 23.3492C18.3858 23.2552 19.564 22.9101 20.6344 22.3359L22.9969 23.014C23.2597 23.0926 23.5389 23.0987 23.8048 23.0315C24.0708 22.9643 24.3136 22.8265 24.5076 22.6325C24.7015 22.4385 24.8394 22.1957 24.9066 21.9298C24.9737 21.6638 24.9677 21.3847 24.8891 21.1219L24.211 18.7594ZM22.5266 18.2015C22.4629 18.3011 22.4212 18.4131 22.4043 18.53C22.3873 18.6469 22.3954 18.7661 22.4282 18.8797L23.1063 21.2312L20.7547 20.5531C20.6412 20.5204 20.522 20.5122 20.4051 20.5292C20.2881 20.5462 20.1762 20.5879 20.0766 20.6516C19.2748 21.1247 18.3869 21.4336 17.4646 21.5604C16.5423 21.6872 15.604 21.6293 14.7043 21.3901C13.8045 21.1509 12.9613 20.7352 12.2237 20.1672C11.4862 19.5991 10.8689 18.89 10.4079 18.0812C12.5584 17.852 14.5484 16.8365 15.9958 15.2296C17.4433 13.6226 18.246 11.5377 18.25 9.37499C18.2476 8.85052 18.2 8.32724 18.1079 7.81093C19.6429 8.17318 21.0106 9.04321 21.9893 10.28C22.968 11.5168 23.5003 13.0478 23.5 14.625C23.4986 15.8824 23.1626 17.1168 22.5266 18.2015Z" fill="#EF4354"/>
</svg>
