<svg width="24" height="20" viewBox="0 0 24 20" fill="none" xmlns="http://www.w3.org/2000/svg">
<path d="M21.625 0.375H2.375C1.91087 0.375 1.46575 0.559374 1.13756 0.887563C0.809374 1.21575 0.625 1.66087 0.625 2.125V17.875C0.625 18.3391 0.809374 18.7842 1.13756 19.1124C1.46575 19.4406 1.91087 19.625 2.375 19.625H21.625C22.0891 19.625 22.5342 19.4406 22.8624 19.1124C23.1906 18.7842 23.375 18.3391 23.375 17.875V2.125C23.375 1.66087 23.1906 1.21575 22.8624 0.887563C22.5342 0.559374 22.0891 0.375 21.625 0.375ZM5 12.625H3.25C3.01794 12.625 2.79538 12.5328 2.63128 12.3687C2.46719 12.2046 2.375 11.9821 2.375 11.75C2.375 11.5179 2.46719 11.2954 2.63128 11.1313C2.79538 10.9672 3.01794 10.875 3.25 10.875H5C5.23206 10.875 5.45462 10.9672 5.61872 11.1313C5.78281 11.2954 5.875 11.5179 5.875 11.75C5.875 11.9821 5.78281 12.2046 5.61872 12.3687C5.45462 12.5328 5.23206 12.625 5 12.625ZM5 9.125H3.25C3.01794 9.125 2.79538 9.03281 2.63128 8.86872C2.46719 8.70462 2.375 8.48206 2.375 8.25C2.375 8.01794 2.46719 7.79538 2.63128 7.63128C2.79538 7.46719 3.01794 7.375 3.25 7.375H5C5.23206 7.375 5.45462 7.46719 5.61872 7.63128C5.78281 7.79538 5.875 8.01794 5.875 8.25C5.875 8.48206 5.78281 8.70462 5.61872 8.86872C5.45462 9.03281 5.23206 9.125 5 9.125ZM5 5.625H3.25C3.01794 5.625 2.79538 5.53281 2.63128 5.36872C2.46719 5.20462 2.375 4.98206 2.375 4.75C2.375 4.51794 2.46719 4.29538 2.63128 4.13128C2.79538 3.96719 3.01794 3.875 3.25 3.875H5C5.23206 3.875 5.45462 3.96719 5.61872 4.13128C5.78281 4.29538 5.875 4.51794 5.875 4.75C5.875 4.98206 5.78281 5.20462 5.61872 5.36872C5.45462 5.53281 5.23206 5.625 5 5.625ZM21.625 17.875H7.625V2.125H21.625V17.875Z" fill="#845CF5"/>
</svg>
