<svg width="23" height="22" viewBox="0 0 23 22" fill="none" xmlns="http://www.w3.org/2000/svg">
<path d="M15.0625 7.0625V5.75H13.75C13.2859 5.75 12.8408 5.93437 12.5126 6.26256C12.1844 6.59075 12 7.03587 12 7.5V14.5C12 14.9641 12.1844 15.4092 12.5126 15.7374C12.8408 16.0656 13.2859 16.25 13.75 16.25H15.0625V14.9375C15.0625 14.4734 15.2469 14.0283 15.5751 13.7001C15.9033 13.3719 16.3484 13.1875 16.8125 13.1875H21.1875C21.6516 13.1875 22.0967 13.3719 22.4249 13.7001C22.7531 14.0283 22.9375 14.4734 22.9375 14.9375V19.3125C22.9375 19.7766 22.7531 20.2217 22.4249 20.5499C22.0967 20.8781 21.6516 21.0625 21.1875 21.0625H16.8125C16.3484 21.0625 15.9033 20.8781 15.5751 20.5499C15.2469 20.2217 15.0625 19.7766 15.0625 19.3125V18H13.75C12.8226 17.9971 11.9341 17.6274 11.2783 16.9717C10.6226 16.3159 10.2529 15.4274 10.25 14.5V11.875H7.1875V12.75C7.1875 13.2141 7.00313 13.6592 6.67494 13.9874C6.34675 14.3156 5.90163 14.5 5.4375 14.5H1.9375C1.47337 14.5 1.02825 14.3156 0.700063 13.9874C0.371874 13.6592 0.1875 13.2141 0.1875 12.75V9.25C0.1875 8.78587 0.371874 8.34075 0.700063 8.01256C1.02825 7.68437 1.47337 7.5 1.9375 7.5H5.4375C5.90163 7.5 6.34675 7.68437 6.67494 8.01256C7.00313 8.34075 7.1875 8.78587 7.1875 9.25V10.125H10.25V7.5C10.2529 6.57263 10.6226 5.68407 11.2783 5.02831C11.9341 4.37256 12.8226 4.00288 13.75 4H15.0625V2.6875C15.0625 2.22337 15.2469 1.77825 15.5751 1.45006C15.9033 1.12187 16.3484 0.9375 16.8125 0.9375H21.1875C21.6516 0.9375 22.0967 1.12187 22.4249 1.45006C22.7531 1.77825 22.9375 2.22337 22.9375 2.6875V7.0625C22.9375 7.52663 22.7531 7.97175 22.4249 8.29994C22.0967 8.62813 21.6516 8.8125 21.1875 8.8125H16.8125C16.3484 8.8125 15.9033 8.62813 15.5751 8.29994C15.2469 7.97175 15.0625 7.52663 15.0625 7.0625Z" fill="#3D7EFF"/>
</svg>
